<svg xmlns="http://www.w3.org/2000/svg" width="59" height="59" viewBox="0 0 59 59"><g><g><g><path fill="#fff" d="M27.481 9.056h3.387a.687.687 0 0 0 .694-.686.686.686 0 0 0-.693-.684H27.48zm0 3.2h3.464c.462 0 .769-.306.769-.762 0-.457-.309-.76-.77-.76h-3.463zm5.466-2.437c.462.457.769 1.066.769 1.752 0 1.37-1.078 2.437-2.463 2.437h-5.619V6.01h5.542c1.309 0 2.387 1.067 2.387 2.362a3.065 3.065 0 0 1-.616 1.447zm1.309 13.708h-2.079l-.615-1.37H27.02l-.616 1.37h-2.078l4.003-7.997h1.847zm-5.003-5.94l-1.385 2.894h2.77zm2.77 7.692h2.31l-4.079 5.18v2.817H28.33v-2.817l-4.08-5.18h2.31l2.771 3.656zm10.7 1.753h-5.387v1.37h5.234v1.753h-5.234v1.523h5.388v1.753H35.41v-8.15h7.313zm5.927 3.198h-1.463v3.046h-1.924v-7.997h4.925c1.385 0 2.463 1.142 2.463 2.514 0 1.142-.77 2.056-1.771 2.362l2.387 3.122h-2.31zm-1.385-3.275v1.524h2.771c.462 0 .77-.38.77-.761 0-.382-.385-.763-.77-.763zm-22.169 6.321h-2.078l-.616-1.37h-4.54l-.617 1.37h-2.078l4.08-7.997h1.846zm-5.003-5.94l-1.385 2.894h2.847zm-12.24.99h3.387a.687.687 0 0 0 .694-.686.687.687 0 0 0-.694-.686H7.853zm0 3.199h3.463c.463 0 .77-.305.77-.761 0-.457-.309-.761-.77-.761H7.853zm6.235-.686c0 1.37-1.078 2.437-2.463 2.437H5.93v-7.997h5.541c1.31 0 2.387 1.067 2.387 2.362 0 .532-.23 1.065-.54 1.446.463.457.77 1.066.77 1.752zm18.859 5.865h-5.388v1.37h5.234v1.753H27.56v1.524h5.388v1.752h-7.313v-8.15h7.313zm-1.385 10.662c0-.457-.309-.76-.77-.76h-3.31v1.523h3.31c.461-.002.77-.305.77-.763zm-6.004-2.437h5.388c1.385 0 2.463 1.142 2.463 2.514 0 1.066-.616 1.904-1.54 2.285l2.463 3.2h-2.31l-2.309-3.047h-2.232v3.046l-1.923-.001z"/></g><g><path fill="#fff" d="M29.25.45C44.8.45 57.5 12.484 58.422 27.564c.078.61.078 1.218.078 1.752 0 .305-.02.61-.039.914-.02.305-.038.61-.038.914 0-.534-.077-1.143-.154-1.752l.004.034c.075.598.15 1.196.15 1.794C57.5 46.3 44.798 58.334 29.25 58.334 13.7 58.334 1 46.299.078 31.219 0 30.61 0 30.002 0 29.468c0-.305.02-.61.039-.914.02-.304.039-.609.039-.914 0 .534.076 1.144.153 1.753a28.235 28.235 0 0 0 5.465 13.556c5.31 7.159 13.855 11.805 23.554 11.805 13.547 0 24.631-10.358 25.556-23.533.077-.61.077-1.219.077-1.828 0-.61 0-1.219-.077-1.828C53.88 14.465 42.797 4.03 29.25 4.03c1.833 0 3.624.166 5.36.483a29.18 29.18 0 0 0 0 0 29.787 29.787 0 0 0-5.36-.483C15.703 4.03 4.62 14.464 3.694 27.564c-.077.61-.077 1.219-.077 1.828s0 1.218.077 1.827c.925 13.1 12.009 23.534 25.556 23.534-9.698 0-18.242-4.646-23.553-11.805A28.186 28.186 0 0 1 .23 29.392l-.004-.034c-.075-.598-.15-1.196-.15-1.794C1 12.484 13.702.45 29.25.45z"/></g></g></g></svg>