<svg xmlns="http://www.w3.org/2000/svg" width="99" height="115" viewBox="0 0 99 115"><g><g><g><path fill="#fff" d="M71.534.881L71.452.74H52.67v27.73h8.085V8.875h6.03l17.596 30.668-17.596 30.668h-6.03v-26.6h10.15v-8.135H52.67v42.87h18.783l22.264-38.803z"/></g><g><path fill="#fff" d="M26.924.74h18.782v62.465h-8.085V43.611H16.33l15.262 26.6h14.116v8.135H26.925l-.082-.14L4.66 39.542zM37.62 35.476v-26.6h-6.03l-15.262 26.6z"/></g></g><g><g><path fill="#fff" d="M39 108.018v.437l-.043.035h-.679c.253.254.418.595.418.98 0 .902-.696 1.62-1.653 1.62-.28 0-.54-.07-.757-.194-.087.08-.131.157-.131.263 0 .656 2.888.438 2.888 1.97 0 .734-.713 1.286-1.923 1.286s-2.07-.324-2.07-1.242c0-.57.557-.998 1.079-1.34-.261-.14-.47-.324-.47-.613a.71.71 0 0 1 .287-.552 1.555 1.555 0 0 1-.556-1.199c0-.892.739-1.619 1.653-1.619.226 0 .452.053.652.13h1.26zm-3.419 5.155c0 .534.565.77 1.54.77.931 0 1.384-.376 1.384-.814 0-.7-1.27-.884-1.94-1.112-.323.185-.984.658-.984 1.156zm.33-3.702c0 .63.505 1.147 1.132 1.147a1.147 1.147 0 0 0 0-2.294 1.14 1.14 0 0 0-1.131 1.147z"/></g><g><path fill="#fff" d="M41.82 107.982l.043.043v.43a2.068 2.068 0 0 1 1.426-.605c.261 0 .54.043.801.175l.043.507-.043.044c-.279-.219-.583-.236-.8-.236-.549 0-1.14.289-1.427.735v2.976l-.043.044h-.427l-.043-.044v-4.026l.043-.043z"/></g><g><path fill="#fff" d="M50.182 110.039c0 1.225-.939 2.188-2.13 2.188-1.193 0-2.132-.963-2.132-2.188 0-1.226.94-2.189 2.131-2.189 1.192 0 2.131.964 2.131 2.189zm-3.722 0c0 .971.696 1.698 1.592 1.698.896 0 1.592-.727 1.592-1.698 0-.972-.696-1.699-1.592-1.699-.897 0-1.592.727-1.592 1.699z"/></g><g><path fill="#fff" d="M53.14 107.982l.043.043v2.145c0 1.015.417 1.566 1.33 1.566.55 0 1.097-.289 1.385-.735v-2.977l.043-.043h.426l.044.043v4.026l-.044.044h-.426l-.043-.044v-.429a1.965 1.965 0 0 1-1.384.605c-1.253 0-1.844-.744-1.844-2.014v-2.189l.043-.043h.427z"/></g><g><path fill="#fff" d="M59.75 107.982l.044.043v.43c.33-.36.835-.605 1.4-.605 1.2 0 2.131.963 2.131 2.189 0 1.225-.93 2.188-2.13 2.188a1.91 1.91 0 0 1-1.401-.604v2.442l-.044.043h-.427l-.043-.043v-6.04l.043-.043zm.043 3.02a1.69 1.69 0 0 0 1.4.735c.905 0 1.592-.727 1.592-1.698 0-.972-.687-1.699-1.592-1.699-.565 0-1.079.29-1.4.736z"/></g></g><g><g><path fill="#fff" d="M5.631 92.41l.07.07 3.646 9.554-.07.07H7.146l-.07-.07-.687-1.939h-3.44l-.687 1.939-.07.07H.06l-.069-.07 3.647-9.554.069-.07zm-2.064 5.746H5.77l-1.101-3.253z"/></g><g><path fill="#fff" d="M15.682 92.41c2.959 0 5.091 2.174 5.091 4.846 0 2.673-2.132 4.846-5.09 4.846h-3.234l-.069-.07V92.48l.07-.07zm-1.376 7.754h1.376c1.79 0 3.028-1.177 3.028-2.908 0-1.731-1.239-2.908-3.028-2.908h-1.376z"/></g><g><path fill="#fff" d="M25.104 92.41l.07.07 2.475 6.714 2.477-6.714.069-.07h2.064l.069.07-3.647 9.554-.069.07h-1.926l-.07-.07-3.646-9.554.07-.07z"/></g><g><path fill="#fff" d="M41.896 92.41l.07.07v1.8l-.07.07h-4.609v1.73h3.37l.07.07v1.799l-.07.07h-3.37v2.146h4.747l.07.07v1.8l-.07.07h-6.605l-.069-.07V92.48l.07-.07z"/></g><g><path fill="#fff" d="M47.327 92.41l.138.07 4.816 6.3v-6.3l.069-.07h1.789l.069.07v9.554l-.07.07h-1.857l-.138-.07-4.816-6.3v6.3l-.07.07H45.47l-.069-.07V92.48l.07-.07z"/></g><g><path fill="#fff" d="M65.148 92.41l.069.07v1.8l-.07.07h-2.82v7.684l-.07.07H60.47l-.07-.07v-7.685h-2.82l-.069-.07v-1.8l.07-.069z"/></g><g><path fill="#fff" d="M70.376 92.41l.07.07v5.053c0 1.87 1.031 2.77 2.338 2.77 1.307 0 2.339-.9 2.339-2.77V92.48l.07-.07h1.788l.07.07v5.33c0 2.839-1.927 4.5-4.266 4.5s-4.265-1.661-4.265-4.5v-5.33l.07-.07z"/></g><g><path fill="#fff" d="M83.376 92.41c2.063 0 3.302 1.315 3.302 2.908 0 1.108-.55 1.87-1.376 2.285l3.302 4.43-.069.07h-2.201l-.07-.07-2.89-3.807h-.687v3.808l-.07.07H80.83l-.069-.07V92.48l.07-.07zm-.688 3.877h.688c.687 0 1.17-.276 1.17-.97 0-.691-.483-.968-1.17-.968h-.688z"/></g><g><path fill="#fff" d="M98.176 92.41l.07.07v1.8l-.07.07h-4.609v1.73h3.37l.07.07v1.799l-.07.07h-3.37v2.146h4.747l.07.07v1.8l-.07.07h-6.605l-.069-.07V92.48l.07-.07z"/></g></g></g></svg>