<svg xmlns="http://www.w3.org/2000/svg" width="39" height="37" viewBox="0 0 39 37"><g><g><path fill="#fff" d="M18.6 5.501h2.2c.25 0 .45-.195.45-.438 0-.244-.2-.438-.45-.438h-2.2zm0 2.045h2.25c.3 0 .499-.195.499-.486 0-.293-.2-.487-.5-.487H18.6zm3.55-1.558c.3.293.5.682.5 1.12 0 .877-.7 1.558-1.6 1.558H17.4V3.554H21c.85 0 1.55.682 1.55 1.51-.05.34-.2.681-.4.924zm.85 8.763h-1.35l-.4-.876H18.3l-.4.876h-1.35l2.6-5.112h1.2zm-3.25-3.797l-.9 1.85h1.8zm1.8 4.917h1.5l-2.65 3.31v1.802h-1.25v-1.801l-2.649-3.31h1.5l1.8 2.336zm6.95 1.12H25v.876h3.4v1.12H25v.975h3.5v1.12h-4.75v-5.21h4.75zm3.85 2.045h-.95v1.947h-1.25V15.87h3.2c.899 0 1.599.73 1.599 1.607 0 .73-.5 1.314-1.15 1.51l1.55 1.996h-1.5zm-.9-2.094v.974h1.8c.3 0 .5-.243.5-.486 0-.244-.25-.488-.5-.488zm-14.4 4.04H15.7l-.4-.875h-2.95l-.4.876H10.6l2.65-5.112h1.2zm-3.25-3.796l-.9 1.85h1.85zm-7.95.632h2.2c.25 0 .45-.195.45-.438s-.2-.439-.45-.439h-2.2zm0 2.045H8.1c.3 0 .499-.195.499-.486 0-.292-.2-.487-.5-.487H5.85zm3.55-1.558c.3.292.5.682.5 1.12 0 .876-.7 1.558-1.6 1.558H4.6V15.87h3.6c.85 0 1.55.682 1.55 1.51 0 .34-.15.68-.35.924zm12.75 4.869h-3.5v.876h3.4v1.12h-3.4v.974h3.5v1.12H17.4v-5.21h4.75zm-.9 6.815c0-.292-.2-.486-.5-.486H18.6v.974h2.15c.3-.001.5-.195.5-.488zm-3.9-1.557h3.5c.9 0 1.6.73 1.6 1.606 0 .682-.4 1.218-1 1.461l1.6 2.045h-1.5l-1.5-1.947H18.6v1.947h-1.25zM19.75 0C29.85 0 38.1 7.692 38.7 17.332c.05.39.05.779.05 1.12 0 .195-.013.39-.025.584-.013.195-.025.39-.025.584 0-.341-.05-.73-.1-1.12l.003.022c.048.382.097.764.097 1.146C38.1 29.308 29.85 37 19.75 37S1.4 29.308.8 19.668c-.05-.39-.05-.779-.05-1.12 0-.195.013-.39.025-.584.013-.195.025-.39.025-.584 0 .341.05.73.1 1.12l-.003-.022C.85 18.096.8 17.714.8 17.332 1.4 7.692 9.65 0 19.75 0zm0 34.712c8.8 0 16-6.622 16.6-15.044.05-.39.05-.779.05-1.168 0-.39 0-.779-.05-1.168-.6-8.373-7.8-15.044-16.6-15.044s-16 6.67-16.6 15.044c-.05.39-.05.779-.05 1.168 0 .39 0 .779.05 1.168.6 8.373 7.8 15.044 16.6 15.044z"/></g></g></svg>