<svg xmlns="http://www.w3.org/2000/svg" width="40" height="45" viewBox="0 0 40 45"><g><g opacity=".5"><g opacity=".5"><path fill="#fff" d="M40.11 44.323h-1.04c-2.273 0-4.546-.008-6.818.007-.36.002-.529-.106-.65-.454-1.096-3.17-2.221-6.33-3.314-9.503-.16-.466-.352-.66-.884-.657-3.754.027-7.507.015-11.26.015h-.761c.187-.564.369-1.064.518-1.573.139-.47.188-.872-.416-1.144-.513-.231-.156-.557.125-.705.714-.375 1.458-.695 2.185-1.045.383-.184.77-.362 1.13-.585.67-.417.68-.805.073-1.324-.38-.324-.866-.57-.85-1.176.001-.098.026-.195.049-.354h7.08L20.44 12.082c-1.155 3.297-2.26 6.46-3.37 9.62-.387 1.106-.783 2.21-1.177 3.314-.335.943-.402 1.72.583 2.322.722.441.667.96-.097 1.379-.973.532-1.997.971-2.995 1.46-.178.087-.402.185-.477.34-.061.126.022.465.12.503.618.236.563.68.398 1.149-.488 1.392-.996 2.774-1.488 4.164-.884 2.494-1.767 4.988-2.638 7.486-.108.31-.199.52-.608.517-2.536-.02-5.071-.011-7.607-.013-.08 0-.16-.02-.303-.038.517-1.468 1.025-2.909 1.536-4.35.892-2.513 1.793-5.024 2.678-7.54.185-.53.409-1.042-.389-1.398-.471-.21-.077-.566.197-.708.7-.362 1.428-.67 2.138-1.014.419-.202.847-.397 1.233-.651.576-.379.581-.761.066-1.214-1.08-.949-1.134-1.142-.657-2.498C10.4 16.885 13.227 8.865 16.028.834c.18-.517.415-.661.943-.654 2.354.03 4.708.029 7.06.002.472-.006.66.155.809.585 2.189 6.278 4.397 12.55 6.6 18.824.628 1.791 1.27 3.58 1.88 5.38.382 1.129 1.15 1.88 2.195 2.384.382.184.791.32 1.157.53.214.123.503.345.509.53.006.177-.284.417-.496.537-.634.354-1.31.636-1.94.998-.251.145-.592.437-.58.647.01.22.361.5.624.614.688.299 1.051.784 1.292 1.494 1.233 3.634 2.513 7.253 3.776 10.876.08.223.153.448.254.742z"/></g></g></g></svg>