<svg xmlns="http://www.w3.org/2000/svg" width="214" height="21" viewBox="0 0 214 21"><g><g opacity=".5"><g opacity=".5"><path fill="#f9f2f3" d="M105.844 2.008c-.134-.218-.268-.349-.491-.523-.18-.13-.403-.218-.627-.305-.223-.087-.447-.087-.715-.087-.447 0-.85.087-1.163.261a2.913 2.913 0 0 0-.805.654c-.224.261-.358.566-.447.915-.09.348-.135.697-.135 1.045 0 .349.045.698.135 1.046.09.349.268.654.447.915.223.262.447.48.805.654.313.174.716.261 1.163.261.313 0 .581-.044.85-.174.268-.13.491-.262.67-.436.18-.174.313-.392.448-.653.134-.262.179-.523.223-.828h.626c-.044.392-.134.784-.313 1.089a2.79 2.79 0 0 1-.581.828c-.224.218-.537.392-.85.523-.313.13-.67.174-1.073.174-.537 0-.984-.087-1.387-.262a2.765 2.765 0 0 1-.984-.74c-.268-.305-.447-.697-.581-1.09-.134-.392-.179-.827-.179-1.307 0-.435.045-.87.179-1.307.134-.392.313-.784.581-1.089.269-.305.582-.566.984-.74.403-.175.85-.262 1.387-.262.313 0 .626.044.939.13.313.088.581.219.85.393.268.174.447.392.626.653.179.262.268.567.313.915h-.626a2.023 2.023 0 0 0-.269-.653zm2.281 3.747c.045.218.135.392.269.566.134.175.268.305.492.436.223.13.402.174.715.174.403 0 .76-.087.984-.305a1.73 1.73 0 0 0 .492-.828h.582c-.135.523-.358.915-.671 1.177-.313.261-.76.435-1.387.435-.357 0-.67-.043-.939-.174a1.972 1.972 0 0 1-.67-.523 1.594 1.594 0 0 1-.359-.784 3.237 3.237 0 0 1-.134-.915c0-.305.045-.61.134-.871.09-.305.224-.523.358-.785.18-.217.403-.392.671-.566a2.124 2.124 0 0 1 1.879 0c.268.13.492.349.626.566.179.218.268.523.357.828.09.305.09.61.09.915h-3.578c0 .262.045.48.09.654zm2.818-1.656a3.23 3.23 0 0 0-.313-.523c-.134-.13-.268-.261-.447-.348a1.46 1.46 0 0 0-.626-.13 1.46 1.46 0 0 0-.627.13c-.178.087-.313.218-.447.348-.134.131-.223.305-.313.523-.09.218-.134.392-.134.61h2.997a2.51 2.51 0 0 0-.09-.61zm1.968-1.35v1.045c.134-.348.358-.653.67-.871a1.53 1.53 0 0 1 1.074-.262v.567c-.268 0-.492.043-.715.087-.224.087-.403.174-.537.348-.134.131-.268.305-.358.523-.09.218-.134.436-.134.654v2.44h-.581V2.749zm2.594 3.006c.045.218.134.392.268.566.135.175.269.305.492.436.18.13.403.174.716.174.403 0 .76-.087.984-.305.224-.218.402-.48.492-.828h.581c-.134.523-.357.915-.67 1.177-.314.261-.76.435-1.387.435-.358 0-.67-.043-.94-.174a1.972 1.972 0 0 1-.67-.523 1.594 1.594 0 0 1-.358-.784 3.235 3.235 0 0 1-.134-.915c0-.305.045-.61.134-.871.09-.305.224-.523.358-.785.179-.217.402-.392.67-.566a2.123 2.123 0 0 1 1.88 0c.268.13.491.349.625.566.18.218.269.523.358.828.09.305.09.61.09.915h-3.578c0 .262 0 .48.09.654zm2.818-1.656a3.232 3.232 0 0 0-.313-.523c-.135-.13-.269-.261-.448-.348a1.46 1.46 0 0 0-.626-.13 1.46 1.46 0 0 0-.626.13c-.179.087-.313.218-.447.348-.134.131-.224.305-.313.523-.09.218-.134.392-.134.61h2.996c0-.218-.045-.436-.09-.61zm1.968-1.35v.784h.044c.134-.262.358-.523.582-.654.223-.174.536-.218.939-.218.313 0 .581.087.85.218.268.13.402.349.492.654.134-.305.358-.523.626-.654.268-.13.581-.218.85-.218 1.028 0 1.565.523 1.565 1.612v3.094h-.581v-3.05c0-.392-.09-.654-.224-.871-.179-.218-.447-.305-.85-.305-.268 0-.447.043-.626.13a1.047 1.047 0 0 0-.402.349 2.63 2.63 0 0 0-.224.523c-.045.218-.045.392-.045.61v2.57h-.581V4.23c0-.174 0-.305-.045-.436-.045-.13-.09-.261-.179-.348-.09-.088-.179-.175-.313-.262-.134-.043-.268-.087-.447-.087a1.46 1.46 0 0 0-.626.13c-.18.088-.313.219-.448.35-.089.13-.179.304-.268.522-.045.218-.09.436-.09.654V7.28h-.58V2.748zm9.884.043c.268.13.492.305.67.523.18.218.314.48.403.74.09.306.134.61.134.916 0 .348-.044.653-.134.915-.09.305-.223.522-.402.74a1.972 1.972 0 0 1-.671.523c-.269.13-.582.174-.94.174-.357 0-.67-.043-.939-.174a1.973 1.973 0 0 1-.67-.523 2.403 2.403 0 0 1-.403-.74 3.239 3.239 0 0 1-.134-.915c0-.349.045-.654.134-.915.09-.305.224-.523.403-.741.178-.218.402-.392.67-.523.269-.13.582-.174.94-.174.357 0 .67.043.939.174zm-1.655.436a1.58 1.58 0 0 0-.492.435c-.134.175-.224.393-.313.61-.09.218-.09.48-.09.698 0 .261.045.479.09.697.09.218.179.435.313.61.134.174.313.348.492.435.224.131.447.175.716.175.268 0 .492-.044.715-.175a1.58 1.58 0 0 0 .492-.435c.134-.175.224-.392.313-.61.09-.218.09-.48.09-.697 0-.262-.045-.48-.09-.698-.09-.217-.179-.435-.313-.61-.134-.174-.313-.348-.492-.435a1.34 1.34 0 0 0-.715-.175c-.269 0-.492.088-.716.175zm4.338-.48v.785c.09-.262.313-.48.582-.654.268-.174.581-.261.894-.261.313 0 .582.043.805.13.224.088.403.218.537.35.134.13.224.348.268.565.045.218.09.48.09.741v2.92h-.582V4.49c0-.174 0-.392-.044-.523a1.286 1.286 0 0 0-.18-.435c-.089-.131-.223-.218-.357-.305-.134-.087-.358-.087-.581-.087a1.46 1.46 0 0 0-.627.13 1.606 1.606 0 0 0-.447.305 1.03 1.03 0 0 0-.268.48c-.09.174-.09.392-.134.61v2.657h-.582V2.748zm4.875-1.742v.871h-.581v-.871zm0 1.742V7.28h-.581V2.748zm1.476 3.007c.045.218.135.392.269.566.134.175.268.305.492.436.179.13.402.174.715.174.403 0 .76-.087.984-.305a1.73 1.73 0 0 0 .492-.828h.582c-.135.523-.358.915-.671 1.177-.313.261-.76.435-1.387.435-.358 0-.67-.043-.939-.174a1.972 1.972 0 0 1-.67-.523 1.595 1.595 0 0 1-.359-.784 3.239 3.239 0 0 1-.134-.915c0-.305.045-.61.134-.871.09-.305.224-.523.358-.785.179-.217.403-.392.671-.566a2.123 2.123 0 0 1 1.879 0c.268.13.491.349.626.566.179.218.268.523.357.828.09.305.09.61.09.915h-3.578c.045.262.045.48.09.654zm2.818-1.656c-.09-.174-.179-.348-.313-.523-.134-.13-.269-.261-.447-.348a1.46 1.46 0 0 0-.627-.13 1.46 1.46 0 0 0-.626.13c-.179.087-.313.218-.447.348-.134.131-.224.305-.313.523-.09.218-.134.392-.134.61h2.996a.936.936 0 0 0-.089-.61zm4.16-.48c-.045-.13-.135-.217-.269-.304-.09-.087-.224-.13-.403-.174-.134-.044-.313-.044-.447-.044s-.268 0-.402.044c-.134.043-.269.087-.358.13a.75.75 0 0 0-.268.262.804.804 0 0 0-.09.348c0 .131.045.218.09.305a.532.532 0 0 0 .223.218c.09.044.224.087.313.13.134.044.224.088.313.088l.76.174c.18.044.314.087.493.131.179.044.313.13.402.261.134.088.224.218.313.349.09.13.134.305.134.523 0 .261-.044.436-.178.61a2.095 2.095 0 0 1-.448.435c-.179.088-.358.175-.581.218-.224.044-.447.087-.671.087-.537 0-.984-.13-1.342-.392-.358-.261-.536-.653-.581-1.22h.581c.045.393.18.654.403.828.268.174.581.305.939.305.134 0 .268 0 .447-.043l.403-.131c.134-.087.223-.174.313-.261.09-.088.134-.262.134-.393a.804.804 0 0 0-.09-.348.532.532 0 0 0-.223-.218c-.09-.044-.224-.13-.313-.174-.134-.044-.269-.087-.358-.087l-.716-.175c-.178-.043-.357-.087-.492-.174a.87.87 0 0 1-.402-.218.68.68 0 0 1-.268-.348 1.531 1.531 0 0 1-.09-.48c0-.218.045-.435.18-.61a.866.866 0 0 1 .402-.392c.178-.087.357-.174.581-.218.224-.043.403-.087.626-.087.224 0 .447.044.671.087.224.044.358.131.537.262.134.13.268.261.358.435.089.175.134.393.134.654h-.671c0-.13-.045-.261-.09-.392zm5.635 2.354c.134.218.268.392.447.523.179.13.447.217.716.304.268.044.581.088.85.088.178 0 .357-.044.58-.088.224-.043.403-.13.582-.217.18-.087.313-.262.447-.436.135-.174.18-.392.18-.61a.862.862 0 0 0-.135-.48c-.09-.13-.179-.26-.313-.348-.134-.087-.268-.174-.447-.218-.179-.043-.313-.087-.492-.13l-1.52-.349c-.18-.044-.403-.13-.582-.174-.18-.087-.358-.175-.492-.305-.134-.131-.268-.262-.358-.436a1.422 1.422 0 0 1-.134-.653c0-.175.045-.35.09-.567.044-.218.178-.436.357-.61s.403-.348.716-.48c.313-.13.67-.217 1.163-.217.313 0 .67.044.939.13.313.088.581.219.805.393.224.174.402.392.537.653.134.262.223.567.223.872h-.626c0-.262-.09-.48-.179-.654a1.37 1.37 0 0 0-.402-.479 2.43 2.43 0 0 0-.582-.305 3.539 3.539 0 0 0-.67-.087c-.224 0-.448.043-.627.087-.223.044-.402.13-.537.218a1.04 1.04 0 0 0-.357.392c-.09.174-.134.392-.134.61 0 .174.044.305.089.392.045.13.134.218.224.305.089.087.223.13.313.174l.402.131 1.655.392c.224.044.447.13.67.218.225.087.403.218.538.349.178.13.268.305.357.479.09.174.135.436.135.697 0 .087 0 .174-.045.305a.69.69 0 0 1-.134.392c-.045.13-.135.262-.269.436-.09.13-.268.261-.447.392-.179.13-.447.218-.716.261-.268.087-.626.087-1.028.087a4.62 4.62 0 0 1-1.118-.13 2.173 2.173 0 0 1-.85-.392c-.224-.175-.403-.436-.537-.697-.134-.305-.179-.654-.179-1.046h.626c.09.305.18.566.269.828zm7.2-2.745h-.939v3.05c0 .174.045.305.09.435.044.087.179.175.402.175.18 0 .313 0 .492-.044v.48h-.537c-.357 0-.626-.088-.805-.219-.134-.13-.223-.392-.223-.784V3.228h-.805v-.48h.805V1.354h.581v1.35h.94zm1.342-.262c.18-.13.358-.218.582-.261.223-.044.447-.087.76-.087.224 0 .403 0 .626.043.224.044.403.131.537.218.179.087.313.262.402.436.09.174.135.436.135.74v2.397c0 .218.089.349.313.349.044 0 .134 0 .179-.044v.48c-.045 0-.135 0-.18.043h-.178c-.134 0-.269 0-.358-.044a.78.78 0 0 1-.224-.174.607.607 0 0 1-.09-.261c0-.088-.044-.218-.044-.305-.09.13-.223.26-.313.392-.09.13-.224.217-.358.305a1.36 1.36 0 0 1-.447.174c-.179.043-.358.043-.581.043-.224 0-.403-.043-.627-.087-.223-.043-.357-.13-.492-.218a.882.882 0 0 1-.313-.392 1.239 1.239 0 0 1-.134-.61c0-.305.09-.566.224-.74.134-.175.313-.305.581-.392a3.54 3.54 0 0 1 .805-.218c.313-.044.582-.087.895-.131.134 0 .223-.044.313-.044s.179-.043.224-.087a.603.603 0 0 0 .134-.174c.044-.087.044-.174.044-.305 0-.174-.044-.349-.09-.48-.044-.13-.133-.217-.267-.304-.09-.087-.224-.13-.403-.13-.134-.045-.313-.045-.492-.045-.358 0-.67.088-.894.262-.224.174-.358.436-.358.784h-.582c.135-.218.18-.48.269-.653a1.37 1.37 0 0 1 .402-.48zm2.46 1.83c-.045.044-.09.131-.224.131-.089.044-.178.044-.268.044-.224.043-.492.087-.76.13a21.87 21.87 0 0 0-.716.131c-.223.044-.402.174-.537.261a.712.712 0 0 0-.223.523c0 .13.045.262.09.392.044.088.133.218.223.262.09.087.224.13.313.174.134.044.268.044.402.044.224 0 .403-.044.627-.087.179-.044.357-.175.536-.262.135-.13.269-.261.358-.436.09-.174.134-.392.134-.61zm5.546 3.007c-.09.261-.179.479-.358.697-.179.174-.358.348-.626.435-.268.088-.581.131-.94.131-.223 0-.446-.043-.67-.087a1.403 1.403 0 0 1-.582-.261 2.092 2.092 0 0 1-.447-.436c-.134-.174-.179-.392-.223-.61h.581c.045.174.09.305.179.436.09.13.179.217.313.261.134.087.268.13.403.174.134.044.313.044.447.044.536 0 .894-.13 1.163-.436.223-.305.357-.697.357-1.263v-.61c-.134.261-.313.523-.581.697a1.54 1.54 0 0 1-.894.261c-.358 0-.671-.043-.94-.174a2.604 2.604 0 0 1-.67-.48 1.64 1.64 0 0 1-.358-.74 3.024 3.024 0 0 1-.134-.915c0-.305.044-.61.134-.871.09-.262.223-.523.402-.741a1.46 1.46 0 0 1 .671-.48c.268-.13.582-.174.895-.174.178 0 .357.044.492.088.134.043.313.13.402.217.134.087.224.175.358.305.09.131.179.218.224.349v-.784h.58v4.182c-.089.218-.133.523-.178.785zm-1.297-1.22a1.39 1.39 0 0 0 .76-.959c.045-.218.09-.436.09-.653 0-.218-.045-.436-.09-.654a1.507 1.507 0 0 0-.268-.61c-.134-.174-.268-.349-.447-.436-.18-.13-.403-.174-.671-.174a1.34 1.34 0 0 0-.716.174c-.179.087-.358.262-.492.436a1.508 1.508 0 0 0-.268.61c-.045.218-.09.436-.09.697 0 .218.045.436.09.654.045.218.134.392.268.566.134.174.269.305.492.392.18.087.403.175.671.175.268-.044.447-.088.671-.218zm3.041-5.577v.871h-.581v-.871zm0 1.742V7.28h-.581V2.748zm1.655 0v.785c.09-.262.313-.48.582-.654.268-.174.58-.261.894-.261.313 0 .581.043.805.13.224.088.403.218.537.35.134.13.223.348.268.565.045.218.09.48.09.741v2.92h-.492V4.49c0-.174 0-.392-.045-.523a1.288 1.288 0 0 0-.179-.435c-.09-.131-.224-.218-.358-.305-.134-.087-.358-.087-.581-.087a1.46 1.46 0 0 0-.626.13 1.608 1.608 0 0 0-.448.305c-.134.131-.223.305-.268.48-.09.174-.09.392-.134.61v2.657h-.582V2.748zm8.14 5.055c-.09.261-.179.479-.358.697-.179.174-.358.348-.626.435-.268.088-.581.131-.94.131-.223 0-.446-.043-.67-.087a1.403 1.403 0 0 1-.581-.261 2.095 2.095 0 0 1-.448-.436c-.134-.174-.179-.392-.223-.61h.581c.045.174.09.305.179.436.09.13.179.217.313.261.134.087.268.13.403.174.134.044.313.044.447.044.537 0 .894-.13 1.163-.436.223-.305.357-.697.357-1.263v-.61c-.134.261-.313.523-.58.697a1.54 1.54 0 0 1-.895.261c-.358 0-.671-.043-.94-.174a2.603 2.603 0 0 1-.67-.48 1.64 1.64 0 0 1-.358-.74 3.02 3.02 0 0 1-.135-.915c0-.305.045-.61.135-.871a2.4 2.4 0 0 1 .402-.741 1.46 1.46 0 0 1 .671-.48c.268-.13.581-.174.895-.174.178 0 .357.044.492.088.134.043.313.13.402.217.134.087.224.175.358.305.09.131.179.218.223.349v-.784h.582v4.182c-.09.218-.134.523-.179.785zm-1.297-1.22a1.392 1.392 0 0 0 .76-.959c.045-.218.09-.436.09-.653 0-.218-.045-.436-.09-.654a1.507 1.507 0 0 0-.268-.61c-.134-.174-.268-.349-.447-.436-.18-.13-.403-.174-.671-.174a1.34 1.34 0 0 0-.716.174c-.179.087-.358.262-.492.436a1.508 1.508 0 0 0-.268.61c-.045.218-.09.436-.09.697 0 .218.045.436.09.654.045.218.134.392.268.566.134.174.269.305.492.392.18.087.403.175.671.175.268-.044.447-.088.671-.218zM187.333.7l2.64 6.579h-.672l-.805-2.048h-3.086l-.805 2.048h-.67L186.662.7zm.895 4.008l-1.297-3.355-1.342 3.355zm6.038 3.094c-.09.261-.18.479-.358.697-.179.174-.358.348-.626.435-.269.088-.582.131-.94.131-.223 0-.447-.043-.67-.087a1.403 1.403 0 0 1-.582-.261 2.095 2.095 0 0 1-.447-.436c-.134-.174-.179-.392-.224-.61h.582c.045.174.09.305.179.436.09.13.179.217.313.261.134.087.268.13.402.174.134.044.313.044.448.044.536 0 .894-.13 1.162-.436.224-.305.358-.697.358-1.263v-.61c-.134.261-.313.523-.581.697a1.54 1.54 0 0 1-.895.261c-.357 0-.67-.043-.939-.174a2.602 2.602 0 0 1-.67-.48 1.64 1.64 0 0 1-.359-.74 3.024 3.024 0 0 1-.134-.915c0-.305.045-.61.134-.871.09-.262.224-.523.403-.741a1.46 1.46 0 0 1 .67-.48c.27-.13.582-.174.895-.174.18 0 .358.044.492.088.135.043.313.13.403.217.134.087.223.175.358.305.089.131.179.218.223.349v-.784h.582v4.182c-.09.218-.09.523-.18.785zm-1.297-1.22a1.392 1.392 0 0 0 .76-.959c.045-.218.09-.436.09-.653 0-.218-.045-.436-.09-.654a1.508 1.508 0 0 0-.268-.61c-.135-.174-.269-.349-.448-.436-.179-.13-.402-.174-.67-.174a1.34 1.34 0 0 0-.716.174c-.179.087-.358.262-.492.436a1.507 1.507 0 0 0-.268.61c-.045.218-.09.436-.09.697 0 .218.045.436.09.654.044.218.134.392.268.566.134.174.268.305.492.392.179.087.402.175.67.175.27-.044.493-.088.672-.218zm2.907-.828c.045.218.134.392.268.566.134.175.269.305.492.436.18.13.403.174.716.174.402 0 .76-.087.984-.305a1.73 1.73 0 0 0 .492-.828h.581c-.134.523-.358.915-.67 1.177-.314.261-.761.435-1.387.435-.358 0-.671-.043-.94-.174a1.972 1.972 0 0 1-.67-.523 1.594 1.594 0 0 1-.358-.784 3.235 3.235 0 0 1-.134-.915c0-.305.044-.61.134-.871.09-.305.223-.523.358-.785.134-.26.402-.392.67-.566a2.124 2.124 0 0 1 1.879 0c.268.13.492.349.626.566.179.218.269.523.358.828.09.305.09.61.09.915h-3.579c0 .262.045.48.09.654zm2.817-1.656a3.226 3.226 0 0 0-.313-.523c-.134-.13-.268-.261-.447-.348a1.46 1.46 0 0 0-.626-.13 1.46 1.46 0 0 0-.626.13c-.179.087-.313.218-.447.348-.135.131-.224.305-.313.523-.09.218-.135.392-.135.61h2.997c0-.218 0-.436-.09-.61zm2.013-1.35v.784c.09-.262.313-.48.582-.654.268-.174.581-.261.894-.261.313 0 .581.043.805.13.224.088.403.218.537.35.134.13.223.348.268.565.045.218.09.48.09.741v2.92h-.582V4.49c0-.174 0-.392-.045-.523a1.28 1.28 0 0 0-.178-.435c-.09-.131-.224-.218-.358-.305-.134-.087-.358-.087-.582-.087-.223 0-.447.043-.626.13a1.602 1.602 0 0 0-.447.305c-.134.131-.224.305-.268.48-.09.174-.09.392-.135.61v2.657h-.581V2.748zm7.156.61a1.367 1.367 0 0 0-.894-.306 1.34 1.34 0 0 0-.716.175c-.224.13-.358.261-.492.435-.134.175-.224.393-.313.61-.089.218-.089.48-.089.698 0 .261.044.479.089.697.089.218.179.435.313.61.134.174.313.348.492.435.179.088.447.175.716.175.179 0 .357-.044.492-.087.179-.044.313-.175.402-.262.134-.13.224-.261.313-.392a1.13 1.13 0 0 0 .134-.523h.582c-.09.567-.269 1.002-.626 1.307-.358.305-.761.48-1.297.48-.358 0-.671-.044-.94-.175a1.963 1.963 0 0 1-.67-.523 2.392 2.392 0 0 1-.403-.74 3.253 3.253 0 0 1-.134-.915c0-.349.045-.654.134-.915.089-.305.224-.523.403-.74.178-.219.402-.393.67-.524.269-.13.582-.174.94-.174.492 0 .939.13 1.252.392.358.261.537.654.626 1.176h-.581c-.09-.435-.224-.74-.403-.915zm1.879-.61l1.52 3.877 1.431-3.878h.582l-2.013 5.229c-.089.174-.179.348-.223.48-.09.13-.135.217-.224.304a.724.724 0 0 1-.313.174c-.134.044-.268.044-.447.044h-.269c-.044 0-.134 0-.179-.044v-.479c.045 0 .135.044.179.044h.179c.134 0 .224 0 .313-.044.09-.043.134-.087.224-.13.045-.044.089-.131.134-.218.045-.088.09-.175.134-.305l.179-.523-1.878-4.532z"/></g><g opacity=".5"><path fill="#f9f2f3" d="M75.839.26H74.05v19.999h1.789z"/></g><g opacity=".5"><path fill="#f9f2f3" d="M13.626 12.114h3.399v.261c-.09 1.046-.313 2.005-.716 2.876a7.53 7.53 0 0 1-1.61 2.266c-.671.653-1.476 1.133-2.37 1.481-.895.349-1.924.523-2.997.523-1.342 0-2.55-.261-3.623-.74-1.073-.524-2.012-1.177-2.728-2.005a9.531 9.531 0 0 1-1.7-2.92C.88 12.769.7 11.592.7 10.329c0-1.264.179-2.44.581-3.53a9.532 9.532 0 0 1 1.7-2.919c.76-.828 1.655-1.525 2.728-2.004 1.074-.48 2.281-.74 3.623-.74 1.029 0 1.968.13 2.862.392.895.26 1.7.653 2.37 1.176A6.254 6.254 0 0 1 16.22 4.62c.447.784.715 1.612.805 2.57l.044.262h-3.533l-.045-.174a5.756 5.756 0 0 0-.536-1.307c-.18-.392-.492-.741-.805-1.002-.314-.262-.716-.48-1.163-.654a6.237 6.237 0 0 0-1.61-.218c-.895 0-1.655.174-2.281.523A4.762 4.762 0 0 0 5.53 6.014a5.882 5.882 0 0 0-.894 2.004c-.224.741-.313 1.525-.313 2.31 0 .784.134 1.568.313 2.309.179.74.492 1.438.894 2.004.403.566.94 1.046 1.566 1.394.626.349 1.386.523 2.28.523.627 0 1.208-.087 1.7-.305a3.689 3.689 0 0 0 1.252-.915c.358-.392.671-.828.85-1.35.224-.523.358-1.09.403-1.7l.044-.218zm20.35.349c.134.435.178.915 0 1.35 0 1.002-.224 1.874-.627 2.57a5.21 5.21 0 0 1-1.655 1.744c-.67.435-1.475.74-2.325.958-.85.218-1.7.305-2.594.305-.984 0-1.968-.087-2.863-.348a6.257 6.257 0 0 1-2.37-1.133c-.716-.48-1.253-1.177-1.655-1.96-.403-.785-.626-1.744-.626-2.833v-.261h3.578v.261c0 .61.09 1.133.313 1.569.224.435.537.784.894 1.045.403.262.85.48 1.342.61.492.131 1.074.175 1.655.175.67 0 1.208-.088 1.655-.218.447-.131.805-.305 1.073-.523.269-.218.447-.48.582-.74.134-.262.179-.524.179-.829 0-.566-.135-1.002-.403-1.263-.268-.305-.581-.48-.895-.61-.626-.218-1.341-.392-2.146-.61a200.78 200.78 0 0 0-3.042-.784 8.704 8.704 0 0 1-1.923-.785 4.349 4.349 0 0 1-1.252-1.089 4.05 4.05 0 0 1-.67-1.307 4.973 4.973 0 0 1-.18-1.394c0-.915.18-1.7.582-2.353.357-.654.894-1.22 1.52-1.656.626-.435 1.342-.74 2.147-.958 1.7-.436 3.533-.392 5.054.043.85.262 1.61.61 2.236 1.09a5.373 5.373 0 0 1 1.52 1.786c.403.74.582 1.569.582 2.483v.262H30.13v-.218c-.045-1.002-.403-1.743-1.029-2.135-.626-.436-1.476-.653-2.46-.653-.357 0-.715 0-1.073.087-.313.087-.67.174-.94.348-.268.175-.491.349-.67.61-.179.218-.268.523-.268.915 0 .523.178.915.492 1.22.313.349.805.567 1.386.74.045.044.313.088.76.219.448.13.984.261 1.521.392.537.174 1.073.305 1.61.436.537.13.94.261 1.163.305a5.724 5.724 0 0 1 1.565.74c.448.305.805.697 1.118 1.09.314.392.537.827.671 1.307zm18.47 6.579H48.6l-1.654-4.532h-6.62l-1.655 4.532H34.96l6.888-17.56h3.623l.044.175zm-8.81-13.725l-2.326 6.449h4.607z"/></g><g opacity=".5"><g opacity=".5"><path fill="#f9f2f3" d="M103.834 13.77c.224 0 .403.044.581.087.18.087.314.174.448.305a.9.9 0 0 1 .268.436c.045.174.09.348.09.523 0 .261-.045.523-.18.74-.134.218-.312.349-.58.48a.726.726 0 0 1 .312.174c.09.087.18.174.224.261.045.087.09.218.134.349.045.13.045.261.045.348v.262c0 .087 0 .218.045.305 0 .087.044.218.044.305.045.087.045.174.134.261h-1.073a1.888 1.888 0 0 1-.09-.566c0-.218-.044-.392-.044-.61a1.374 1.374 0 0 0-.224-.567c-.134-.13-.313-.174-.581-.174h-1.074v1.874h-1.073V13.77zm-.402 2.178c.268 0 .447-.043.58-.174.135-.087.18-.261.18-.523 0-.217-.045-.392-.18-.522a1.014 1.014 0 0 0-.58-.175h-1.208v1.35h1.208z"/></g><g opacity=".5"><path fill="#f9f2f3" d="M108.445 18.556v-.48c-.134.218-.268.349-.492.436a1.46 1.46 0 0 1-.626.13c-.268 0-.492-.043-.626-.086-.179-.088-.313-.175-.403-.305-.09-.131-.179-.262-.223-.436-.045-.174-.045-.392-.045-.61V15.07h.984v1.96c0 .306.045.48.134.654.09.13.268.218.492.218.268 0 .447-.087.582-.218.134-.13.178-.392.178-.784v-1.83h.984v3.486z"/></g><g opacity=".5"><path fill="#f9f2f3" d="M110.944 17.688c.045.088.09.131.179.175.09.043.134.087.223.087a.58.58 0 0 0 .269.043c.09 0 .134 0 .223-.043.09 0 .135-.044.224-.087.045-.044.134-.087.134-.131.045-.044.045-.13.045-.218 0-.13-.09-.261-.313-.305-.179-.087-.447-.13-.805-.218l-.403-.13c-.134-.044-.268-.087-.357-.175l-.269-.261a.852.852 0 0 1-.09-.392c0-.218.045-.392.135-.567.09-.13.224-.261.358-.348.134-.087.313-.13.492-.174.179-.044.357-.044.581-.044.224 0 .403 0 .582.044.178.043.357.087.491.174.135.087.269.218.358.348.09.131.134.305.18.523h-.94a.455.455 0 0 0-.224-.392c-.134-.043-.268-.087-.447-.087h-.179c-.045 0-.134 0-.179.044-.044.043-.09.043-.134.087-.045.043-.045.087-.045.174s.045.174.09.218a.735.735 0 0 0 .268.13c.09.044.224.044.358.088.134.043.268.043.403.087l.402.13c.134.044.268.088.358.175l.268.261c.045.13.09.262.09.392 0 .218-.045.436-.135.567-.089.174-.223.261-.357.392a1.514 1.514 0 0 1-.537.218c-.179.043-.403.043-.581.043-.224 0-.403 0-.627-.043-.223-.044-.357-.087-.536-.218a1.038 1.038 0 0 1-.358-.392 2.117 2.117 0 0 1-.179-.567h.94c0 .218 0 .305.044.392z"/></g><g opacity=".5"><path fill="#f9f2f3" d="M114.654 17.688c.045.088.09.131.179.175.09.043.134.087.223.087.09 0 .18.043.269.043.09 0 .134 0 .223-.043.09 0 .135-.044.224-.087.045-.044.134-.087.134-.131.045-.044.045-.13.045-.218 0-.13-.09-.261-.313-.305-.179-.087-.447-.13-.805-.218l-.403-.13c-.134-.044-.268-.087-.357-.175l-.269-.261a.852.852 0 0 1-.09-.392c0-.218.045-.392.135-.567.09-.13.224-.261.358-.348.134-.087.313-.13.492-.174.179-.044.357-.044.581-.044.179 0 .403 0 .582.044.178.043.357.087.491.174.135.087.269.218.358.348.09.131.134.305.18.523h-.94a.455.455 0 0 0-.224-.392c-.134-.043-.268-.087-.447-.087h-.179c-.045 0-.134 0-.179.044-.044.043-.09.043-.134.087-.045.043-.045.087-.045.174s.045.174.09.218a.735.735 0 0 0 .268.13c.134.044.224.044.358.088.134.043.268.043.403.087l.402.13c.134.044.268.088.358.175l.268.261c.045.13.09.262.09.392 0 .218-.045.436-.135.567-.089.174-.223.261-.357.392a1.514 1.514 0 0 1-.537.218c-.179.043-.403.043-.581.043-.224 0-.403 0-.627-.043-.223-.044-.357-.087-.536-.218a1.038 1.038 0 0 1-.358-.392 2.117 2.117 0 0 1-.179-.567h.94c0 .218 0 .305.044.392z"/></g><g opacity=".5"><path fill="#f9f2f3" d="M118.544 14.554v-.784h-.984v.784zm-.984.523v3.486h.984v-3.486z"/></g><g opacity=".5"><path fill="#f9f2f3" d="M119.309 16.163c0-.218.09-.392.179-.567.09-.13.223-.261.402-.348a.976.976 0 0 1 .537-.174c.179-.044.403-.044.581-.044.18 0 .358 0 .537.044.179.043.358.087.492.13.134.087.268.175.358.305.09.131.134.305.134.523v1.83c0 .174 0 .305.045.436 0 .13.045.261.09.305h-.985c0-.044-.044-.087-.044-.175 0-.043 0-.13-.045-.174-.134.174-.358.262-.537.349-.223.043-.447.087-.67.087-.18 0-.314 0-.493-.044a1.12 1.12 0 0 1-.402-.174 1.91 1.91 0 0 1-.269-.305 1.53 1.53 0 0 1-.089-.48c0-.217.045-.348.09-.478.089-.131.178-.218.268-.305a1.12 1.12 0 0 1 .402-.175c.135-.043.313-.087.448-.087.134 0 .313-.043.447-.043s.268-.044.358-.044l.268-.13a.328.328 0 0 0 .09-.219c0-.087 0-.174-.045-.261l-.134-.13c-.045-.044-.135-.044-.18-.088h-.223c-.179 0-.358.044-.447.13a.546.546 0 0 0-.18.393h-.983zm2.236.697c-.045.044-.09.044-.134.087-.045 0-.134.044-.179.044-.09 0-.134.043-.224.043-.089 0-.134 0-.223.044-.09 0-.134.043-.224.043-.09.044-.134.044-.179.088l-.134.13c-.045.044-.045.13-.045.218 0 .087 0 .174.045.218l.134.13c.045.044.134.044.18.088h.223c.179 0 .358-.044.447-.087a.532.532 0 0 0 .224-.218c.044-.087.09-.175.09-.262v-.217z"/></g><g opacity=".5"><path fill="#f9f2f3" d="M128.524 15.027c-.045-.087-.134-.174-.224-.261-.09-.087-.223-.131-.313-.175-.134-.043-.268-.043-.402-.043a1.46 1.46 0 0 0-.627.13 1.047 1.047 0 0 0-.402.35 1.86 1.86 0 0 0-.224.522 2.51 2.51 0 0 0-.09.61c0 .218.046.392.09.61.045.174.134.348.224.523.09.13.224.261.402.348.18.087.358.131.627.131.313 0 .581-.087.76-.305.179-.218.313-.436.358-.784h1.028c-.044.305-.089.566-.223.828a2.19 2.19 0 0 1-.447.61 1.693 1.693 0 0 1-.671.392c-.269.087-.537.13-.85.13-.358 0-.716-.043-1.029-.174a2.34 2.34 0 0 1-.76-.523c-.224-.218-.358-.479-.492-.784-.09-.305-.179-.61-.179-.959 0-.348.045-.697.179-1.002.09-.305.268-.566.492-.784a2.34 2.34 0 0 1 .76-.523c.313-.13.626-.174 1.029-.174.268 0 .537.044.76.13.224.088.447.175.671.35.179.13.358.304.492.522.134.218.224.48.224.74h-1.029c0-.217-.045-.348-.134-.435z"/></g><g opacity=".5"><path fill="#f9f2f3" d="M131.694 19.608c-.18.13-.448.174-.805.174h-.313c-.09 0-.18 0-.313-.044v-.784c.089 0 .178 0 .268.044h.268c.134 0 .224-.044.269-.131.044-.087.089-.174.089-.261 0-.088 0-.131-.045-.218l-1.252-3.268h1.029l.805 2.396.76-2.396h1.029l-1.476 3.921c.045.218-.09.436-.313.567z"/></g><g opacity=".5"><path fill="#f9f2f3" d="M134.92 15.077v.436c.133-.174.268-.305.446-.392a1.46 1.46 0 0 1 .627-.131c.268 0 .536.044.715.174.224.087.358.262.492.392.134.175.224.349.313.61.045.218.09.48.09.698 0 .217-.045.435-.09.653-.044.218-.179.392-.313.566a1.391 1.391 0 0 1-.492.393c-.179.087-.447.13-.67.13-.224 0-.403-.043-.627-.13-.179-.088-.358-.218-.447-.393v1.656h-.984v-4.662zm1.252 2.745a.75.75 0 0 0 .268-.261c.045-.088.134-.218.134-.349.045-.13.045-.261.045-.392 0-.13 0-.261-.045-.392a2.952 2.952 0 0 0-.134-.349l-.268-.261a.913.913 0 0 0-.403-.087.913.913 0 0 0-.403.087.75.75 0 0 0-.268.261c-.045.087-.134.218-.134.349-.045.13-.045.261-.045.436 0 .13 0 .26.045.392.045.13.09.261.134.348a.75.75 0 0 0 .268.262c.09.043.224.087.403.087.179 0 .313-.044.403-.13z"/></g><g opacity=".5"><path fill="#f9f2f3" d="M139.124 15.074v.653c.045-.087.09-.218.179-.305a1.18 1.18 0 0 1 .268-.218c.09-.043.224-.13.313-.13.134-.044.224-.044.358-.044.045 0 .134 0 .224.044v.871c-.045 0-.09 0-.18-.044h-.178c-.179 0-.313.044-.447.088-.135.043-.224.13-.313.217-.09.088-.135.218-.18.349-.044.13-.044.261-.044.436v1.568h-.984v-3.485z"/></g><g opacity=".5"><path fill="#f9f2f3" d="M143.285 18.556v-.48c-.134.218-.268.349-.492.436a1.46 1.46 0 0 1-.626.13c-.268 0-.492-.043-.626-.086-.179-.088-.313-.175-.403-.305-.09-.131-.179-.262-.223-.436-.045-.174-.045-.392-.045-.61V15.07h.984v1.96c0 .306.045.48.134.654.09.13.268.218.492.218.268 0 .447-.087.582-.218.134-.174.178-.392.178-.784v-1.83h.984v3.486z"/></g><g opacity=".5"><path fill="#f9f2f3" d="M145.784 17.688c.045.088.09.131.179.175.09.043.134.087.223.087a.58.58 0 0 0 .269.043c.09 0 .134 0 .223-.043.09-.044.135-.044.224-.087.045-.044.134-.087.134-.131.045-.044.045-.13.045-.218 0-.13-.09-.261-.313-.305-.179-.087-.447-.13-.805-.218l-.403-.13c-.134-.044-.268-.087-.357-.175l-.269-.261a.852.852 0 0 1-.09-.392c0-.218.045-.392.135-.567.09-.13.224-.261.358-.348.134-.087.313-.13.492-.174.179-.044.357-.044.581-.044.179 0 .403 0 .582.044.178.043.357.087.492.174.134.087.268.218.357.348.09.131.134.305.18.523h-.94a.455.455 0 0 0-.224-.392 1.354 1.354 0 0 0-.447-.087h-.179c-.045 0-.134 0-.179.044-.044.043-.09.043-.134.087-.045.043-.045.087-.045.174s.045.174.09.218a.735.735 0 0 0 .268.13c.134.044.224.044.358.088.134.043.268.043.403.087l.402.13c.134.044.268.088.358.175l.268.261c.045.13.09.262.09.392 0 .218-.045.436-.135.567-.089.174-.223.261-.357.392a1.514 1.514 0 0 1-.537.218c-.179.043-.403.043-.581.043-.224 0-.403 0-.627-.043-.223-.044-.357-.087-.536-.218a1.038 1.038 0 0 1-.358-.392 2.117 2.117 0 0 1-.179-.567h.94c0 .218 0 .305.044.392z"/></g><g opacity=".5"><path fill="#f9f2f3" d="M154.377 18.164c-.357.305-.894.48-1.565.48-.67 0-1.163-.175-1.565-.48-.358-.305-.537-.784-.537-1.438V13.72h1.073v3.006c0 .131 0 .262.045.392.045.131.09.218.134.349.045.13.18.174.313.218.135.043.313.087.537.087.403 0 .67-.087.805-.261.134-.175.224-.436.224-.785V13.72h1.073v3.006c.045.654-.134 1.133-.537 1.438z"/></g><g opacity=".5"><path fill="#f9f2f3" d="M156.963 13.764v1.96l1.924-2.004h1.341l-1.923 1.917 2.102 2.92h-1.342l-1.475-2.18-.627.61v1.57h-1.073v-4.793z"/></g><g opacity=".5"><path fill="#f9f2f3" d="M162.47 14.641v-.871h4.025v.871h-1.476v3.922h-1.073V14.64z"/></g><g opacity=".5"><path fill="#f9f2f3" d="M167.924 13.77v1.83c.134-.218.268-.349.492-.436.179-.087.402-.13.581-.13.269 0 .492.043.626.087.18.087.314.174.403.305.09.13.179.261.224.435.044.175.044.392.044.61v2.135h-.984v-2.004c0-.305-.044-.48-.134-.654-.09-.13-.268-.217-.492-.217-.268 0-.447.087-.581.217-.134.175-.18.393-.18.785v1.83h-.983V13.77z"/></g><g opacity=".5"><path fill="#f9f2f3" d="M172.132 17.731c.134.131.358.218.626.218a.92.92 0 0 0 .492-.13.822.822 0 0 0 .269-.306h.85a1.788 1.788 0 0 1-.627.915c-.268.175-.626.262-1.028.262-.269 0-.537-.044-.76-.13a1.704 1.704 0 0 1-.582-.393c-.134-.174-.268-.349-.358-.566a1.988 1.988 0 0 1-.134-.741c0-.261.045-.523.134-.74.09-.219.224-.436.358-.567.179-.174.358-.305.581-.392.224-.087.492-.131.76-.131.314 0 .582.044.806.174.223.131.402.262.536.48a1.5 1.5 0 0 1 .314.653c.044.262.089.523.089.784h-2.594c0 .218.09.48.268.61zm1.074-1.83c-.134-.13-.313-.174-.537-.174-.134 0-.268.044-.403.087-.089.044-.178.131-.268.175l-.134.261c-.045.087-.045.174-.045.218h1.61a.743.743 0 0 0-.223-.567z"/></g><g opacity=".5"><path fill="#f9f2f3" d="M177.585 13.77l1.163 3.311 1.074-3.311h1.52v4.793h-1.028v-3.399l-1.208 3.399h-.85l-1.207-3.355v3.355h-1.029V13.77z"/></g><g opacity=".5"><path fill="#f9f2f3" d="M183.269 14.554v-.784h-.984v.784zm-1.029.523v3.486h.984v-3.486z"/></g><g opacity=".5"><path fill="#f9f2f3" d="M186.534 18.123a1.258 1.258 0 0 1-.448.393 1.46 1.46 0 0 1-.626.13c-.268 0-.492-.043-.715-.13-.224-.088-.358-.218-.492-.393-.135-.174-.224-.392-.314-.61-.044-.217-.089-.435-.089-.697 0-.218.045-.479.09-.697.044-.218.178-.392.313-.566.134-.174.313-.305.492-.392.178-.087.447-.131.67-.131.224 0 .403.044.627.13.178.088.357.219.447.393V13.81h.984v4.793h-.94zm0-1.742c-.045-.131-.09-.262-.135-.349a.75.75 0 0 0-.268-.261.913.913 0 0 0-.403-.087.913.913 0 0 0-.402.087.75.75 0 0 0-.268.261c-.045.087-.135.218-.135.349-.044.13-.044.261-.044.435 0 .131 0 .262.044.392.045.131.09.262.135.349l.268.261c.09.044.224.088.402.088a.913.913 0 0 0 .403-.088.75.75 0 0 0 .268-.261c.045-.087.09-.218.135-.349.044-.13.044-.261.044-.435 0-.175-.044-.262-.044-.392z"/></g><g opacity=".5"><path fill="#f9f2f3" d="M190.784 18.123a1.258 1.258 0 0 1-.448.393 1.46 1.46 0 0 1-.626.13c-.268 0-.492-.043-.715-.13-.224-.088-.358-.218-.492-.393-.135-.174-.224-.392-.314-.61-.044-.217-.089-.435-.089-.697 0-.218.045-.479.09-.697.044-.218.178-.392.313-.566.134-.174.313-.305.492-.392.178-.087.447-.131.67-.131.224 0 .403.044.627.13.178.088.357.219.447.393V13.81h.984v4.793h-.94zm-.045-1.742a2.952 2.952 0 0 0-.134-.349.75.75 0 0 0-.269-.261.913.913 0 0 0-.402-.087.913.913 0 0 0-.403.087.75.75 0 0 0-.268.261c-.045.087-.134.218-.134.349-.045.13-.045.261-.045.435 0 .131 0 .262.045.392.044.131.09.262.134.349l.268.261c.09.044.224.088.403.088a.913.913 0 0 0 .402-.088.75.75 0 0 0 .269-.261c.044-.087.089-.218.134-.349.044-.13.044-.261.044-.435 0-.175-.044-.262-.044-.392z"/></g><g opacity=".5"><path fill="#f9f2f3" d="M193.464 13.77v4.793h-.984V13.77z"/></g><g opacity=".5"><path fill="#f9f2f3" d="M195.292 17.731c.134.131.358.218.626.218a.92.92 0 0 0 .492-.13.822.822 0 0 0 .269-.306h.85a1.788 1.788 0 0 1-.627.915c-.268.175-.626.262-1.028.262-.269 0-.537-.044-.76-.13a1.704 1.704 0 0 1-.582-.393c-.134-.174-.268-.349-.358-.566a1.988 1.988 0 0 1-.134-.741c0-.261.045-.523.134-.74.09-.219.224-.436.358-.567.179-.174.358-.305.581-.392.224-.087.492-.131.76-.131.314 0 .582.044.806.174.223.131.402.262.536.48a1.5 1.5 0 0 1 .314.653c.044.262.089.523.089.784h-2.594c.045.218.09.48.268.61zm1.118-1.83c-.134-.13-.313-.174-.536-.174-.134 0-.269.044-.403.087-.09.044-.179.131-.268.175l-.134.261a.463.463 0 0 0-.045.218h1.61a1.374 1.374 0 0 0-.224-.567z"/></g><g opacity=".5"><path fill="#f9f2f3" d="M202.942 13.77v.871h-2.594v1.046h2.37v.828h-2.37v1.176h2.639v.872h-3.757V13.77z"/></g><g opacity=".5"><path fill="#f9f2f3" d="M203.569 16.163c0-.218.09-.392.179-.567.09-.13.223-.261.402-.348a.976.976 0 0 1 .537-.174c.179-.044.403-.044.581-.044.18 0 .358 0 .537.044.18.043.358.087.492.13.134.087.268.175.358.305.09.131.134.305.134.523v1.83c0 .174 0 .305.045.436 0 .13.045.261.09.305h-.985c0-.044-.044-.087-.044-.175 0-.043 0-.13-.045-.174-.134.174-.358.262-.537.349a3.539 3.539 0 0 1-.67.087c-.18 0-.314 0-.493-.044a1.12 1.12 0 0 1-.402-.174 1.91 1.91 0 0 1-.269-.305 1.53 1.53 0 0 1-.089-.48c0-.217.045-.348.09-.478.089-.131.178-.218.268-.305a1.12 1.12 0 0 1 .402-.175c.134-.043.313-.087.448-.087.134 0 .313-.043.447-.043s.268-.044.358-.044l.268-.13a.328.328 0 0 0 .09-.219c0-.087 0-.174-.045-.261l-.134-.13c-.045-.044-.135-.044-.18-.088h-.223c-.179 0-.358.044-.447.13a.546.546 0 0 0-.18.393h-.983zm2.28.697c-.044.044-.089.044-.133.087-.045 0-.134.044-.18.044-.089 0-.133.043-.223.043s-.179 0-.223.044c-.09 0-.135.043-.224.043-.09.044-.134.044-.179.088l-.134.13c-.045.044-.045.13-.045.218 0 .087 0 .174.045.218l.134.13c.045.044.134.044.179.088h.224c.178 0 .357-.044.447-.087a.532.532 0 0 0 .223-.218.608.608 0 0 0 .09-.262v-.217z"/></g><g opacity=".5"><path fill="#f9f2f3" d="M208.404 17.688c.045.088.09.131.179.175.09.043.134.087.223.087a.58.58 0 0 0 .269.043c.09 0 .134 0 .223-.043.09 0 .135-.044.224-.087.045-.044.134-.087.134-.131.045-.044.045-.13.045-.218 0-.13-.09-.261-.313-.305-.179-.087-.447-.13-.805-.218l-.403-.13c-.134-.044-.268-.087-.357-.175l-.269-.261a.852.852 0 0 1-.09-.392c0-.218.045-.392.135-.567.09-.13.224-.261.358-.348.134-.087.313-.13.492-.174.179-.044.357-.044.581-.044.179 0 .403 0 .582.044.178.043.357.087.492.174.134.087.268.218.357.348.09.131.134.305.18.523h-.94a.455.455 0 0 0-.224-.392c-.134-.043-.268-.087-.447-.087h-.179c-.045 0-.134 0-.179.044-.044.043-.09.043-.134.087-.045.043-.045.087-.045.174s.045.174.09.218a.735.735 0 0 0 .268.13c.134.044.224.044.358.088.134.043.268.043.403.087l.402.13c.134.044.268.088.358.175l.268.261c.045.13.09.262.09.392 0 .218-.045.436-.135.567-.089.174-.223.261-.357.392a1.514 1.514 0 0 1-.537.218c-.179.043-.403.043-.581.043-.224 0-.403 0-.627-.043-.178-.044-.357-.087-.536-.218a1.038 1.038 0 0 1-.358-.392 2.117 2.117 0 0 1-.179-.567h.94c0 .218 0 .305.044.392z"/></g><g opacity=".5"><path fill="#f9f2f3" d="M213.281 15.076v.653h-.716v1.743c0 .174.045.261.09.305.045.044.179.087.313.087h.313v.74c-.09 0-.179.044-.268.044h-.313c-.135 0-.314 0-.448-.043a.516.516 0 0 1-.358-.13.45.45 0 0 1-.223-.262 1.07 1.07 0 0 1-.09-.436v-2.048H211v-.653h.581V14.03h.984v1.046z"/></g></g></g></g></svg>