<svg xmlns="http://www.w3.org/2000/svg" width="82" height="33" viewBox="0 0 82 33"><g><g opacity=".5"><g opacity=".5"><path fill="#fcfcfc" d="M81.229 13.658h-3.197c0-.782.004-1.546 0-2.312-.008-1.258.004-2.518-.047-3.776-.028-.732-.317-1.352-1.153-1.44-.86-.09-1.562.222-1.86 1.076-.165.47-.21.997-.218 1.501-.026 1.626-.01 3.252-.01 4.95H71.61c0-1.414.009-2.795-.004-4.178a23.506 23.506 0 0 0-.08-2.036c-.07-.7-.389-1.248-1.169-1.317-.82-.074-1.527.204-1.769 1.035-.197.672-.251 1.401-.272 2.106-.038 1.423-.012 2.85-.012 4.367H65.27V3.716h2.898c.029.281.057.578.102 1.006.9-.953 1.927-1.415 3.172-1.358 1.227.057 2.226.503 2.737 1.387.929-.476 1.727-1.13 2.612-1.293 2.425-.45 3.696.499 4.261 2.892.045.192.118.376.177.564v6.744z"/></g><g opacity=".5"><path fill="#fcfcfc" d="M.6 32.242V17.409h2.831l.173 1.077c1.074-1.013 2.266-1.514 3.678-1.357 1.421.16 2.583.764 3.424 1.933 1.438 2 1.23 5.367-.427 7.22-1.562 1.744-3.761 1.924-6.428.471v5.489c-1.084.002-2.169.002-3.251.002zm5.394-7.3c1.556.003 2.543-.975 2.537-2.52-.006-1.53-1.042-2.575-2.539-2.56-1.478.014-2.45.998-2.474 2.507-.024 1.575.935 2.57 2.476 2.574z"/></g><g opacity=".5"><path fill="#fcfcfc" d="M-.01 7.733c1.225-3.15 2.762-4.35 5.58-4.363 2.724-.01 4.518 1.605 4.786 4.348.054.57.008 1.148.008 1.87h-7.1c.07.994.575 1.505 1.273 1.805 1.32.566 2.35-.01 3.245-1.005l2.074 1.51c-.75 1.372-2.89 2.27-4.746 2.085-2.644-.266-4.306-1.704-5.12-4.208V7.733zm7.218-.29c-.148-1.27-.752-1.82-1.911-1.804-1.184.017-1.915.676-1.989 1.804h3.9z"/></g><g opacity=".5"><path fill="#fcfcfc" d="M50.15.58c.045.976.087 1.95.136 3.019h2.624v2.477h-2.6c0 1.506-.046 2.915.02 4.322.033.7.622.921 1.252.923.436 0 .873-.059 1.336-.094.02.135.055.264.059.395.093 2.238-.199 2.542-2.468 2.375-1.88-.14-3.606-.69-3.432-3.654.08-1.35.015-2.71.015-4.169l-1.942-.108v-2.37c.585-.04 1.204-.085 1.958-.138V.582C48.119.58 49.135.58 50.15.58z"/></g><g opacity=".5"><path fill="#fcfcfc" d="M35.022 17.427c.03.294.06.59.067.64 1.04-.317 2.071-.78 3.144-.917 1.21-.154 2.226.439 2.99 1.646.842-1.332 2.046-1.765 3.49-1.687 1.684.09 2.982.972 3.104 2.649.184 2.522.048 5.07.048 7.67H44.89c0-1.004.002-2.007 0-3.011-.002-1.022.033-2.045-.022-3.062-.039-.713-.295-1.364-1.14-1.458-.849-.094-1.57.165-1.88 1.031-.157.437-.218.927-.226 1.395-.026 1.665-.01 3.331-.01 5.084H38.43v-4.343c0-.545.012-1.09-.012-1.633-.037-.83-.344-1.467-1.272-1.559-.865-.086-1.645.429-1.8 1.305-.133.764-.125 1.557-.137 2.335-.02 1.284-.006 2.57-.006 3.915H32.13V17.43c.934-.002 1.89-.002 2.892-.002z"/></g><g opacity=".5"><path fill="#fcfcfc" d="M54.996 17.11c3.32-.008 5.69 2.202 5.697 5.31.004 3.062-2.352 5.296-5.6 5.31-3.344.015-5.72-2.164-5.743-5.263-.02-3.123 2.325-5.349 5.646-5.357zm-.012 7.829c1.578.01 2.526-.934 2.526-2.51 0-1.565-.99-2.58-2.504-2.57-1.482.01-2.443.98-2.471 2.498-.03 1.593.897 2.572 2.449 2.582z"/></g><g opacity=".5"><path fill="#fcfcfc" d="M23.516 23.397c.128.976.63 1.52 1.402 1.797 1.242.447 2.234-.047 3.143-1.046.717.523 1.414 1.034 2.113 1.542-1.595 2.155-4.864 2.702-7.336 1.28-2.307-1.327-3.223-4.22-2.126-6.731 1.058-2.426 4.088-3.734 6.748-2.915 2.36.727 3.617 3.152 3.073 6.073h-7.017zm.02-2.225H27.5c-.236-1.244-.86-1.811-1.901-1.805-1.12.004-1.883.666-2.061 1.805z"/></g><g opacity=".5"><path fill="#fcfcfc" d="M32.967 9.639H25.86c.533 2.263 2.54 2.563 4.535.756.689.502 1.388 1.015 2.084 1.523-1.397 2.07-4.57 2.678-7.084 1.416-2.35-1.18-3.401-3.936-2.487-6.522.903-2.553 3.777-3.995 6.647-3.33 2.364.544 3.694 2.848 3.412 6.157zm-7.153-2.181h3.966c-.067-1.158-.61-1.747-1.635-1.82-1.245-.088-2.014.484-2.331 1.82z"/></g><g opacity=".5"><path fill="#fcfcfc" d="M37.23 13.665h-2.92v-9.97h2.799l.231 1.04c.93-1.086 2.06-1.462 3.373-1.372 1.816.122 3.002 1.031 3.116 2.857.152 2.433.038 4.88.038 7.412h-3.005c0-1.325.004-2.64-.002-3.956-.002-.613.008-1.228-.039-1.836-.087-1.126-.583-1.683-1.483-1.73-1.033-.055-1.718.46-1.87 1.587-.122.903-.08 1.83-.095 2.747-.019.986-.019 1.973-.03 2.96-.003.06-.052.122-.113.26z"/></g><g opacity=".5"><path fill="#fcfcfc" d="M54.2 3.68h3.134c0 1.456-.008 2.872.004 4.285.006.61.018 1.223.093 1.828.112.889.604 1.422 1.544 1.426.946.002 1.602-.474 1.716-1.397.14-1.142.122-2.304.148-3.458.02-.872.004-1.747.004-2.674h3.075v9.967H61.01l-.159-1.025c-1.157 1.217-2.48 1.577-4.015 1.256-1.295-.272-2.226-1.013-2.384-2.312-.207-1.711-.193-3.452-.25-5.182-.026-.876-.002-1.754-.002-2.714z"/></g><g opacity=".5"><path fill="#fcfcfc" d="M16.729 10.466c.77-2.203 1.472-4.146 2.12-6.109.177-.535.402-.782.99-.743.763.051 1.532.012 2.446.012-.564 1.432-1.074 2.719-1.582 4.003-.696 1.77-1.417 3.526-2.075 5.307-.228.614-.567.798-1.198.8-2.472.008-2.474.029-3.437-2.29C12.93 8.89 11.87 6.329 10.75 3.63c1.08 0 2.02-.049 2.949.03.256.023.587.383.696.663.774 1.95 1.497 3.92 2.334 6.143z"/></g><g opacity=".5"><path fill="#fcfcfc" d="M16.11 27.45h-3.06V17.41h2.973l.195 1.435c.967-1.575 2.238-1.947 3.824-1.632v2.681c-.585 0-1.153-.049-1.712.01-1.35.14-2.014.789-2.11 2.16-.093 1.354-.079 2.716-.107 4.076-.01.402-.002.805-.002 1.31z"/></g></g></g></svg>