<svg xmlns="http://www.w3.org/2000/svg" width="61" height="37" viewBox="0 0 61 37"><g><g opacity=".5"><g opacity=".5"><path fill="#fff" d="M59.48-.031c.783.217 1.27.926 1.155 1.72-.218 1.505-.602 2.975-.914 4.46-.83 3.938-1.678 7.872-2.517 11.809-.425 1.988-.843 3.98-1.267 5.968-.11.516-.192.568-.801.568-4.47-.003-8.942-.008-13.413-.01H3.348c-.405-.004-.468-.068-.388-.458.152-.75.318-1.495.479-2.242L6.687 6.597c.308-1.441.61-2.885.928-4.324.333-1.505 1.462-2.36 3.127-2.392.065-.002.131 0 .196 0h47.568c.327 0 .655 0 .973.088zm-23.1 11.037c-.293-.009-.589.019-.882-.006-.798-.07-1.53.132-2.227.498-3.343 1.756-6.689 3.51-10.034 5.264-.584.306-.579.303-1.084-.1-2.239-1.786-4.483-3.566-6.72-5.354-.396-.315-.827-.505-1.344-.5-.512.005-1.024-.016-1.536-.014-.388.003-.553.132-.638.513-.62 2.75-1.237 5.5-1.851 8.253-.078.346.01.462.365.475.545.02 1.09.026 1.634.03.518.003.654-.115.762-.602.207-.935.43-1.866.626-2.803.06-.287.126-.32.375-.145 1.457 1.021 2.927 2.024 4.387 3.041 1.267.882 2.577.938 3.94.239 1.643-.842 3.25-1.75 4.865-2.64.359-.2.719-.393 1.153-.63-.031.154-.042.215-.057.276-.245.981-.493 1.962-.735 2.945-.11.446-.038.545.389.553 2.048.038 4.096.075 6.144.108.545.009.645-.08.784-.613l1.683-6.467c.152-.583.303-1.166.449-1.751.115-.462.042-.555-.447-.57zm6.396 4.65c.116-.472.036-.586-.46-.594-1.307-.02-2.614-.032-3.922-.047-.962-.011-.962-.01-1.203.917l-.046.188c-.102.416-.018.533.421.536.184.002.366.004.548.004l1.643-.002h1.734c1.03 0 1.041-.01 1.285-1.001zm8.684-4.249a3.651 3.651 0 0 0-1.309-.246c-1.023-.005-2.047-.002-3.07-.002v-.05c-.163 0-.327.002-.49 0-.927-.004-1.854-.014-2.78-.012-.44.001-.559.101-.671.51-.057.207-.11.416-.162.625-.092.368-.012.487.36.5.413.017.828.026 1.241.023.19-.002.257.047.199.24-.088.288-.158.582-.237.872l-1.694 6.193c-.113.413-.062.515.296.521 2.156.035 4.313.063 6.47.1.33.005.502-.145.58-.447.096-.374.204-.746.309-1.119.58-2.06 1.167-4.12 1.741-6.182.219-.784-.018-1.23-.783-1.526z"/></g><g opacity=".5"><path fill="#fff" d="M55.303 24.972c.292-.02.356.116.298.379-.195.872-.378 1.745-.567 2.618-.451 2.094-.9 4.187-1.358 6.278-.318 1.453-1.454 2.364-2.954 2.39h-.196c-15.944 0-31.887 0-47.83.002-.264 0-.527-.014-.78-.076-.94-.228-1.438-1.038-1.228-2.039.644-3.064 1.3-6.127 1.95-9.19.053-.246.184-.38.45-.362.087.007.175.001.262.001h51.691c.088 0 .175.005.262-.001zM9.407 31.528c.067-.614.242-1.2.47-1.773.15-.38.414-.559.822-.557.512.004 1.025.002 1.537.002.36 0 .72.009 1.08-.004.264-.01.504-.289.483-.556-.024-.315-.28-.213-.452-.214-1.264-.007-2.53-.003-3.794-.003-.197 0-.39.007-.584.054-1.162.283-2.102 1.495-2.155 2.784-.046 1.11.47 1.645 1.584 1.647h1.898l1.08-.002c.36 0 .72 0 1.08.004.201.002.327-.061.381-.265.216-.799.437-1.598.659-2.395.06-.218.007-.326-.244-.32-.468.01-.937.008-1.406 0-.219-.003-.344.083-.396.298-.078.323-.172.645-.26.966-.257.948-.278.964-1.268.926-.433-.016-.559-.157-.515-.592zm9.95.841c0-.314-.26-.237-.432-.242-.566-.012-1.132-.006-1.699-.006-.868 0-.974-.135-.746-.974.212-.788.427-1.576.649-2.362.072-.256.033-.375-.276-.367-.652.018-1.306.007-1.96.005-.16 0-.31.004-.358.197-.238.947-.587 1.867-.733 2.837-.14.935.297 1.441 1.253 1.45.457.004.915.003 1.372.002l.458-.001h.85c.38 0 .763.005 1.143-.003.295-.006.481-.212.479-.536zm7.69-2.5c.009-.902-.506-1.43-1.42-1.444-.5-.008-1.001-.001-1.625-.001-.53.03-1.19-.086-1.832.048-1.161.243-2.126 1.476-2.204 2.708-.074 1.173.548 1.792 1.669 1.737.912-.045 1.828-.015 2.743-.007a2.07 2.07 0 0 0 1.14-.325c1.013-.631 1.517-1.538 1.53-2.715zm6.795 1.692c.07-.274.147-.568-.025-.813-.19-.272-.136-.424.095-.645.347-.333.486-.775.309-1.244-.172-.456-.593-.437-.993-.436-.773.003-1.548 0-2.322 0-.862 0-1.723.004-2.585-.003-.224-.002-.371.053-.435.288-.35 1.297-.701 2.594-1.064 3.889-.066.235-.005.314.237.313 1.701-.005 3.402.007 5.103-.007.796-.006 1.482-.577 1.68-1.342zm8.101 1.344c.278-.003.338-.111.199-.335-.778-1.256-1.555-2.514-2.342-3.765-.315-.5-.715-.567-1.174-.181-1.58 1.325-3.147 2.66-4.718 3.994-.07.061-.176.119-.127.234.044.104.153.056.232.056.72.003 1.44.002 2.16.002.48 0 .96.003 1.44-.002.307-.004.522-.235.51-.548-.011-.314-.27-.206-.441-.232-.117-.018-.24-.007-.359-.007h-1.982l2.177-1.848c.166-.142.216-.003.284.11.436.73.877 1.458 1.312 2.192.117.197.254.343.507.34.773-.005 1.548-.002 2.322-.01zm6.522-.518c.012-.326-.238-.25-.414-.254-.577-.012-1.155-.01-1.732-.01-.84-.002-.955-.15-.735-.962.217-.799.437-1.596.659-2.394.054-.196.058-.345-.214-.344-.686.003-1.372.003-2.059 0-.178-.001-.294.072-.335.242-.223.94-.585 1.845-.732 2.803-.138.906.322 1.43 1.249 1.438.305.003.61.003.915.003l.915-.001h.26c.59 0 1.177.005 1.766-.003.277-.003.448-.213.457-.518z"/></g><g opacity=".5"><path fill="#f3ffff" d="M29.27 32.138l.723-2.7c.05-.18.157-.262.354-.258.392.01.784-.001 1.175.005.219.002.456-.012.49.295.032.27-.16.54-.448.58-.256.034-.519.03-.778.031-.38.003-.653.154-.72.428-.047.192-.027.339.242.33.293-.01.586.004.879.022.294.018.384.204.354.469-.058.515-.36.79-.884.798-.457.004-.912 0-1.387 0z"/></g><g opacity=".5"><path fill="#fdffff" d="M23.094 32.134c-.922 0-1.025-.125-.834-1.025a8.45 8.45 0 0 1 .362-1.268c.192-.502.419-.658.954-.66.282-.001.567-.006.846.023.298.03.42.202.368.491-.094.528-.204 1.054-.398 1.557-.3.78-.448.882-1.298.882z"/></g></g></g></svg>