<svg xmlns="http://www.w3.org/2000/svg" width="49" height="37" viewBox="0 0 49 37"><g><g opacity=".5"><g opacity=".5"><path fill="#fff" d="M24.38 36.34c-1.036-3.484-1.687-6.896-2.185-10.337-.702-4.855-1.075-9.722-.123-14.59C23.321 5.022 28.342.458 34.424.287c5.352-.15 9.52 2.106 12.088 6.807 2.57 4.707 2.152 9.404-.814 13.855-1.256 1.886-2.843 3.49-4.559 4.965-5.003 4.3-10.687 7.504-16.76 10.426zm16.274-22.949c.016-3.096-2.453-5.615-5.533-5.64a5.591 5.591 0 0 0-5.646 5.53c-.034 3.069 2.455 5.6 5.538 5.642 3.073.035 5.626-2.469 5.641-5.532z"/></g><g opacity=".5"><path fill="#fff" d="M23.473 36.085c-4.903-2.33-9.398-4.875-13.554-8.002-3.14-2.361-6.085-4.921-8.01-8.436C-1.221 13.935.502 6.607 5.839 2.85c5.373-3.785 12.8-2.991 17.18 1.802.562.616.677 1.052.202 1.846-2.404 4.012-2.506 8.477-2.3 12.966.243 5.279 1.12 10.465 2.405 15.586.058.242.071.492.148 1.036zM13.34 7.908c-3.068.02-5.557 2.576-5.524 5.672.03 3.012 2.553 5.495 5.575 5.495 3.078-.005 5.587-2.521 5.592-5.615.005-3.06-2.547-5.572-5.643-5.552z"/></g></g></g></svg>