<svg xmlns="http://www.w3.org/2000/svg" width="41" height="52" viewBox="0 0 41 52"><g><g opacity=".5"><g opacity=".5"><g opacity=".5"><path fill="#ededed" d="M18.704 2.842c-.039-.006-.068-.068-.13-.13V.61c.814-.157 1.623-.098 2.494-.039v2.03c-.05.225-.524.237-.773.45v6.53c.26.08.486.152.767.238v1.964c-.044.21-.524.22-.767.436v6.765c1.369-1.36 2.607-2.584 3.837-3.814 1.256-1.253 2.51-2.515 3.831-3.84V9.728h1.618l7.577-7.734V.593h2.3v2.16c-.137.213-.442.056-.703.252V9.39c.175.29.471.341.753.341v2.113c-.187.3-.498.133-.753.373v6.338c.142.365.551.231.75.498v1.97c-.19.3-.504.122-.753.347v6.341c.166.365.572.246.75.516v2.05c-.25.077-.471.149-.75.235v6.361c.113.303.557-.006.73.311v2.353h-2.158c-.273-.207-.13-.578-.151-.907-.018-.293-.003-.586-.003-.728-2.513-2.552-4.937-5.008-7.378-7.485h-1.63c-.071-.145-.202-.282-.184-.397.166-1.159-.367-1.98-1.218-2.67-1.958-1.588-3.603-3.497-5.422-5.23-.305-.29-.54-.682-1.031-.848v6.65c.266.092.489.166.764.26v1.897c-.08.252-.54.287-.809.551v6.057c.071.495.797.23.827.794-.154.637.358 1.425-.406 2.115-.64-.198-1.46.344-2.113-.403v-1.721c.14-.41.56-.397.815-.65v-6.216c-.169-.284-.643-.201-.806-.675v-1.677c.128-.314.536-.113.782-.38v-6.788c-2.542 2.643-5.238 4.86-7.662 7.523v1.743h-1.73C7.475 32.89 5.06 35.353 2.48 37.987v1.535H.205v-2.358l.56-.347v-6.24c-.178-.092-.344-.175-.572-.294v-2.198c.027-.107.382.015.56-.252v-6.288C.771 21.187.4 21.3.19 21.068v-2.122c.044-.145.391-.023.572-.272V12.21c-.172-.086-.34-.166-.569-.278V9.734c.027-.116.376.006.563-.22V3.029l-.557-.257V.584h2.193c.23.504.008 1.055.11 1.49 2.518 2.534 4.986 5.014 7.546 7.589h1.511c.273.557.072 1.108.146 1.538l7.618 7.725v-6.783c-.11-.249-.53.053-.747-.249V9.9c.17-.32.581-.089.797-.391V2.934c-.29-.039-.48-.057-.67-.092zm11.591 26.754c2.415 2.445 4.664 4.732 6.925 7.008.181.183.332.536.747.278v-6.264c-.18-.346-.625-.05-.765-.409v-2.012c.264-.192.62-.148.774-.548V21.45c-.199-.352-.64-.068-.768-.409v-2.13c.32-.006.61-.068.765-.412v-6.237c-.21-.326-.646-.057-.765-.38V9.83c.279-.175.64-.125.8-.643 0-1.9 0-3.968-.003-6.039 0-.041-.038-.089-.07-.124-.03-.033-.075-.05-.247-.166-2.447 2.43-4.918 4.886-7.42 7.369v1.804h-1.786c-2.462 2.504-4.886 4.967-7.349 7.47v1.215c2.386 2.599 5.058 4.86 7.453 7.266.622.151 1.182-.08 1.706.193.003.527.003 1.013.003 1.422zM1.636 12.226c0 1.102-.006 2.184.003 3.265.009 1.07-.036 2.146.015 2.934.296.542.767.329.812.607v1.983c-.184.364-.623.059-.791.42v6.282c.325.172.687.225.746.397v2.16c-.249.25-.575 0-.78.412 0 1.944-.002 4.01.007 6.075 0 .074.1.145.154.216.948-.599 5.108-4.631 7.565-7.34v-1.446c.598-.592 1.298-.19 1.95-.418 2.364-2.34 4.708-4.794 7.212-6.98v-1.198c-2.545-2.601-4.955-5.067-7.423-7.591H9.352v-1.479C6.783 7.87 4.422 5.423 2.048 2.984c-.05-.053-.18-.033-.344-.06v6.653c.148.255.57-.02.753.314v1.965c-.193.299-.498.127-.821.37z"/></g><g opacity=".5"><path fill="#ededed" d="M1.008 46.26v5.512c-.193.365-.456.258-.77.267-.247-1.197-.08-2.42-.113-3.63-.03-1.18-.006-2.359-.006-3.514.551-.388.865-.098 1.144.278.69.934 1.372 1.876 2.112 2.886.955-.687 1.41-1.683 2.095-2.48.223-.257.427-.536.676-.764.195-.178.444-.13.72.015v7.076c-.157.216-.4.148-.776.08-.06-1.817.003-3.669-.036-5.613-1.161.77-1.375 2.261-2.693 2.84a868.039 868.039 0 0 0-2.353-2.952z"/></g><g opacity=".5"><path fill="#ededed" d="M29.989 48.758c.74 1.058 1.458 2.077 2.178 3.108-.667.424-1.005.021-1.292-.37-.631-.862-1.224-1.751-1.85-2.655h-2.15v2.865c-.276.415-.53.33-.845.32v-7.3c1.182 0 2.406-.093 3.612.02 1.689.16 2.43 1.808 1.597 3.233-.284.486-.812.453-1.25.78zm-3.117-3.176v2.343h3.07c1.075-1.11 1.057-1.374-.09-2.343h-2.98z"/></g><g opacity=".5"><path fill="#ededed" d="M36.71 44.67c2.06-.16 3.705 1.562 3.752 3.6.053 2.244-1.692 3.906-3.683 3.838-2.066-.071-3.713-1.639-3.719-3.692-.006-2.074 1.612-3.734 3.65-3.746zm-1.045 6.522c.382.02.773.06 1.164.06 1.414-.006 1.98-.421 2.548-1.743.57-1.327-.088-3.325-1.286-3.772-1.11-.415-2.216-.418-3.152.409-.913.806-1.197 1.831-.886 3.034.225.865.776 1.44 1.612 2.012z"/></g><g opacity=".5"><path fill="#ededed" d="M13.906 48.084c-.762-1.064-1.494-2.083-2.246-3.129.577-.516.924-.113 1.212.249.539.681 1.03 1.399 1.603 2.187.548-.741 1.046-1.437 1.57-2.113.3-.385.625-.794 1.256-.406-.586 1.168-1.697 1.988-2.177 3.286.859 1.221 1.712 2.439 2.539 3.612-.225.383-.492.252-.726.276-.788-1.05-1.58-2.098-2.42-3.215-1.148.933-1.55 2.557-2.91 3.265-.451-.39-.184-.655.017-.927.747-1.014 1.497-2.027 2.282-3.085z"/></g><g opacity=".5"><path fill="#ededed" d="M24.401 47.69c-.575.875-1.348 1.18-2.305 1.145-.679-.027-1.36-.006-2.095-.006v2.942c-.228.353-.48.276-.871.237-.053-1.191-.018-2.409-.024-3.624-.006-1.179 0-2.355 0-3.662 1.046 0 2.024-.056 2.99.012 1.775.127 2.575.927 2.362 2.435-.024.146-.033.294-.057.522zm-4.385.528c1.502-.19 3.17.486 3.799-1.463-.72-1.33-1.435-1.518-3.8-1.038v2.501z"/></g><g opacity=".5"><path fill="#ededed" d="M9.132 44.66c.58.175.729.415.726.818a463.11 463.11 0 0 0-.003 5.74c.003.44-.098.764-.7.838-.364-.767-.124-1.597-.165-2.388a28.156 28.156 0 0 1-.003-2.501c.03-.812-.14-1.645.145-2.507z"/></g><g opacity=".5"><path fill="#ededed" d="M9.31.57h2.29c.208.708.098 1.46.072 2.26h-2.22c-.26-.66-.044-1.395-.142-2.26z"/></g><g opacity=".5"><path fill="#ededed" d="M28.03.57h2.234v2.237H28.03V.57z"/></g><g opacity=".5"><path fill="#ededed" d="M11.646 39.348H9.447c-.243-.66-.018-1.292-.157-1.977.803-.263 1.553-.121 2.356-.136v2.113z"/></g><g opacity=".5"><path fill="#ededed" d="M28.01 37.27h2.255v2.003c-.696.255-1.449.056-2.255.133V37.27z"/></g><g opacity=".5"><path fill="#ededed" d="M28.02 21.236V18.94h2.213c.208.667.039 1.393.098 2.184-.752.186-1.5.06-2.311.112z"/></g><g opacity=".5"><path fill="#ededed" d="M11.64 21.189H9.4V18.94h2.24v2.249z"/></g></g></g></g></svg>