<svg xmlns="http://www.w3.org/2000/svg" width="81" height="37" viewBox="0 0 81 37"><g><g opacity=".5"><g opacity=".5"><path fill="#fffafb" d="M66.74 5.026c.002-.38.007-.763.005-1.143 0-.092.01-.138.122-.138.798.009 1.594.009 2.392.013v3.814c.11 0 .161-.066.221-.108 1.819-1.26 3.637-2.52 5.458-3.777.055-.04.111-.122.179-.09.069.033.03.127.03.192l.001 3.546v.276l5.847-4.041c.067.074.043.149.043.216.001 2.66-.002 5.321.007 7.98 0 .195-.059.23-.237.228-.7-.01-1.401-.009-2.102 0-.156.002-.202-.033-.2-.196.007-1.118.004-2.236.004-3.354v-.27c-1.973 1.344-3.908 2.662-5.875 3.999V8.166l-5.886 4.016v-.262-6.643c-.002-.081-.007-.166-.009-.251z"/></g><g opacity=".5"><path fill="#fffafb" d="M39.4 18.696c.004-.373.009-.747.007-1.12 0-.097.007-.154.133-.154.796.007 1.592.007 2.39.01v3.886l2.938-2.031 2.917-2.017c.048.069.03.133.03.191.002 2.668 0 5.334.006 8.002 0 .164-.04.212-.209.21-.7-.01-1.401-.009-2.102 0-.162.002-.212-.035-.21-.205.009-1.111.003-2.222.003-3.333v-.274c-1.97 1.34-3.911 2.662-5.853 3.985-.07-.08-.04-.159-.04-.231l-.001-6.664c0-.085-.005-.17-.009-.255z"/></g><g opacity=".5"><path fill="#fffafb" d="M29.993 23.398c-.276-.667-.425-1.354-.387-2.083.125-2.399 2.17-4.274 4.562-4.127 1.488.09 2.592.832 3.308 2.142.048.087.092.174.136.26.278.71.379 1.444.32 2.203-.014.179-.06.235-.247.235-1.804-.009-3.609-.005-5.413-.005-.271 0-.28.003-.193.269.228.69.688 1.153 1.397 1.318.71.164 1.306-.087 1.805-.595.083-.085.171-.177.224-.28.096-.188.184-.2.36-.077.525.372 1.061.727 1.602 1.076.154.099.176.16.066.32a4.349 4.349 0 0 1-7.457-.513l-.083-.144zm3.77-2.843c.515 0 1.031-.004 1.546.001.131.002.154-.031.117-.155a1.474 1.474 0 0 0-.33-.607c-.351-.375-.804-.497-1.3-.508-.762-.016-1.464.446-1.69 1.104-.043.12-.045.17.113.168.513-.01 1.03-.003 1.544-.003z"/></g><g opacity=".5"><path fill="#fffafb" d="M57.18 9.801c.004-.078.01-.154.01-.232 0-1.88.004-3.763-.003-5.643 0-.18.046-.218.22-.216.7.01 1.399.01 2.1 0 .176-.003.201.057.2.212-.008 1.09-.004 2.178-.004 3.268v.256l1.275-1.751 1.348-1.849c.05-.069.087-.132.195-.132.91.005 1.822.001 2.747.001-.012.107-.087.167-.136.236-.651.906-1.304 1.81-1.957 2.715-.031.046-.06.094-.09.142-.177.237-.347.48-.532.71-.089.11 0 .167.047.234.858 1.168 1.718 2.332 2.578 3.498l.488.663c-.028.071-.086.041-.129.043-.87.002-1.739-.002-2.61.005-.132.002-.201-.053-.274-.15-.932-1.246-1.866-2.488-2.8-3.73l-.126-.162c-.046.083-.026.159-.026.232-.002 1.2-.004 2.404.003 3.605.002.171-.05.207-.212.205a84.828 84.828 0 0 0-2.121 0c-.152.002-.187-.042-.186-.19.006-.656-.001-1.314-.005-1.97z"/></g><g opacity=".5"><path fill="#fffafb" d="M52.322 12.225a4.684 4.684 0 0 1-2.225-.513c-1.52-.79-2.464-2.51-2.298-4.214.203-2.084 1.626-3.655 3.7-3.968 1.662-.252 3.063.292 4.135 1.613.057.069.136.127.02.225-.595.488-1.186.982-1.787 1.48-.193-.283-.402-.54-.678-.732-1.123-.784-2.584-.147-2.827 1.233-.093.529-.056 1.044.188 1.529.642 1.27 2.395 1.369 3.198.176.119-.175.18-.176.342-.056.484.366.978.72 1.48 1.063.183.124.305.228.124.439l.014.003c-.058-.023-.06.03-.081.06-.862 1.03-1.962 1.587-3.305 1.662z"/></g><g opacity=".5"><path fill="#fffafb" d="M24.89 25.927c-.724 0-1.44-.064-2.13-.302-.632-.22-1.184-.558-1.597-1.1-.086-.116-.122-.187.04-.29.546-.351 1.082-.717 1.615-1.089.123-.085.187-.083.291.028.586.623 1.31.795 2.129.616.122-.026.242-.076.353-.136.234-.128.372-.324.358-.602-.014-.276-.167-.456-.407-.571-.255-.122-.53-.143-.805-.147a15.42 15.42 0 0 0-.7.002c-.1.002-.137-.027-.135-.131a75.38 75.38 0 0 0 0-1.55c-.002-.118.044-.134.147-.136.324-.007.649.032.973-.028a.985.985 0 0 0 .299-.105c.442-.237.465-.746.05-1.026-.35-.233-.737-.224-1.126-.175-.41.053-.796.191-1.134.437-.08.059-.122.057-.19-.014a97.108 97.108 0 0 0-1.356-1.345c-.104-.1-.055-.14.028-.203.538-.405 1.157-.612 1.805-.738 1.063-.205 2.12-.215 3.156.15.668.238 1.219.623 1.49 1.317.328.84.12 1.732-.544 2.344l-.166.154c.118.07.228.13.333.2.778.51 1.116 1.477.842 2.406-.023.08-.041.16-.062.242l.007-.004c-.04-.014-.032.02-.037.041-.524.99-1.439 1.389-2.46 1.62-.348.08-.709.101-1.068.135z"/></g><g opacity=".5"><path fill="#fffafb" d="M6.535 35.117c0-1.133.002-2.263-.005-3.395 0-.133.035-.168.165-.161.254.01.509.014.764 0 .15-.009.168.051.168.18-.005.743.003 1.486-.007 2.228-.002.16.042.205.2.196.297-.014.594-.014.89-.002.148.007.17-.05.168-.179-.006-.75 0-1.498-.006-2.248-.002-.136.032-.18.172-.175.255.012.51.01.764 0 .122-.005.154.035.152.154-.005.53-.002 1.061-.002 1.59 0 .028.01.055.015.083-.004.324-.006.65-.013.973-.002.096.023.15.13.138.028-.003.056 0 .084 0 .412.002.412.002.5.404.139.63-.158 1.227-.762 1.49-.583.252-1.178.243-1.772.022-.158-.058-.23-.12-.085-.27.062-.066.11-.147.157-.225.154-.251.276-.483.67-.296.282.135.588-.02.708-.226.115-.196.073-.274-.15-.276-.97 0-1.937-.002-2.905-.005z"/></g><g opacity=".5"><path fill="#fffafb" d="M44.945 33.984c0-.736.008-1.472-.005-2.206-.003-.182.053-.225.225-.217.444.017.884-.027 1.327-.084.753-.093 1.372.191 1.751.86.407.718.386 1.458-.092 2.139-.44.63-1.076.833-1.826.708-.042-.007-.086-.007-.124-.023-.143-.068-.178-.016-.175.13.01.333-.001.666.006.998.003.122-.037.16-.156.154a9.465 9.465 0 0 0-.743 0c-.147.007-.193-.039-.193-.19.009-.756.005-1.512.005-2.269zm1.087-.663c0 .198.009.396-.004.592-.007.128.043.191.152.243.386.178.803.102 1.039-.197.274-.348.27-.888-.007-1.24-.236-.299-.653-.371-1.039-.19-.1.047-.152.102-.145.22.01.19.004.38.004.572z"/></g><g opacity=".5"><path fill="#fffafb" d="M23.014 34.013c0-.755.003-1.512-.004-2.267-.002-.142.04-.177.177-.174.458.009.911-.016 1.37-.083 1.077-.157 2.012.683 2.023 1.773.01 1.026-.559 1.769-1.495 1.944-.267.05-.54.046-.798-.036-.173-.054-.184.011-.18.15.007.326-.002.652.005.976.002.12-.037.159-.157.155-.262-.007-.524-.01-.784.002-.14.005-.16-.05-.16-.172.004-.755.003-1.512.003-2.268zm1.687.245c.052-.007.131-.006.205-.029.331-.104.512-.346.567-.675.065-.388-.02-.742-.356-.979-.288-.205-.6-.154-.908-.021-.099.042-.1.12-.099.209.002.34.002.677.002 1.017 0 .336.064.41.395.463.055.01.111.01.194.015z"/></g><g opacity=".5"><path fill="#fffafb" d="M52.607 33.355c0 .538-.001 1.076.002 1.613 0 .11-.012.167-.147.165a8.6 8.6 0 0 0-1.412.088c-1.287.188-2.142-.992-1.993-2.115.164-1.244 1.2-1.904 2.407-1.57.31.087.634.029.949.029.159 0 .2.042.196.2-.009.529-.002 1.06-.002 1.59zm-1.086.004c0-.192-.009-.383.004-.572.008-.134-.052-.203-.161-.263-.515-.28-1.067-.025-1.198.574-.083.38-.02.738.288 1.005.264.229.568.206.876.089.145-.055.209-.142.195-.303-.015-.177-.004-.355-.004-.53z"/></g><g opacity=".5"><path fill="#fffafb" d="M42.945 33.56c-.368 0-.736.008-1.104-.003-.163-.004-.177.051-.127.186.209.56.937.69 1.353.217.149-.168.235-.173.396-.042.165.133.345.246.526.357.104.064.108.117.04.216-.403.577-1.213.881-1.958.725a1.875 1.875 0 0 1-1.431-1.457c-.195-1.033.336-1.964 1.275-2.242 1.27-.375 2.385.5 2.325 1.822-.007.163-.053.236-.235.227-.352-.016-.706-.005-1.06-.005zm-.532-.654c.198 0 .396-.005.592.002.13.003.145-.044.094-.149-.136-.285-.38-.385-.676-.385-.302 0-.55.107-.693.396-.052.102-.025.14.088.138.198-.004.396-.002.595-.002z"/></g><g opacity=".5"><path fill="#fffafb" d="M10.823 32.972c.163-.73.561-1.254 1.304-1.466.481-.138.95-.08 1.407.111.645.386.916.968.902 1.704-.004.175-.055.24-.246.239-.706-.013-1.414-.006-2.121-.006-.216 0-.23.027-.138.229.251.544.97.624 1.366.134.116-.143.184-.13.311-.035.186.14.38.269.58.389.11.067.101.118.034.212-.432.598-1.256.895-2 .715a1.87 1.87 0 0 1-1.399-1.51 2.775 2.775 0 0 1 0-.716zm1.785-.608c-.28.009-.525.104-.672.377-.053.099-.07.168.087.164.394-.005.79-.005 1.185 0 .143.002.13-.06.085-.154-.133-.285-.377-.378-.685-.387z"/></g><g opacity=".5"><path fill="#fffafb" d="M35.884 33.347a1.9 1.9 0 0 1-1.902 1.897c-1.042.005-1.912-.857-1.912-1.893 0-1.051.87-1.918 1.918-1.911a1.91 1.91 0 0 1 1.896 1.907zm-1.097-.007c-.001-.504-.345-.874-.81-.876-.467-.001-.814.386-.81.9.005.486.359.855.814.852.472-.004.808-.368.806-.876z"/></g><g opacity=".5"><path fill="#fffafb" d="M69.39 33.356a1.891 1.891 0 0 1-1.906 1.887c-1.046-.005-1.915-.872-1.904-1.901a1.92 1.92 0 0 1 1.907-1.902 1.9 1.9 0 0 1 1.904 1.916zm-1.087.003c.005-.51-.347-.896-.818-.895-.458.002-.81.384-.813.881-.002.483.345.86.8.869.47.01.825-.356.83-.855z"/></g><g opacity=".5"><path fill="#fffafb" d="M18.604 33.34c0 .538-.004 1.076.003 1.614.002.136-.031.186-.175.18a9.17 9.17 0 0 0-.764 0c-.136.006-.166-.046-.165-.171.008-.319-.001-.637.006-.956.002-.107-.029-.148-.142-.145a20.86 20.86 0 0 1-.997 0c-.133-.003-.147.053-.146.163.006.319-.003.637.006.955.003.123-.036.16-.156.156a12.913 12.913 0 0 0-.785 0c-.11.004-.149-.035-.149-.145.002-1.097.004-2.194 0-3.29 0-.108.044-.13.14-.128.269.006.538.007.806 0 .112-.003.147.03.144.142-.007.346.002.693-.006 1.04-.001.118.03.161.154.157.326-.007.651-.007.977 0 .122.004.157-.039.156-.157-.008-.333.005-.665-.006-.998-.005-.154.048-.19.191-.184.24.01.482.016.722-.002.172-.012.195.055.191.204-.01.518-.005 1.044-.005 1.566z"/></g><g opacity=".5"><path fill="#fffafb" d="M78.508 33.229l1.543-1.06c.28-.19.559-.384.838-.575.04-.026.076-.08.128-.06.06.023.031.087.031.131.002 1.102 0 2.206.004 3.308 0 .119-.034.163-.156.158-.254-.007-.51-.01-.762 0-.142.005-.18-.041-.179-.18.009-.404.004-.806.004-1.209v-.25l-2.491 1.688c-.07-.062-.043-.129-.043-.187-.001-1.074.004-2.15-.005-3.224-.002-.173.053-.215.214-.205.225.013.453.013.678 0 .152-.009.207.027.201.193-.014.48-.005.957-.005 1.472z"/></g><g opacity=".5"><path fill="#fffafb" d="M61.434 33.348c0-.538.005-1.076-.004-1.614-.002-.143.044-.178.179-.173.24.01.48.012.722 0 .157-.009.185.053.182.193-.01.325.002.65-.006.976-.003.128.032.175.167.172.325-.01.65-.01.976 0 .133.003.168-.046.167-.172-.008-.332.001-.665-.006-.998-.002-.122.02-.176.16-.171.261.012.523.007.785.002.103-.002.152.017.152.138a509.205 509.205 0 0 0 0 3.288c0 .119-.055.138-.156.137a16.628 16.628 0 0 0-.785 0c-.124.003-.158-.041-.154-.158.007-.318-.002-.637.005-.955.002-.117-.026-.163-.152-.16-.332.01-.665.011-.998 0-.143-.005-.16.055-.157.176.007.311-.004.622.005.934.004.132-.042.17-.17.164a10.412 10.412 0 0 0-.743 0c-.129.006-.17-.035-.168-.166.002-.538-.001-1.076-.001-1.613z"/></g><g opacity=".5"><path fill="#fffafb" d="M53.584 33.344c0-.53.005-1.061-.004-1.592-.002-.141.025-.201.182-.19.24.013.481.012.722 0 .149-.008.175.049.172.181-.01.333.003.666-.006.998-.003.142.057.163.177.161.326-.005.651-.007.977 0 .129.004.171-.035.168-.166-.009-.34.002-.68-.005-1.02-.004-.121.037-.157.157-.153.255.009.51.007.764 0 .11-.004.147.026.145.141a503.2 503.2 0 0 0 0 3.27c0 .124-.04.157-.159.154-.255-.007-.51-.007-.764 0-.115.003-.145-.041-.143-.149.005-.325-.002-.651.003-.976.002-.108-.025-.15-.141-.147-.347.007-.694.007-1.04 0-.12-.002-.14.046-.139.15.006.318-.003.637.006.955.003.131-.037.172-.168.167a9.465 9.465 0 0 0-.743 0c-.137.005-.165-.045-.163-.17.005-.538.002-1.076.002-1.614z"/></g><g opacity=".5"><path fill="#fffafb" d="M39.892 33.35c0 .524-.007 1.048.004 1.57.004.171-.051.219-.216.208a5.106 5.106 0 0 0-.658 0c-.164.01-.216-.037-.214-.208.01-.75 0-1.499.009-2.249.002-.168-.044-.214-.21-.21-.496.008-.496.001-.517.495-.018.417-.07.83-.216 1.226-.221.598-.697.93-1.31.916-.093-.002-.157-.012-.188-.12-.08-.257-.168-.51-.262-.76-.032-.087-.01-.1.074-.12.686-.151.732-.2.847-.9a7.31 7.31 0 0 0 .07-1.457c-.006-.133.024-.18.17-.18.813.006 1.625.006 2.439 0 .138-.003.182.034.18.174-.005.54-.002 1.078-.002 1.615z"/></g><g opacity=".5"><path fill="#fffafb" d="M74.58 1.104c.494-.244.987-.488 1.48-.734.61.954 1.7 1.01 2.392.122.078-.1.133-.111.241-.055.4.209.805.405 1.21.607.08.039.149.065.08.182-.612 1.039-1.527 1.571-2.725 1.557-1.18-.014-2.077-.554-2.65-1.6-.014-.024-.02-.052-.028-.079z"/></g><g opacity=".5"><path fill="#fffafb" d="M43.502 16.623c-.568-.143-1.088-.378-1.518-.789a3.018 3.018 0 0 1-.55-.718c-.055-.097-.048-.14.055-.191.417-.203.833-.412 1.245-.626.098-.052.138-.027.2.055.343.45.782.709 1.37.617.403-.064.72-.28.951-.61.073-.103.126-.114.235-.057.444.23.894.45 1.34.672-.462.947-1.237 1.465-2.256 1.65-.36.068-.715.034-1.072-.003z"/></g><g opacity=".5"><path fill="#fffafb" d="M71.926 31.44c.386.009.86.221 1.238.647.085.094.115.158-.008.252-.204.152-.395.32-.588.486-.074.064-.115.087-.196-.009-.356-.419-.817-.477-1.162-.16-.342.314-.361.967-.04 1.31.32.342.871.324 1.172-.062.106-.136.164-.116.276-.03.178.138.36.274.554.39.15.09.123.157.033.274-.485.615-1.36.863-2.125.59a1.897 1.897 0 0 1-1.24-1.822c.025-1.054.853-1.87 2.086-1.866z"/></g><g opacity=".5"><path fill="#fffafb" d="M20.815 31.574c.474 0 .948.003 1.42-.004.128-.002.176.03.17.165-.01.219-.009.438 0 .658.004.124-.044.157-.16.154-.213-.007-.427.016-.636-.007-.228-.025-.262.067-.258.268.012.708-.002 1.414.009 2.122.002.173-.053.217-.216.207a5.446 5.446 0 0 0-.658 0c-.166.01-.218-.041-.214-.211.009-.722-.002-1.442.009-2.164.001-.175-.04-.237-.222-.222-.231.015-.467 0-.7.005-.112.003-.15-.037-.147-.147a9.66 9.66 0 0 0-.002-.68c-.005-.128.05-.15.163-.148.48.005.96.004 1.442.004z"/></g><g opacity=".5"><path fill="#fffafb" d="M30.133 31.564c.474 0 .946.003 1.42-.004.126-.002.176.025.169.161a6.768 6.768 0 0 0 0 .657c.005.118-.032.16-.154.157-.234-.009-.467.005-.7-.005-.148-.007-.19.039-.188.187.007.727-.002 1.456.007 2.183.001.175-.043.237-.221.225a4.279 4.279 0 0 0-.657 0c-.187.016-.217-.059-.216-.227.01-.72-.001-1.441.01-2.161.001-.167-.041-.22-.21-.21-.224.015-.452-.004-.677.008-.145.007-.18-.048-.175-.182.01-.205.01-.41 0-.614-.007-.136.032-.182.175-.179.469.01.943.004 1.417.004z"/></g><g opacity=".5"><path fill="#fffafb" d="M59.236 31.566c.46 0 .92.008 1.378-.006.184-.005.23.053.216.227a5.519 5.519 0 0 0-.002.592c.003.117-.034.163-.158.16-.24-.01-.48.005-.72-.006-.14-.007-.178.04-.177.177.007.734-.001 1.47.007 2.204.002.161-.033.227-.208.215a5.757 5.757 0 0 0-.7 0c-.146.008-.178-.048-.176-.183.005-.734-.004-1.47.005-2.204.002-.168-.046-.22-.212-.21-.225.014-.453-.002-.678.005-.115.003-.166-.025-.16-.152.008-.22.008-.439 0-.657-.006-.129.031-.17.164-.166.474.009.946.004 1.42.004z"/></g><g opacity=".5"><path fill="#fffafb" d="M75.214 31.574c.467 0 .932.005 1.4-.004.14-.002.203.027.192.184-.014.21-.009.425-.002.635.005.12-.035.161-.157.158-.24-.007-.481.007-.72-.006-.145-.007-.177.046-.175.18.005.735-.002 1.47.007 2.205.001.166-.041.223-.21.21a4.78 4.78 0 0 0-.657 0c-.186.015-.218-.058-.216-.226.009-.72-.002-1.442.009-2.162.002-.171-.051-.217-.214-.207-.225.013-.453-.001-.678.006-.113.003-.168-.023-.163-.15.01-.22.011-.44 0-.657-.005-.131.034-.17.165-.168.472.005.946.002 1.419.002z"/></g><g opacity=".5"><path fill="#fffafb" d="M55.63 10.566c.02-.028.023-.084.082-.06"/></g><g opacity=".5"><path fill="#fffafb" d="M28.42 24.174c.005-.02-.004-.054.038-.041"/></g><g opacity=".5"><path fill="#fffafb" d="M.735 6.097C.735 4.222.74 2.347.73.472.73.284.774.24.962.24c2.271.007 4.543.007 6.812 0 .17 0 .229.03.225.214-.012.736-.01 1.472 0 2.208.004.175-.055.205-.214.203-1.387-.005-2.774.002-4.16-.009-.204-.001-.24.062-.234.245.012.51.009 1.019 0 1.528-.002.142.04.175.177.173 1.082-.005 2.165 0 3.248-.007.155-.001.201.03.2.197-.011.736-.01 1.472-.002 2.208.002.14-.036.173-.174.173-1.075-.005-2.15.003-3.226-.009-.197-.002-.229.057-.223.234.012.53.01 1.061 0 1.592-.002.147.033.187.184.185 1.4-.007 2.802 0 4.203-.008.177-.002.223.042.221.219-.01.736-.009 1.472 0 2.208.002.15-.042.186-.19.186-2.292-.006-4.585-.006-6.876.001-.18 0-.201-.065-.201-.22.005-1.887.003-3.776.003-5.664z"/></g><g opacity=".5"><path fill="#fffafb" d="M21.277 11.867c0 .998-.005 1.967.006 2.935.001.184-.052.216-.222.212a90.594 90.594 0 0 0-2.078-.001c-.138.002-.193-.018-.193-.177.005-3.65.005-7.3 0-10.949 0-.138.035-.175.173-.173 1.156.003 2.302-.04 3.457-.197 2.04-.277 4.067 1.012 4.541 3.3.312 1.5.014 2.869-1.054 4.008-.96 1.025-2.178 1.39-3.556 1.278a3.854 3.854 0 0 1-1.074-.236zm1.396-6.071a2.574 2.574 0 0 0-1.261.378c-.105.062-.14.133-.138.253.005.862.003 1.725.003 2.587 0 .488.025.522.485.692l.039.015c1.099.384 2.126-.01 2.52-.983a2.286 2.286 0 0 0-.11-2.022c-.328-.603-.855-.895-1.538-.92z"/></g><g opacity=".5"><path fill="#fffafb" d="M.77 17.18l1.264 1.072c1.233 1.05 2.468 2.096 3.698 3.149.116.1.175.073.276-.012 1.604-1.366 3.212-2.727 4.82-4.089.043-.037.089-.069.135-.104.067.04.035.104.035.152.002 2.71 0 5.42.005 8.129 0 .168-.053.193-.201.191a92.54 92.54 0 0 0-2.102 0c-.159.002-.212-.03-.21-.202.01-.891.005-1.783.005-2.675v-.245c-.313.242-.598.458-.88.677-.53.41-1.064.817-1.59 1.237-.12.095-.196.099-.318.001-.764-.605-1.536-1.202-2.305-1.802-.032-.025-.066-.048-.131-.094-.005.103-.01.175-.01.248 0 .884-.004 1.769.003 2.653.002.147-.02.207-.191.204-.715-.01-1.43-.007-2.144-.004-.112 0-.179.002-.179-.15.005-2.746.004-5.491.004-8.235 0-.018.005-.037.015-.101z"/></g><g opacity=".5"><path fill="#fffafb" d="M16.022 7.647c.536.28.964.653 1.176 1.23.396 1.074-.057 2.13-1.136 2.638-.734.346-1.521.467-2.323.502-1.109.05-2.218-.03-3.327-.035-.05 0-.1-.006-.149-.006-.37-.003-.37-.003-.37-.362 0-2.56.002-5.122-.003-7.682 0-.171.035-.216.214-.22 1.201-.033 2.4-.112 3.602-.07.729.027 1.442.15 2.112.469 1.548.736 1.43 2.754.289 3.466-.027.02-.052.044-.085.07zm-3.613 1.667c0 .24.004.481-.002.722-.001.093.016.14.126.138.41-.007.82.008 1.23-.007.472-.018.815-.278.891-.644.097-.473-.202-.908-.71-1.007-.475-.092-.958-.027-1.438-.046-.095-.004-.099.05-.097.12.002.243 0 .483 0 .724zm0-3.119v.678c0 .061-.014.137.085.134.428-.016.862.053 1.286-.05.405-.099.651-.378.66-.723.01-.365-.233-.665-.65-.779-.422-.115-.855-.038-1.284-.058-.111-.005-.097.074-.097.143v.655z"/></g><g opacity=".5"><path fill="#fffafb" d="M43.791 8.158l-5.854 3.986c-.053-.087-.032-.16-.032-.226-.001-2.661 0-5.32-.005-7.98 0-.169.028-.229.214-.225.694.012 1.387.01 2.08.002.177-.002.238.028.236.224-.013 1.14-.006 2.279-.006 3.416v.243c1.97-1.363 3.912-2.703 5.856-4.048.055.074.03.147.03.214.002 2.66 0 5.32.005 7.98 0 .175-.024.244-.226.24-.7-.015-1.401-.011-2.102-.003-.155.002-.201-.035-.2-.198.008-1.196.004-2.392.004-3.625z"/></g><g opacity=".5"><path fill="#fffafb" d="M33.452 8.319h-2.715c-.246 0-.25.005-.179.25.41 1.429 2.128 1.845 3.175.767a3.38 3.38 0 0 0 .222-.256c.192-.252.19-.253.463-.071.522.348 1.042.702 1.57 1.045.127.084.127.14.043.262a4.374 4.374 0 0 1-4.606 1.796c-1.684-.391-3.068-1.914-3.303-3.637a4.404 4.404 0 0 1 3.58-4.95c2.153-.398 4.278 1.08 4.65 3.235.08.462.1.926.055 1.393-.015.141-.062.171-.193.171-.924-.007-1.842-.005-2.762-.005zM30.54 6.847c1.108 0 2.196-.002 3.282.002.106 0 .111-.04.088-.127-.108-.41-.33-.736-.713-.924-.686-.336-1.365-.3-2.011.106-.341.214-.548.533-.646.943z"/></g><g opacity=".5"><path fill="#fffafb" d="M11.81 17.42c.801 0 1.587.015 2.369-.01.283-.008.412.08.523.338.577 1.333 1.179 2.654 1.771 3.977l.066.142c.042-.085.078-.149.106-.214.582-1.354 1.166-2.705 1.742-4.06.055-.128.114-.18.26-.179.82.009 1.639.004 2.458.004.02.099-.034.162-.064.231-1.59 3.634-3.18 7.268-4.768 10.905-.063.145-.138.193-.295.191-.826-.009-1.652-.003-2.512-.003l.37-.82c.424-.937.845-1.875 1.275-2.809a.407.407 0 0 0-.002-.375c-1.07-2.362-2.137-4.725-3.203-7.087-.034-.07-.06-.143-.096-.232z"/></g><g opacity=".5"><path fill="#fffafb" d="M.734 35.21c0-1.206.001-2.36-.004-3.51 0-.121.044-.14.149-.137.261.005.523.009.785-.002.133-.005.166.036.163.167-.009.417-.004.835-.002 1.252 0 .067-.02.138.028.225l2.47-1.695c.08.044.046.108.046.157.002 1.09-.002 2.178.005 3.268.002.166-.051.216-.203.193-.048-.007-.1.002-.149-.002-.244-.012-.582.104-.71-.044-.123-.144-.036-.47-.04-.717-.002-.28 0-.559 0-.874L.734 35.21z"/></g><g opacity=".5"><path fill="#fffafb" d="M42.57 2.802c-1.133-.053-2.03-.515-2.63-1.51-.09-.148-.057-.206.088-.275.395-.186.786-.38 1.173-.584.106-.055.147-.035.216.055.662.854 1.663.85 2.323-.005.07-.092.117-.105.22-.052.4.21.802.413 1.211.605.133.062.138.114.067.232-.6 1.01-1.509 1.48-2.667 1.534z"/></g></g></g></svg>