<svg xmlns="http://www.w3.org/2000/svg" width="81" height="33" viewBox="0 0 81 33"><g><g opacity=".5"><g opacity=".5"><path fill="#fff" d="M.32 21.433c.68-.813 1.364-1.623 2.036-2.44.119-.144.18-.158.317-.018.84.841 1.798 1.507 2.968 1.811.805.21 1.622.277 2.431.018.604-.192.918-.575.94-1.086.017-.385-.127-.681-.457-.892-.634-.402-1.336-.667-2.026-.95-1.056-.432-2.119-.847-3.077-1.478-.866-.57-1.61-1.25-1.915-2.27-.634-2.125-.049-4.635 2.81-5.723 1.205-.46 2.462-.543 3.735-.43 1.645.147 3.11.722 4.343 1.834.173.157.442.299.464.497.02.187-.242.353-.384.527-.544.665-1.097 1.323-1.638 1.99-.103.128-.155.142-.289.022-1.057-.942-2.284-1.447-3.724-1.365-.25.014-.497.057-.73.147-.376.144-.614.404-.663.811-.048.403.103.722.442.948.519.347 1.108.547 1.677.788 1.088.458 2.2.863 3.212 1.482.82.501 1.562 1.082 1.984 1.976.996 2.102.165 4.66-1.923 5.921-1.06.64-2.222.916-3.449.964-1.493.058-2.94-.13-4.308-.77-1.117-.522-2.017-1.304-2.774-2.262-.002-.02-.002-.036-.002-.052z"/></g><g opacity=".5"><path fill="#fff" d="M25.844.124c-.046.092-.022.188-.022.283-.002 5.416-.002 10.832-.002 16.248 0 1.616 1.094 2.822 2.712 2.976.16.016.196.056.196.207-.006 1.362-.006 2.725.002 4.085 0 .177-.057.213-.22.207-2.7-.124-4.76-1.34-6.183-3.61-.732-1.167-1.047-2.464-1.047-3.838.002-5.48 0-10.961.002-16.442 0-.04.006-.08.008-.12 1.52.004 3.037.004 4.554.004z"/></g><g opacity=".5"><path fill="#fff" d="M81.002 28.453l-.001 3.933c-2.478.116-4.524-.82-6.231-2.553-1.126-1.144-1.879-2.488-2.171-4.073a7.669 7.669 0 0 1-.13-1.41c.002-3.157.006-6.315-.002-9.473-.002-1.078-.367-2.004-1.315-2.607-1.576-1.006-4.31-.399-4.641 2.118-.03.23-.039.463-.039.695 0 2.926-.004 5.851.007 8.777 0 .24-.07.279-.291.277a274.484 274.484 0 0 0-3.85-.002c-.17 0-.23-.025-.228-.217.006-5.138.006-10.276 0-15.413 0-.189.057-.219.228-.217 1.187.008 2.373.01 3.56-.002.2-.002.24.06.233.243-.014.374-.004.75-.004 1.17.436-.407.872-.743 1.362-1.002 1.201-.633 2.49-.832 3.834-.75 1.203.075 2.31.407 3.265 1.163 1.144.904 1.778 2.104 2.056 3.509.113.567.154 1.142.154 1.719v9.714c0 2.006 1.598 3.924 3.583 4.3.206.04.414.069.622.1z"/></g><g opacity=".5"><path fill="#fff" d="M39.072 16.228c.662 0 1.324.006 1.985-.004.172-.002.224.03.235.218.084 1.75.849 3.114 2.516 3.765 2.776 1.083 5.4-.705 5.678-3.378.171-1.637-.283-3.04-1.592-4.11-.664-.543-1.441-.801-2.295-.83-.167-.005-.193-.057-.193-.206.006-1.186.008-2.372-.002-3.559-.002-.178.056-.206.218-.204 2.358.028 4.354.896 6.007 2.557 1.132 1.136 1.93 2.459 2.21 4.048.518 2.97-.223 5.548-2.467 7.642-1.354 1.267-2.936 2.06-4.796 2.275-3.979.456-7.11-1.29-8.904-4.575-.582-1.066-.803-2.234-.832-3.443-.004-.152.033-.204.198-.202.678.012 1.356.006 2.034.006z"/></g></g></g></svg>