<svg xmlns="http://www.w3.org/2000/svg" width="33" height="49" viewBox="0 0 33 49"><g><g opacity=".5"><g opacity=".5"><path fill="#fdfdfd" d="M22.21 37.78c-2.082.002-4.096-.315-5.988-1.233-2.251-1.09-3.894-2.8-5.077-4.98-.078-.142-.056-.2.077-.28 1.325-.781 2.652-1.563 3.968-2.36.207-.124.251-.023.333.125.665 1.204 1.507 2.266 2.697 2.98 2.22 1.335 4.571 1.656 7.015.676 2.03-.812 2.239-3.38.521-4.539a7.157 7.157 0 0 0-1.796-.89c-1.974-.646-3.988-1.162-5.952-1.838-.948-.326-1.864-.722-2.722-1.245-1.772-1.082-2.856-2.616-3.056-4.713-.212-2.215.276-4.23 1.812-5.904 1.102-1.207 2.503-1.943 4.074-2.313 3.49-.823 6.863-.565 10.024 1.262 1.476.854 2.637 2.048 3.607 3.44.128.182.09.272-.071.393-1.17.883-2.34 1.765-3.493 2.665-.224.176-.318.114-.454-.075-.955-1.324-2.142-2.369-3.69-2.939-1.472-.542-2.971-.705-4.487-.172-.93.327-1.586.922-1.729 1.934-.151 1.075.288 1.899 1.185 2.502 1.005.678 2.156.973 3.292 1.315 1.809.543 3.652.98 5.393 1.734.738.32 1.434.716 2.101 1.166 1.583 1.07 2.371 2.593 2.654 4.449.553 3.624-1.777 6.94-5.267 8.076a15.51 15.51 0 0 1-4.97.763z"/></g><g opacity=".5"><path fill="#fdfdfd" d="M.6 44.216c0-2.21 1.77-3.96 4.001-3.956 2.209.003 3.984 1.762 3.984 3.946a4.029 4.029 0 0 1-4.04 4.051C2.384 48.254.6 46.427.6 44.216z"/></g><g opacity=".5"><path fill="#fdfdfd" d="M.6 14.287c.003-2.196 1.757-3.937 3.978-3.947 2.222-.01 4.007 1.754 4.007 3.956 0 2.212-1.797 4.04-3.982 4.052C2.415 18.36.597 16.516.6 14.287z"/></g><g opacity=".5"><path fill="#fdfdfd" d="M.6 4.302C.602 2.079 2.37.357 4.646.36a3.953 3.953 0 0 1 3.94 3.953c-.002 2.23-1.808 4.05-4.016 4.044C2.382 8.35.598 6.527.6 4.302z"/></g><g opacity=".5"><path fill="#fdfdfd" d="M.6 34.247c-.002-2.193 1.761-3.953 3.973-3.967 2.213-.014 4.014 1.765 4.012 3.967-.001 2.218-1.802 4.04-3.995 4.04-2.194 0-3.988-1.817-3.99-4.04z"/></g><g opacity=".5"><path fill="#fdfdfd" d="M4.587 28.317C2.404 28.318.602 26.494.6 24.279a3.96 3.96 0 0 1 3.993-3.969c2.228.01 3.995 1.768 3.992 3.975-.003 2.207-1.81 4.03-3.998 4.032z"/></g></g></g></svg>