<svg xmlns="http://www.w3.org/2000/svg" width="53" height="53" viewBox="0 0 53 53"><g><g opacity=".5"><g opacity=".5"><g opacity=".5"><path fill="#f0f0f0" d="M26.47 52.393c-8.14-.186-14.866-3.32-20.072-9.565-2.67-3.203-4.413-6.873-5.29-10.926-.48-2.21-.713-4.459-.563-6.732C1.1 16.935 4.67 10.3 11.331 5.342c2.744-2.042 5.831-3.415 9.179-4.209 2.544-.603 5.125-.85 7.722-.66 5.129.373 9.803 2.06 13.884 5.175 5.114 3.904 8.397 9.012 9.784 15.27a24.52 24.52 0 0 1 .568 6.733c-.272 4.759-1.678 9.152-4.324 13.128-2.277 3.422-5.217 6.168-8.81 8.222-2.505 1.433-5.183 2.387-8.009 2.959-.458.093-.92.19-1.385.222-1.15.079-2.296.305-3.47.211zm-.241-51.198c-1.638-.097-3.567.159-5.446.614C14.73 3.278 9.802 6.492 6.145 11.501 2.36 16.692.796 22.511 1.407 28.902c.162 1.7.48 3.362.988 4.987 1.579 5.056 4.47 9.23 8.676 12.496 3.694 2.867 7.876 4.56 12.545 5.095 2.224.254 4.445.243 6.644-.082a24.476 24.476 0 0 0 7.355-2.298c3.464-1.724 6.4-4.088 8.776-7.135 3.495-4.48 5.22-9.57 5.359-15.207.024-.992-.044-1.978-.151-2.968a25.517 25.517 0 0 0-.918-4.623c-1.38-4.591-3.866-8.48-7.48-11.674-1.67-1.475-3.48-2.725-5.482-3.702-3.521-1.718-7.232-2.65-11.49-2.596z"/></g><g opacity=".5"><path fill="#f0f0f0" d="M41.988 26.409c.087 6.907-4.601 12.968-11.008 14.847-2.084.61-4.197.808-6.382.525-4.767-.62-8.403-2.983-11.058-6.874-1.269-1.858-2.021-3.933-2.334-6.177-.624-4.458.402-8.487 3.206-12.013 2.238-2.813 5.157-4.648 8.703-5.438 7.965-1.776 15.812 2.843 18.215 10.559.46 1.478.696 2.69.658 4.57zM26.547 11.974c-7.677-.114-14.432 6.084-14.5 14.308-.068 8.414 6.785 14.531 14.329 14.589 7.714.058 14.532-6.028 14.594-14.328.066-8.487-6.812-14.644-14.423-14.569z"/></g><g opacity=".5"><path fill="#f0f0f0" d="M29.767 2.976c1.334-.142 1.662.658 1.841 1.706.217 1.264.549 2.51.905 3.773a37.38 37.38 0 0 0 .995-3.749l-.41-.258c-.093-.222.03-.416.022-.668.744-.015 1.366.246 2.066.45-.078.338-.014.713-.541.685-.304-.015-.336.232-.385.43a724.095 724.095 0 0 0-1.155 4.849c-.044.183-.074.364-.281.508-.204-.068-.434-.14-.71-.232L30.92 5.317l-.153-.006-.872 3.538c.015.375.235.332.375.463.128.21-.019.422-.057.68-.695-.054-1.313-.249-1.935-.411-.16-.207-.09-.41-.021-.596.171-.228.413-.108.705-.13l1.212-4.887c-.492-.392-.492-.392-.407-.992z"/></g><g opacity=".5"><path fill="#f0f0f0" d="M18.027 42.57c-.445-.138-.526-.409-.288-.84.471.017.899.258 1.389.433.081 1.18.305 2.369.222 3.693 1.043-.826 1.759-1.83 2.654-2.665.488.072.896.276 1.307.467-.18.483-.18.483-.728.58-.394 1.138-.788 2.302-1.206 3.458-.115.32-.298.583.066.89.128.11.041.415-.159.64l-1.542-.563a.584.584 0 0 1 .023-.543c.17-.181.424.043.64-.152.34-.973.725-1.981.862-3.087-.5.566-.993 1.136-1.502 1.694-.226.248-.452.557-.931.256l-.305-2.572c-.549.351-.522.887-.7 1.313-.19.454-.354.919-.53 1.378.26.26.587.495.165.918-.556-.182-1.148-.331-1.682-.617-.04-.59.423-.504.771-.553.5-1.382.982-2.743 1.474-4.127z"/></g><g opacity=".5"><path fill="#f0f0f0" d="M37.479 6.572c.03-.344-.228-.407-.25-.615.012-.224.199-.353.325-.517.112.024.217.022.29.07.785.502 1.57 1.002 2.342 1.525.81.547.927 1.141.384 1.98-.724 1.117-1.468 2.22-2.205 3.328a3.13 3.13 0 0 1-.164.226c-.488.613-.946.742-1.62.34-.929-.556-1.82-1.175-2.721-1.761.279-.644.279-.644.865-.461l2.754-4.115zm.897.297c-.972 1.462-1.919 2.884-2.876 4.326.582.461 1.106.825 1.773 1.115 1.02-1.377 1.92-2.8 2.843-4.248-.517-.493-1.103-.812-1.74-1.193z"/></g><g opacity=".5"><path fill="#f0f0f0" d="M22.705 3.84c-.554.06-.712-.211-.654-.714.654-.076 1.325-.157 1.995-.235.23.2.214.437.173.661-.115.2-.337.172-.543.34.087 1.664.236 3.368.505 5.099.74-.07 1.378-.133 2.104-.204.119-1.725-.274-3.39-.35-5.016-.17-.303-.463-.017-.613-.23-.144-.18-.155-.385-.068-.66.65-.276 1.357-.19 2.034-.183.158.23.154.44.126.643-.126.198-.379.028-.507.192-.02.054-.062.11-.059.165.13 1.479.264 2.956.396 4.436.017.185.036.373.019.556-.047.51-.373.891-.886.906-.6.017-1.178.151-1.77.198-.842.066-1.336-.015-1.466-1.233-.076-.706-.162-1.417-.185-2.123-.026-.84-.166-1.663-.25-2.598z"/></g><g opacity=".5"><path fill="#f0f0f0" d="M36.641 40.537a5.142 5.142 0 0 1 1.39-.917c.197.1.295.25.35.413.04.228-.315.258-.238.504l2.75 4.176c-.556.484-.565.503-1.036.238-1.056-.594-2.1-1.207-3.146-1.814-.102-.06-.188-.166-.42-.037.537.807 1.07 1.613 1.611 2.413.089.13.217.189.402.15.328-.072.414.182.52.451-.379.45-.958.645-1.384 1.024-.5-.291-.478-.618-.079-.966-.733-1.1-1.434-2.155-2.139-3.21-.138-.206-.262-.424-.59-.324-.407.126-.373-.295-.622-.452l1.127-.726 3.855 2.172c-.362-.954-.913-1.744-1.463-2.533-.1-.142-.249-.14-.42-.104-.366.078-.381-.215-.468-.458z"/></g><g opacity=".5"><path fill="#f0f0f0" d="M12.123 8.575c.16.57.519.812.722 1.156.108.181.241.366.5.47.31.025.53-.218.774-.397.302-.22.588-.465.9-.673.47-.314.923-.293 1.326.168.45.516.886 1.05 1.27 1.614.342.5.302.837-.165 1.233-.756.639-1.56 1.221-2.398 1.87l-1.163-1.444c.134-.27.37-.404.605-.534.343.138.396.549.74.741.591-.261 1.002-.78 1.564-1.108-.162-.782-.747-1.195-1.067-1.705-.341-.118-.55-.02-.758.151-.313.258-.631.512-.967.74-.622.422-1.084.374-1.562-.177a13.9 13.9 0 0 1-.977-1.252c-.418-.612-.348-1.06.232-1.53.701-.564 1.427-1.098 2.202-1.688.32.532.842.867.987 1.436-.079.271-.256.385-.473.47-.315-.104-.405-.458-.722-.63-.603.224-.995.764-1.57 1.089z"/></g><g opacity=".5"><path fill="#f0f0f0" d="M22.004 9.356c-.02.45-.18.807-.533.975-.615.295-1.246.58-1.902.758-.722.198-1.127-.016-1.429-.713a119.874 119.874 0 0 1-1.692-4.107c-.287-.73-.093-1.194.603-1.53.53-.258 1.076-.486 1.632-.68.648-.226 1.184-.022 1.468.62.626 1.41 1.2 2.845 1.785 4.272.055.138.051.302.068.405zm-.82.14c-.652-1.58-1.282-3.1-1.907-4.617-.8.002-1.361.398-1.96.635.022.809 1.436 4.24 1.982 4.84.58-.24 1.203-.411 1.885-.858z"/></g><g opacity=".5"><path fill="#f0f0f0" d="M34.588 48.386l-1.711.39c-.319-.35-.072-.637.054-.958l-.46-.88c-.539-.07-.99.16-1.483.282-.22.372-.08.775-.145 1.177l.473.106c.14.198.149.4.057.637l-1.572.404c-.057-.288-.342-.56.165-.787.229-.1.117-.394.127-.601.066-1.608.128-3.217.19-4.855l1.001-.291c.756 1.37 1.495 2.723 2.254 4.066.168.295.236.693.771.665.234-.015.277.35.28.645zm-3.68-1.928c.453-.114.859.006 1.126-.396-.382-.568-.543-1.266-1.125-1.86v2.256z"/></g><g opacity=".5"><path fill="#f0f0f0" d="M16.004 41.896c-.722.895-1.442 1.793-2.18 2.677-.538.642-1.026.691-1.695.192-.35-.261-.701-.525-1.018-.82-.54-.502-.579-.86-.147-1.464.324-.454.695-.876 1.048-1.311.43-.533.848-1.076 1.299-1.59.552-.627 1.055-.667 1.707-.17.323.245.635.503.952.755.262.207.422.46.38.809.057.366-.13.653-.346.922zm-3.15 2.542c1.009-1.193 1.974-2.295 2.822-3.545-.547-.394-.873-.917-1.542-1.046-.888 1.145-1.907 2.173-2.674 3.445.475.388.876.719 1.394 1.146z"/></g><g opacity=".5"><path fill="#f0f0f0" d="M24.465 48.995c.185-.189.402-.045.505-.304v-4.233c-.08-.19-.367-.037-.47-.287-.035-.137-.042-.316.216-.525.786 0 1.662-.043 2.533.013.854.054 1.15.431 1.078 1.287-.034.4-.094.795-.105 1.199-.015.527-.275.782-.818.81-.524.027-1.05.006-1.608.006v1.868c.106.222.777.097.435.719-.505.125-1.095.01-1.658.047-.232-.189-.14-.406-.108-.6zm1.339-4.62v1.794h1.664c-.174-.626.362-1.253-.157-1.795h-1.507z"/></g><g opacity=".5"><path fill="#f0f0f0" d="M44.693 39.831c.119-.099.237-.2.362-.302.194.097.358.228.497.463-.346.444-.703.9-1.055 1.354-.24-.1-.534-.23-.47-.433.159-.5-.205-.647-.473-.886-.672-.605-1.441-.945-2.369-.93-.275.006-.548-.108-.827-.15-.383-.057-.75-.042-.948.34-.26-.095-.447-.197-.53-.489l1.048-1.354c.424.054.57.277.535.67.536.118 1.058.337 1.648.199-.21-.473-.407-.923-.605-1.368-.219-.2-.306.16-.49.107-.195-.054-.302-.196-.468-.394l1.046-1.4c.29-.063.345.236.65.23-.239.438-.35.81-.084 1.18.071.098.115.218.166.33.772 1.733.772 1.733 2.367 2.833z"/></g><g opacity=".5"><path fill="#f0f0f0" d="M13.236 37.803c-.403.362-.76.648-1.15.812-.271-.05-.347-.231-.46-.39.021-.321.4-.362.556-.72l-.927-1.28c-.816.192-1.304.797-1.913 1.2-.615.408-1.261.792-1.764 1.379.28.48.552.926.92 1.274.356.108.524-.226.787-.262.289.019.315.279.506.428-.366.458-.854.676-1.312 1.035a22.523 22.523 0 0 1-1.667-2.25c-.16-.24-.124-.485.051-.688.183-.21.387-.41.611-.576.93-.685 1.864-1.361 2.805-2.032.833-.594 1.14-.538 1.76.325.392.553.873 1.05 1.197 1.745z"/></g><g opacity=".5"><path fill="#f0f0f0" d="M7.86 28.836l-1.406-.93c-.703.054-1.07.723-1.76.749l.514-1.566c-.334-.506-.903-.706-1.348-1.182.614-.213 1.203.037 1.785-.132l.714-1.745.637 1.694h1.895l-1.44 1.304c.132.586.258 1.147.409 1.808z"/></g><g opacity=".5"><path fill="#f0f0f0" d="M49.21 25.734c-.46.571-1.034.822-1.396 1.365l.353 1.573c-.364.013-.532-.245-.762-.368-.217-.118-.418-.267-.63-.404-.59.096-.978.553-1.541.783-.126-.596.279-1.066.296-1.623-.304-.463-.867-.67-1.28-1.119.577-.261 1.17.026 1.72-.157.338-.478.359-1.11.787-1.664l.6 1.614h1.854z"/></g><g opacity=".5"><path fill="#fafafa" d="M37.014 23.717h-1.565c-.203-.286-.052-.614-.133-.906-.159-.562-.517-.928-1.088-1.029a1.159 1.159 0 0 0-1.216.538c-.23.364-.271.809-.267 1.253.015 1.586.005 3.172.005 4.758 0 .342-.01.683.004 1.025.008.215.023.435.074.643.171.711.686 1.115 1.32 1.057a1.302 1.302 0 0 0 1.185-1.24c.043-.774.01-1.55.01-2.35-.451-.241-.938-.028-1.437-.163-.102-.455-.051-.93-.036-1.441H37c.155.306.078.618.082.918.01 1.058-.008 2.115.002 3.172.015 1.726-1.497 2.843-2.944 2.856-1.309.011-2.63-.745-3.005-2.045-.07-.245-.11-.48-.11-.729 0-2.394.014-4.789-.005-7.183-.011-1.465 1.287-2.796 2.876-2.83 1.423-.03 2.688.7 3.075 2.066.041.147.086.299.092.45.011.37.08.743-.05 1.18z"/></g><g opacity=".5"><path fill="#fafafa" d="M29.686 23.682h-1.66c-.226-.297-.119-.594-.183-.86-.149-.632-.42-.974-1.12-1.054-.574-.066-1.078.293-1.262.902-.157.512-.132 1.053-.029 1.565.093.46.502.686.916.856.46.186.913.4 1.386.547 1.445.452 1.962 1.51 1.98 2.906.012.744.023 1.481-.184 2.214-.368 1.296-1.387 2.05-2.575 2.02-.495-.013-.984.03-1.483-.13-1.306-.422-2.317-1.907-1.911-3.418h1.649c.21.242.073.54.124.805.136.689.596 1.053 1.335 1.021.712-.03 1.067-.356 1.168-1.068.076-.527.042-1.053.029-1.58-.014-.534-.285-.865-.758-1.063-.458-.192-.914-.385-1.376-.566-1.744-.684-2.217-1.584-2.175-3.749.005-.332.094-.674.205-.991.417-1.18 1.32-2.11 3.097-2.012 1.336.073 2.356.805 2.761 2.101.166.512.104 1.028.066 1.554z"/></g><g opacity=".5"><path fill="#fafafa" d="M20.106 32.715h-1.602c-.866-4.208-1.725-8.385-2.594-12.617h1.911l1.361 8.173c.812-2.669 1.076-5.422 1.62-8.1.33-.195.65-.092.953-.109.307-.016.616-.003.97-.003l-2.62 12.656z"/></g></g></g></g></svg>