<svg xmlns="http://www.w3.org/2000/svg" width="21" height="21" viewBox="0 0 21 21"><g><g><g/><g><path fill="#fff" d="M14.346 2.121c.976.044 1.504.207 1.857.346.468.182.801.397 1.15.746.35.35.568.683.747 1.151.135.353.301.881.345 1.857.047 1.056.06 1.37.06 4.041 0 2.671-.013 2.985-.06 4.04-.044.977-.206 1.505-.345 1.858a3.104 3.104 0 0 1-.746 1.151c-.35.35-.683.568-1.151.746-.353.135-.881.302-1.857.345-1.056.048-1.37.06-4.04.06s-2.984-.012-4.04-.06c-.976-.043-1.504-.206-1.857-.345a3.102 3.102 0 0 1-1.15-.746 3.055 3.055 0 0 1-.747-1.151c-.135-.353-.301-.881-.345-1.858-.047-1.055-.06-1.369-.06-4.04 0-2.671.013-2.985.06-4.04.044-.977.206-1.505.345-1.858.183-.468.397-.802.746-1.151.35-.35.683-.568 1.151-.746.353-.135.881-.302 1.857-.346 1.056-.051 1.373-.06 4.04-.06 2.67 0 2.984.013 4.04.06zM10.306.26C7.592.26 7.25.272 6.183.32 5.12.367 4.393.538 3.758.784c-.658.254-1.214.6-1.77 1.155a4.96 4.96 0 0 0-1.154 1.77C.588 4.344.417 5.07.37 6.14.322 7.201.31 7.542.31 10.257s.012 3.056.06 4.124c.047 1.064.218 1.79.464 2.429.254.659.599 1.214 1.155 1.77a4.958 4.958 0 0 0 1.77 1.155c.634.246 1.36.417 2.428.465 1.067.047 1.405.059 4.123.059s3.056-.012 4.123-.06c1.063-.047 1.79-.218 2.429-.464a4.871 4.871 0 0 0 1.77-1.155 4.959 4.959 0 0 0 1.154-1.77c.246-.635.417-1.361.464-2.43.048-1.067.06-1.404.06-4.123 0-2.719-.012-3.056-.06-4.124-.047-1.064-.218-1.79-.464-2.429a4.873 4.873 0 0 0-1.155-1.77A4.957 4.957 0 0 0 16.861.78c-.634-.246-1.36-.417-2.428-.464C13.362.272 13.02.26 10.306.26z"/></g><g><path fill="#fff" d="M15.44 10.266a5.134 5.134 0 0 1-5.135 5.136 5.136 5.136 0 0 1 0-10.272 5.134 5.134 0 0 1 5.135 5.136zm-1.802-.004a3.333 3.333 0 1 0-6.666-.002 3.333 3.333 0 0 0 6.666.002z"/></g><g><path fill="#fff" d="M15.638 6.117a1.199 1.199 0 1 0 0-2.397 1.199 1.199 0 0 0 0 2.397z"/></g></g></g></svg>