<svg xmlns="http://www.w3.org/2000/svg" width="104" height="37" viewBox="0 0 104 37"><g><g opacity=".5"><g opacity=".5"><g opacity=".5"><g opacity=".5"><g opacity=".5"><path fill="#fff" d="M8.28 12.284l.037-.064"/></g><g opacity=".5"><path fill="#fff" d="M8.05 12.677l.037-.067"/></g><g opacity=".5"><path fill="#fff" d="M6.68 10.794l.113-.174"/></g><g opacity=".5"><path fill="#fff" d="M8.51 11.908l.067-.108"/></g><g opacity=".5"><path fill="#fff" d="M8.58 11.798l.072-.108"/></g><g opacity=".5"><path fill="#fff" d="M8.67 11.693l.077-.103"/></g><g opacity=".5"><path fill="#fff" d="M6.57 10.979l.108-.179"/></g><g opacity=".5"><path fill="#fff" d="M6.79 10.623l.066-.113"/></g><g opacity=".5"><path fill="#fff" d="M6.88 10.513l.071-.113"/></g><g opacity=".5"><path fill="#fff" d="M6.93 10.398l.072-.108"/></g><g opacity=".5"><path fill="#fff" d="M7 10.293l.072-.103"/></g><g opacity=".5"><path fill="#fff" d="M7.07 10.189l.072-.099"/></g><g opacity=".5"><path fill="#fff" d="M11.19 8.877l.099-.067"/></g><g opacity=".5"><path fill="#fff" d="M7.14 10.092l.108-.152"/></g><g opacity=".5"><path fill="#fff" d="M7.25 9.939l.05-.089"/></g><g opacity=".5"><path fill="#fff" d="M7.94 9.045l.116-.135"/></g><g opacity=".5"><path fill="#fff" d="M11.36 8.734l.099-.064"/></g><g opacity=".5"><path fill="#fff" d="M7.37 9.764l.045-.054"/></g><g opacity=".5"><path fill="#fff" d="M8.44 12.023l.076-.113"/></g><g opacity=".5"><path fill="#fff" d="M8.44 12.02l-.04.094"/></g><g opacity=".5"><path fill="#fff" d="M7.48 9.624l.05-.054"/></g><g opacity=".5"><path fill="#fff" d="M7.59 9.484l.077-.094"/></g><g opacity=".5"><path fill="#fff" d="M7.78 9.264l.05-.054"/></g><g opacity=".5"><path fill="#fff" d="M18.376.28l.071 1.712h.224a16.346 16.346 0 0 1 11.18 4.402l.239-.2.959-1.021A18 18 0 0 0 18.67.28zm16.657 17.484v.55a16.249 16.249 0 0 1-4.402 11.14l1.202 1.238a17.955 17.955 0 0 0 4.904-12.366v-.603zm-15.88 16.86h-.484a16.307 16.307 0 0 1-11.09-4.325l-1.084 1.342a18.017 18.017 0 0 0 12.176 4.7h.534zM2.313 19.134v-.824a16.25 16.25 0 0 1 4.74-11.485L5.84 5.614A17.952 17.952 0 0 0 .62 18.324v.895z"/></g><g opacity=".5"><path fill="#fff" d="M21.88 2.77a15.906 15.906 0 0 1 10.834 8.032l-1.475.895a14.22 14.22 0 0 0-9.705-7.25zm11.306 22.056a15.901 15.901 0 0 1-10.31 8.805l-.447-1.656a14.206 14.206 0 0 0 9.265-7.993zM9.334 31.163a16.453 16.453 0 0 1-1.906-1.623A15.824 15.824 0 0 1 2.78 18.923l1.716-.067a14.082 14.082 0 0 0 4.147 9.472c.509.51 1.054.979 1.637 1.406zM2.77 18.27A15.806 15.806 0 0 1 8.581 6.047l1.22 1.216c-.403.326-.79.672-1.156 1.038a14.078 14.078 0 0 0-4.154 9.972z"/></g><g opacity=".5"><path fill="#fff" d="M24.558 7.689a12.153 12.153 0 0 1 6.276 10.215l1.715-.06A13.868 13.868 0 0 0 25.376 6.19zm.663 20.82a12.18 12.18 0 0 1-12.357.446l-.708 1.565a13.903 13.903 0 0 0 14.031-.582zM6.536 18.724v-.412a12.053 12.053 0 0 1 3.56-8.57 12.01 12.01 0 0 1 2.497-1.917l-.996-1.405c-.988.59-1.9 1.3-2.716 2.111a13.778 13.778 0 0 0-4.061 9.781v.446z"/></g><g opacity=".5"><path fill="#fff" d="M27.867 10.988a11.712 11.712 0 0 1 .528 13.948l-1.398-.988a10.013 10.013 0 0 0-.448-11.851zm-12.43 18.61A11.75 11.75 0 0 1 6.92 18.764l1.716-.064A10.042 10.042 0 0 0 16 27.98zM6.92 18.289A11.74 11.74 0 0 1 15.025 7.16l.538 1.619a10.05 10.05 0 0 0-6.93 9.513z"/></g><g opacity=".5"><path fill="#fff" d="M18.533 10.419l-.032.215c-4.184.089-7.53 3.5-7.528 7.677v.292l-1.713.066v-.358c0-5.119 4.105-9.295 9.233-9.391zm.398 15.576c4.152-.14 7.446-3.54 7.446-7.684v-.027h1.716v.032c.002 5.101-4.08 9.273-9.194 9.39z"/></g><g opacity=".5"><path fill="#fff" d="M18.678 11.16a7.172 7.172 0 0 1 3.169.748l-.757 1.526a5.46 5.46 0 0 0-7.306 2.472 5.435 5.435 0 0 0 2.478 7.286c1.79.88 3.918.719 5.55-.426l.876 1.48a7.184 7.184 0 0 1-9.959-1.924 7.147 7.147 0 0 1 1.93-9.936 7.155 7.155 0 0 1 4.02-1.226z"/></g><g opacity=".5"><path fill="#fff" d="M18.678 13.36a4.973 4.973 0 0 1 4.931 4.545l-1.713.142a3.248 3.248 0 0 0-3.481-2.995 3.247 3.247 0 0 0-3.012 3.262v.12l-1.713.064v-.184a4.975 4.975 0 0 1 4.988-4.954z"/></g><g opacity=".5"><path fill="#fff" d="M18.673 15.57a2.745 2.745 0 0 1 2.756 2.732 2.745 2.745 0 0 1-2.738 2.752 2.754 2.754 0 0 1-2.744-2.44l1.699-.224c.054.567.555.981 1.123.93a1.03 1.03 0 0 0 .934-1.023 1.006 1.006 0 0 0-.277-.711 1.034 1.034 0 0 0-.753-.314c-.272 0-.535.11-.725.304-.196.19-.31.449-.314.721l-1.704-.086a2.744 2.744 0 0 1 2.743-2.641z"/></g></g><g opacity=".5"><path fill="#fff" d="M41.078 12.4a2.896 2.896 0 0 0 .615 1.927c.388.471.976.736 1.588.716.6.035 1.182-.216 1.568-.674a2.94 2.94 0 0 0 .556-1.918 2.949 2.949 0 0 0-.578-1.928 1.986 1.986 0 0 0-1.595-.694 1.96 1.96 0 0 0-1.584.672 2.829 2.829 0 0 0-.57 1.898zm.06-8.82V9.8c.196-.481.547-.88 1-1.14a3.206 3.206 0 0 1 1.644-.403 3.138 3.138 0 0 1 2.547 1.15 4.503 4.503 0 0 1 .969 3.01 4.656 4.656 0 0 1-.969 3.095 3.226 3.226 0 0 1-2.608 1.13 2.965 2.965 0 0 1-2.579-1.341v1.01H39.35V3.58zm8.116 12.746V3.58h1.792v12.746zm11.697 0h-1.792v-1.01a2.962 2.962 0 0 1-2.579 1.341 3.233 3.233 0 0 1-2.608-1.13 4.676 4.676 0 0 1-.951-3.096 4.46 4.46 0 0 1 .973-3.009 3.144 3.144 0 0 1 2.537-1.15 3.236 3.236 0 0 1 1.637.397c.448.263.797.665.99 1.145V8.532h1.793zm-1.74-3.927a2.85 2.85 0 0 0-.566-1.883 2.189 2.189 0 0 0-3.088-.066l-.086.088a2.934 2.934 0 0 0-.582 1.928 2.93 2.93 0 0 0 .56 1.918 2.114 2.114 0 0 0 3.14-.06 2.93 2.93 0 0 0 .61-1.927h.011zm7.903-2.575a2.285 2.285 0 0 0-1.758.707 2.633 2.633 0 0 0-.649 1.873 2.683 2.683 0 0 0 .664 1.91c.484.482 1.15.734 1.834.695.4.007.799-.076 1.165-.24.354-.172.659-.425.897-.739v2.058a4.222 4.222 0 0 1-1.057.42 4.952 4.952 0 0 1-1.202.14 4.05 4.05 0 0 1-3.004-1.153c-.782-.81-1.2-1.901-1.155-3.024a4.013 4.013 0 0 1 1.197-3.037 4.315 4.315 0 0 1 3.137-1.157c.376-.003.75.036 1.116.12.334.076.658.201.958.368v1.984a2.832 2.832 0 0 0-2.143-.925zm3.972 6.502V3.58h1.792v8.18l3.268-3.23h2.21l-3.545 3.433 3.881 4.36H76.39l-3.51-4.022v4.025zm14.856-3.873a2.597 2.597 0 0 0-.698-1.837 2.317 2.317 0 0 0-3.425 0 2.586 2.586 0 0 0-.703 1.837 2.582 2.582 0 0 0 .703 1.837 2.32 2.32 0 0 0 3.275.145c.051-.047.098-.096.145-.145a2.612 2.612 0 0 0 .703-1.837zm-6.726 0a4.197 4.197 0 0 1 2.65-3.862c1.06-.42 2.24-.42 3.299 0 .524.21.998.524 1.399.922a4.136 4.136 0 0 1 .941 4.562 3.954 3.954 0 0 1-.924 1.341c-.41.397-.895.714-1.426.93a4.333 4.333 0 0 1-5.617-2.281 4.067 4.067 0 0 1-.317-1.629zM91.45 8.55v4.39a2.322 2.322 0 0 0 .47 1.628c.909.658 2.138.658 3.047 0a2.34 2.34 0 0 0 .448-1.628V8.532h1.792v3.855c0 1.491-.3 2.573-.897 3.247-.598.675-1.556 1.01-2.874 1.01-1.345 0-2.299-.33-2.9-1-.603-.67-.898-1.753-.898-3.257V8.532zm8.611 7.794v-6.247h-1.345V8.532h1.345V5.579h1.792v2.953h1.367v1.564h-1.367v6.23z"/></g><g opacity=".5"><path fill="#fff" d="M42.6 29.579l.006.013-.001.001zm1.48-.79c.09.36.307.677.61.895.344.213.742.321 1.148.304.336.02.67-.078.946-.277a.898.898 0 0 0 .342-.75c0-.447-.403-.788-1.215-1.087a8.899 8.899 0 0 1-.636-.245 5.119 5.119 0 0 1-1.753-1.055 1.828 1.828 0 0 1-.497-1.297 2.046 2.046 0 0 1 .821-1.695 3.891 3.891 0 0 1 3.725-.316c.413.203.745.54.941.951l-1.268.895a1.178 1.178 0 0 0-.47-.618 1.495 1.495 0 0 0-.816-.218 1.265 1.265 0 0 0-.816.245.773.773 0 0 0-.31.645c0 .403.448.773 1.384 1.109.293.108.516.189.674.26a3.909 3.909 0 0 1 1.546.961 2 2 0 0 1 .447 1.342 2.2 2.2 0 0 1-.85 1.83 3.73 3.73 0 0 1-2.34.662 3.814 3.814 0 0 1-1.906-.447 2.91 2.91 0 0 1-1.18-1.29zm7.04 2.217v-6.23h-1.344v-1.564h1.344v-2.953h1.793v2.953h1.371v1.564h-1.372v6.23zm6.407-7.794v4.392a2.35 2.35 0 0 0 .47 1.629c.909.657 2.138.657 3.047 0a2.307 2.307 0 0 0 .47-1.629v-4.392h1.792v3.86c0 1.491-.3 2.573-.897 3.247-.6.672-1.556 1.01-2.869 1.01-1.313 0-2.303-.335-2.906-1-.6-.667-.897-1.758-.897-3.257v-3.86zm13.803 3.872a2.85 2.85 0 0 0-.566-1.883 1.94 1.94 0 0 0-1.583-.675 1.974 1.974 0 0 0-1.595.697 2.917 2.917 0 0 0-.578 1.928 2.93 2.93 0 0 0 .56 1.918 2.135 2.135 0 0 0 3.14-.055c.42-.554.634-1.238.6-1.932zm1.743-8.824v12.746H71.28v-1.01a2.984 2.984 0 0 1-2.579 1.341 3.233 3.233 0 0 1-2.608-1.13 4.659 4.659 0 0 1-.947-3.096 4.491 4.491 0 0 1 .974-3.014 3.43 3.43 0 0 1 4.174-.748c.45.26.799.665.99 1.145V18.26zm2.313 1.584c0-.296.12-.58.337-.787a1.122 1.122 0 0 1 1.588 1.582 1.06 1.06 0 0 1-.794.326 1.134 1.134 0 0 1-1.13-1.12zm.243 11.182v-7.814h1.792v7.794zm10.48-3.875a2.597 2.597 0 0 0-.698-1.837 2.327 2.327 0 0 0-3.427 0 2.75 2.75 0 0 0 0 3.676 2.32 2.32 0 0 0 3.42 0 2.592 2.592 0 0 0 .717-1.857zm-6.723 0a4.086 4.086 0 0 1 .322-1.614A4.274 4.274 0 0 1 82.03 23.3c1.06-.42 2.24-.42 3.299 0 .52.213.998.525 1.399.922.4.38.72.837.941 1.342.216.488.332 1.013.342 1.547a4.105 4.105 0 0 1-.317 1.619 3.952 3.952 0 0 1-.925 1.342c-.41.4-.894.716-1.425.934a4.402 4.402 0 0 1-3.287 0 4.358 4.358 0 0 1-2.33-2.28 4.08 4.08 0 0 1-.318-1.615z"/></g></g></g></g></g></svg>