<svg xmlns="http://www.w3.org/2000/svg" width="100" height="16" viewBox="0 0 100 16"><g><g opacity=".5"><g opacity=".5"><path fill="#fff" d="M.34.98c.87.005 1.741.007 2.612.017 1.222.015 2.447-.054 3.67.043 1.09.086 2.12.384 3.034 1.014 1.14.785 1.803 1.884 1.89 3.26.125 2.017.112 4.043.015 6.06-.1 2.065-1.284 3.36-3.176 4.046a6.07 6.07 0 0 1-2.04.378c-2 .01-4.002.003-6.004.004L.34.98zM4.093 8.4c0 1.208-.002 2.418 0 3.627 0 .124-.052.277.18.272.652-.012 1.307.02 1.96-.017 1.086-.063 1.604-.64 1.605-1.734.001-1.47.002-2.938 0-4.408-.003-.971-.482-1.507-1.45-1.613-.672-.073-1.349-.01-2.022-.037-.222-.008-.278.067-.277.283.008 1.208.004 2.418.004 3.627z"/></g><g opacity=".5"><path fill="#fff" d="M99.922 15.801c-3.348.003-6.695.003-10.044.011-.205 0-.234-.077-.234-.255.003-4.77.006-9.54-.004-14.31 0-.29.158-.251.332-.251h9.608c.114 0 .227-.01.34-.016v3.564c-.009-.003-.019-.008-.028-.008-2.095-.004-4.188-.005-6.282-.015-.19-.001-.19.095-.188.232.004.562.018 1.126-.006 1.687-.012.29.049.382.361.38 1.783-.019 3.567-.006 5.35-.014.214-.001.285.053.281.276-.012.886-.016 1.77.001 2.656.005.263-.07.328-.326.327-1.773-.011-3.546 0-5.318-.012-.261-.002-.364.044-.35.335.028.509.023 1.02.002 1.53-.011.273.049.37.35.369 1.938-.016 3.876-.009 5.816-.007.112 0 .226.014.338.022l.001 3.5z"/></g><g opacity=".5"><path fill="#fff" d="M62.273.791c.264.117.554.113.828.178 1.3.307 2.349 1.012 3.218 2.015.123.141.097.21-.04.314-.688.522-1.372 1.044-2.047 1.582-.166.132-.257.117-.409-.022-.75-.688-1.62-1.073-2.656-1.005-.305.02-.591.109-.846.28-.716.48-.726 1.382-.018 1.867.464.318.998.453 1.54.56.793.159 1.577.343 2.328.66 1.562.658 2.474 1.798 2.63 3.517.153 1.715-.433 3.1-1.856 4.072-2.354 1.608-6.085 2.052-8.844-1.27-.13-.156-.12-.242.026-.377.666-.612 1.325-1.23 1.976-1.859.154-.148.227-.146.386.007.984.951 2.15 1.378 3.52 1.17.238-.037.457-.129.658-.265.608-.415.633-1.124.044-1.562-.53-.394-1.15-.568-1.79-.668-1.058-.163-2.064-.455-2.956-1.076a4.426 4.426 0 0 1-1.662-5.086c.398-1.137 1.207-1.897 2.263-2.415.573-.28 1.182-.444 1.809-.55.056-.01.129.014.153-.068l1.745.001z"/></g><g opacity=".5"><path fill="#fff" d="M40.784 15.807zm-1.267 0c-1.027 0-2.052-.006-3.08.005a.494.494 0 0 1-.46-.233c-1.013-1.41-2.037-2.813-3.058-4.219-.163-.226-.505-.338-.754-.254-.15.05-.083.174-.085.263-.004 1.343-.003 2.688-.003 4.032 0 .406 0 .406-.418.406-1.037 0-2.073-.006-3.11.005-.206.002-.259-.059-.259-.262.005-4.771.005-9.543.001-14.315 0-.16.017-.246.213-.243 2.166.03 4.335-.075 6.5.055 1.405.085 2.689.534 3.628 1.67.873 1.055 1.088 2.314 1.032 3.64-.032.753-.161 1.492-.464 2.188-.426.983-1.122 1.694-2.127 2.07-.248.092-.265.155-.1.36 1.234 1.542 2.458 3.095 3.684 4.643.029.04.055.084.127.189h-1.267zM32.076 6.17c0 .5-.002.999 0 1.498 0 .098-.03.215.142.211.808-.02 1.62.065 2.42-.043.675-.09 1.125-.505 1.315-1.17.316-1.118-.42-2.112-1.62-2.165-.682-.03-1.366-.003-2.05-.012-.165-.002-.212.051-.21.213.009.49.003.98.003 1.468z"/></g><g opacity=".5"><path fill="#fff" d="M76.096 8.383c0-2.345.004-4.69-.006-7.034-.001-.27.046-.373.35-.368 1.979.038 3.96-.055 5.94.054.953.053 1.86.312 2.692.795 1.39.808 2.178 2.027 2.25 3.629.09 1.976.09 3.96.003 5.937-.09 2.048-1.452 3.565-3.593 4.145a7.37 7.37 0 0 1-1.936.26c-1.804 0-3.608-.005-5.413.006-.236.001-.293-.065-.292-.297.009-2.376.005-4.752.005-7.127zm3.76-.007v3.655c0 .13-.04.268.187.262.642-.015 1.286.016 1.926-.016 1.099-.055 1.635-.638 1.637-1.737.003-1.468.005-2.935-.001-4.403-.004-.97-.49-1.51-1.448-1.615-.66-.072-1.325-.006-1.987-.039-.271-.013-.321.086-.319.335.011 1.185.005 2.372.005 3.558z"/></g><g opacity=".5"><path fill="#fff" d="M46.583 6.388l1.858-2.541c.645-.883 1.29-1.764 1.93-2.648.09-.123.174-.209.348-.209 1.432.009 2.863.005 4.295.006.027 0 .055.012.087.021-.007.137-.11.204-.178.287-1.787 2.194-3.57 4.39-5.37 6.572-.188.226-.168.353 0 .572 1.8 2.355 3.59 4.718 5.383 7.079.056.073.108.15.16.224-.07.096-.159.053-.232.053-1.4.004-2.8-.001-4.2.007-.189.001-.299-.062-.406-.213a948.99 948.99 0 0 0-3.424-4.803c-.06-.083-.09-.256-.227-.208-.114.04-.09.193-.09.308.002 1.532-.006 3.063.008 4.596.002.263-.07.326-.326.323a143.494 143.494 0 0 0-3.174-.003c-.201.001-.264-.054-.264-.261.006-4.763.006-9.527-.001-14.289 0-.234.087-.27.29-.27a164.2 164.2 0 0 0 3.206 0c.23-.003.269.079.268.286-.008 1.647-.004 3.294-.004 4.94v.149c.022.006.043.014.063.022z"/></g><g opacity=".5"><path fill="#fff" d="M24.491 15.807c-.581 0-1.161-.008-1.742.005-.19.005-.27-.062-.325-.24-.26-.833-.539-1.662-.799-2.495-.056-.178-.137-.24-.326-.239-1.14.01-2.282.012-3.423-.002-.227-.003-.298.087-.356.283-.24.807-.5 1.609-.74 2.416-.058.196-.13.281-.356.279a154.692 154.692 0 0 0-3.453-.002c-.248.003-.268-.065-.192-.282A7316.83 7316.83 0 0 0 17.75 1.234c.06-.174.136-.245.329-.244.974.01 1.95.009 2.925.001.174-.001.255.058.312.221 1.699 4.784 3.401 9.566 5.11 14.346.081.23.01.256-.192.252-.582-.009-1.162-.003-1.743-.003zm-4.865-10.61l-.076.003c-.018.034-.044.067-.052.104-.338 1.341-.672 2.685-1.014 4.025-.045.177.026.191.165.191.591-.003 1.182-.007 1.773.001.193.003.224-.057.179-.239-.19-.767-.367-1.536-.55-2.305-.14-.594-.283-1.187-.425-1.78z"/></g><g opacity=".5"><path fill="#fff" d="M69.336 8.39c0-2.344.004-4.687-.006-7.03-.001-.273.049-.376.35-.37 1.036.021 2.073.014 3.11.004.208-.003.284.047.284.274-.006 4.76-.006 9.519 0 14.278 0 .231-.078.272-.284.27-1.058-.01-2.115-.013-3.172 0-.245.004-.287-.08-.287-.303.008-2.374.005-4.748.005-7.124z"/></g></g></g></svg>