<svg xmlns="http://www.w3.org/2000/svg" width="179" height="21" viewBox="0 0 179 21"><g><g opacity=".5"><g opacity=".5"><path fill="#fff" d="M102.8.21l-1.5 3.515h2.47L105.221.2z"/></g><g opacity=".5"><g opacity=".5"><path fill="#fff" d="M100.231 6.74h2.146l5.896 13.84h-2.608l-1.448-3.526h-5.955L96.81 20.58H94.34zm-1.034 8.044h4.078l-2.03-4.908z"/></g><g opacity=".5"><g opacity=".5"><path fill="#fff" d="M.09 6.778h.262c.837 0 2.829-.058 3.842-.058 5.578 0 7.827 3.175 7.827 6.824 0 3.884-2.667 7.076-7.986 7.076-.836 0-2.39-.038-3.665-.038H.09zm2.451 11.535c.678.038 1.235.038 1.574.038 3.365 0 5.319-1.891 5.319-4.81 0-2.782-1.951-4.556-5.278-4.556-.58.002-1.058.02-1.615.06z"/></g></g><g opacity=".5"><path fill="#fff" d="M17.63 6.78h8.065v2.267h-5.614v3.431h5.016v2.268h-5.016v3.568h5.814v2.27H17.63z"/></g><g opacity=".5"><g opacity=".5"><path fill="#fff" d="M32.61 6.778c.778 0 2.988-.038 3.963-.038 4.102 0 5.396 2.168 5.396 4.435 0 2.346-1.771 4.476-5.098 4.476-.418 0-1.217 0-1.812-.06v4.988H32.61zm2.451 6.507c.575.06 1.176.099 1.733.099 1.453 0 2.588-.689 2.588-2.23 0-1.438-.896-2.147-2.57-2.147-.495 0-1.093.018-1.75.038z"/></g></g><g opacity=".5"><path fill="#fff" d="M50.956 6.74h2.151l5.894 13.842h-2.608l-1.453-3.53h-5.955l-1.453 3.53H45.06zm-1.034 8.042h4.081l-2.03-4.908z"/></g><g opacity=".5"><g opacity=".5"><path fill="#fff" d="M64.54 6.778c.778 0 3.843-.038 4.243-.038 3.804 0 5.057 1.873 5.057 4.26 0 2.364-1.533 3.548-2.688 3.945l4.362 5.64h-2.968l-3.842-5.168h-1.715v5.167H64.54zm2.451 6.37h1.592c1.414 0 2.67-.712 2.67-2.13 0-1.083-.599-2.01-2.59-2.01-.457 0-1.014.017-1.672.037z"/></g></g><g opacity=".5"><path fill="#fff" d="M79.49 6.78h11.492v2.267h-4.52v11.537h-2.45V9.047H79.49z"/></g><g opacity=".5"><path fill="#fff" d="M113.87 6.78h2.47l4.758 6.448 4.544-6.448h2.308v13.804h-2.429v-9.979l-4.402 6.133h-.357l-4.443-6.074v9.92h-2.449z"/></g><g opacity=".5"><path fill="#fff" d="M134.81 6.78h8.068v2.267h-5.617v3.431h5.019v2.268h-5.019v3.568h5.814v2.27h-8.265z"/></g><g opacity=".5"><path fill="#fff" d="M159.09 20.581l-7.668-9.562v9.562h-2.292V6.78h1.953l7.668 9.602V6.78h2.29v13.801z"/></g><g opacity=".5"><path fill="#fff" d="M166.66 6.78v2.27h4.523v11.534h2.449V9.05h4.523V6.78z"/></g></g></g></g></svg>