<svg xmlns="http://www.w3.org/2000/svg" width="68" height="40" viewBox="0 0 68 40"><g><g opacity=".5"><g opacity=".5"><path fill="#fcfcfc" d="M.72 14.77V.83h1.517V13.4h6.602v1.37z"/></g><g opacity=".5"><path fill="#fcfcfc" d="M17.253 14.998c-3.177 0-5.203-1.881-5.203-5.227V.835h1.513v8.827c0 2.795 1.512 3.972 3.691 3.972 2.16 0 3.731-1.202 3.731-3.972V.83h1.517v8.936c-.005 3.237-2.145 5.232-5.249 5.232z"/></g><g opacity=".5"><path fill="#fcfcfc" d="M37.996 15.042L28.988 4.204v10.57H27.47V.644l.307-.074 8.895 10.669V.833h1.517v14.148z"/></g><g opacity=".5"><path fill="#fcfcfc" d="M50.72 9.635h-5.11l2.555-5.987zm3.82 5.139L48.314.59h-.248L41.84 14.774h1.572l1.645-3.863h6.212l1.645 3.863z"/></g><g opacity=".5"><path fill="#fcfcfc" d="M65.115 5.01c0 1.807-1.121 3.003-3.71 3.003-.53 0-1.232-.035-1.686-.094v-5.67c.493-.114 1.27-.148 1.912-.148 2.268 0 3.483 1.275 3.484 2.908zm.79 9.754h1.831l-4.032-5.818c1.953-.626 3.03-2.09 3.03-4.031 0-2.398-1.76-4.185-5.337-4.185-1.156 0-2.174.095-3.197.229v13.805h1.513V9.27c.455.014 1.117.034 1.571.034.322 0 .628-.014.93-.034l3.69 5.496z"/></g><g opacity=".5"><path fill="#fcfcfc" d="M19.225 39.954v-4.845h-5.623v4.845H12.45V29.39h1.152v4.682h5.623V29.39h1.146v10.564z"/></g><g opacity=".5"><path fill="#fcfcfc" d="M31.29 36.065h-3.874l1.936-4.537zm2.895 3.893L29.466 29.21h-.187L24.56 39.958h1.19L27 37.034h4.705l1.25 2.924z"/></g><g opacity=".5"><path fill="#fcfcfc" d="M43.633 32.552c0 1.37-.845 2.278-2.812 2.278-.4 0-.933-.03-1.275-.07v-4.293c.37-.084.958-.114 1.448-.114 1.72 0 2.643.963 2.64 2.199zm.603 7.397v-.006h1.394l-3.054-4.408c1.477-.476 2.292-1.583 2.292-3.053 0-1.817-1.334-3.172-4.047-3.172-.87 0-1.645.074-2.421.174v10.464h1.146v-4.165c.34.016.846.03 1.191.03.242 0 .47-.015.702-.03l2.796 4.165z"/></g><g opacity=".5"><path fill="#fcfcfc" d="M49.85 39.954V29.39h6.157v1.037h-5.005v3.645h4.501v1.037h-4.501v3.802h5.005v1.043z"/></g><g opacity=".5"><path fill="#fcfcfc" d="M67.738 21.49H.72v1.177h67.018z"/></g></g></g></svg>