<svg xmlns="http://www.w3.org/2000/svg" width="53" height="41" viewBox="0 0 53 41"><g><g opacity=".5"><g opacity=".5"><g opacity=".5"><path fill="#fafafa" d="M17.897 33.383h-4.684V22.326l-.34-.03c-.518 3.647-1.04 7.297-1.575 11.054-1.096.196-2.146.085-3.28.075-.536-3.574-1.058-7.035-1.576-10.496l-.392.01v10.398h-4.7v-15.18c2.55-.17 5.062-.202 7.681.02.183 1.252.356 2.413.526 3.575.055 0 .11-.004.166-.004.186-1.099.372-2.198.58-3.438 2.564.323 5.08.555 7.597 1.158-.003 4.658-.003 9.254-.003 13.915z"/></g><g opacity=".5"><path fill="#fafafa" d="M52.331 33.372h-4.958c-.734-1.872-.655-3.94-1.69-6.053-.704 2.146-.714 4.087-1.108 6.02-1.749.236-3.455.053-5.242.118.688-4.093 1.344-7.998 2.026-12.042 2.087-.428 4.423-.467 6.575-1.38-2.24.26-4.449.802-6.807.714-.858-2.466-1.116-5.046-1.807-7.629h5.225c.327 1.628.643 3.213.96 4.801.084.017.166.033.25.053.356-1.582.715-3.164 1.09-4.828h4.504c-.616 2.075-.844 4.152-1.435 6.175-.404 1.39-.538 2.88-.107 4.393.91 3.164 1.676 6.37 2.524 9.658z"/></g><g opacity=".5"><path fill="#fafafa" d="M23.782 20.54c1.601.205 3.085.395 4.59.59.097 1.537-.467 2.894-.34 4.329.522.248 1.027.235 1.575-.02-.1-1.344-.202-2.674-.313-4.172 1.527.115 2.968.222 4.6.343l1.784 11.739h-5.48c-.114-1.161-.222-2.283-.333-3.422-.607-.358-1.19-.13-1.78-.182-.49 1.187-.193 2.426-.536 3.627H22.04c.58-4.283 1.151-8.497 1.742-12.832z"/></g><g opacity=".5"><path fill="#fafafa" d="M29.169 20.146c-.075-.597-.127-1.024-.183-1.487-.463.326-.176.933-.616 1.31-1.435-.152-2.926-.3-4.41-.854.287-2.012.568-3.982.851-5.985h7.73c.549 2.479.777 4.935 1.181 7.473-1.601.078-3.013-.251-4.553-.457z"/></g><g opacity=".5"><path fill="#fafafa" d="M13.65 11.07h-1.765c.48-2.782.065-5.57-.01-8.46L7.44 11.074C5.92 8.119 4.513 5.382 3.104 2.645c-.124 2.832-.492 5.604-.035 8.413-.477.104-1.057.088-1.65-.007.423-1.386.377-9.45-.089-10.686h2.446c.402.29-.244.653.007 1.106 1.259 2.257 2.414 4.573 3.63 6.915C9.008 6.426 11.314 1.53 11.236.31h2.45c-.65 1.817-.32 3.653-.32 5.457-.003 1.745-.32 3.526.284 5.304z"/></g><g opacity=".5"><path fill="#fafafa" d="M36.24 1.075c-.453.773-.78 1.324-1.109 1.882-.075-.052-.124-.065-.143-.098-1.19-1.898-6.136-2.13-7.391-.346-.584.829-.372 1.66.541 2.176.65.365 1.367.32 2.065.369 1.138.081 2.286.065 3.418.185 1.455.157 2.45.972 2.636 2.03.254 1.454-.18 2.547-1.576 3.255-2.27 1.15-4.625.93-6.95.088-.702-.255-1.312-.75-2.261-.75l.93-1.557c.952 1.054 2.136 1.53 3.438 1.772 1.307.241 2.609.202 3.855-.278.88-.339 1.553-1.324 1.406-1.996-.206-.949-.966-1.285-1.804-1.393-.913-.117-1.84-.137-2.763-.176-.926-.039-1.859-.071-2.736-.378-.992-.346-1.68-1.054-1.814-2.114-.134-1.057.323-1.944 1.22-2.495 1.94-1.187 3.983-1.634 6.21-.773.845.326 1.654.897 2.828.597z"/></g><g opacity=".5"><path fill="#fafafa" d="M51.15 1.371c-.428.682-.758 1.21-1.266 2.03-.14-1.126-.819-1.325-1.449-1.573-1.562-.62-3.154-.773-4.762-.193-1.732.623-2.818 1.804-2.968 3.693-.147 1.859.65 3.249 2.234 4.204 2.284 1.373 5.797.63 7.225-1.559L51.378 9.4c-.731.198-1.263.639-1.866.932-2.655 1.295-5.35 1.468-7.877-.228-3.334-2.238-2.991-7.133.541-9.042C44.251-.06 46.348-.322 48.57.647c.773.333 1.504.855 2.58.724z"/></g><g opacity=".5"><path fill="#fafafa" d="M14.12.312h2.681c-.832.796-.668 1.67-.672 2.512-.006 1.63-.032 3.265.017 4.892.045 1.514.495 2.02 1.99 2.32 1.29.257 2.59.264 3.877-.063 1.23-.31 1.693-.786 1.723-2.015.049-2.065-.017-4.133.045-6.198.017-.541-.404-.86-.43-1.353.587-.278 1.174.049 2.136-.307-.79 1.116-.63 2.013-.636 2.887-.016 1.686.03 3.372-.023 5.055-.052 1.687-.828 2.616-2.462 2.978-1.556.346-3.138.34-4.697.05-1.827-.34-2.642-1.26-2.707-3.11-.062-1.79-.014-3.587-.023-5.381-.004-.744.182-1.523-.819-2.267z"/></g><g opacity=".5"><path fill="#fafafa" d="M10.36 17.227c.205-1.451.388-2.723.58-4.077h6.929v4.847c-2.447-.248-4.887-.5-7.509-.77z"/></g><g opacity=".5"><path fill="#fafafa" d="M8.902 17.211c-2.59.157-5.023.072-7.512.493V13.17h6.889l.623 4.041z"/></g><g opacity=".5"><path fill="#fafafa" d="M38.663 11.061h-1.915c.578-1.366.519-9.393-.078-10.721h2.065c-.535 1.373-.594 9.316-.072 10.721z"/></g><g opacity=".5"><path fill="#fafafa" d="M6.581 39.516c-.89.704-1.758 1.135-2.883 1.06-.701-.049-1.252-.267-1.758-.692-.877-.733-1.566-1.614-1.161-2.811.388-1.148 1.282-1.866 2.505-2.058 1.17-.186 2.237.107 3.22.799-.082.166-.15.306-.22.443-2.563-1.03-4.034-.838-4.608.59-.483 1.204.1 2.463 1.334 2.871 1.337.444 2.485-.01 2.798-1.106-.205-.355-.554-.254-.867-.274-.248-.013-.509.232-.75-.052l-.04-.466c.053-.04.095-.105.137-.101.74.032 1.478.071 2.333.114-.167.597-.069 1.164-.04 1.683z"/></g><g opacity=".5"><path fill="#fafafa" d="M26.868 40.55c-1.84-.012-3.223-1.294-3.177-2.945.046-1.592 1.37-2.668 3.272-2.655 1.85.013 3.173 1.184 3.229 2.753.045 1.305-1.722 3.21-3.324 2.848zm2.583-2.896c-.02-1.217-1.128-2.15-2.557-2.15-1.432.004-2.489.947-2.472 2.212.016 1.288 1.047 2.153 2.537 2.133 1.462-.016 2.512-.942 2.492-2.195z"/></g><g opacity=".5"><path fill="#fafafa" d="M12.956 35.024c.861 0 1.778-.01 2.698.003 1.311.016 2.097.414 2.263 1.177.235 1.067-.649 1.37-1.308 1.814.19.923.999 1.497 1.413 2.557-1.608-.267-1.455-1.898-2.391-2.485-.551-.258-1.145-.137-1.787-.115-.405.76-.04 1.573-.134 2.355-.219.265-.473.177-.77.069.12-1.742.11-3.497.016-5.375zm.718.616c.065.636-.173 1.197.215 1.752.825 0 1.631.022 2.437-.01.466-.02.86-.261.877-.773.02-.542-.267-.94-.851-.962-.845-.03-1.693-.007-2.678-.007z"/></g><g opacity=".5"><path fill="#fafafa" d="M47.753 35.025c1.083 0 2.055-.04 3.02.01 1.406.068 1.772.541 1.713 2.11-1.018 1.4-2.648.47-3.92.959-.2.76-.033 1.507.052 2.162-.307.346-.558.2-.868.173.003-1.758.003-3.477.003-5.414zm.852 2.335c.89.105 1.696.114 2.495.007.483-.065.799-.369.786-.871-.013-.483-.284-.822-.796-.855-.851-.052-1.71-.17-2.547.092-.062.525-.105 1.001.062 1.627z"/></g><g opacity=".5"><path fill="#fafafa" d="M36.272 35.065h.73c.173 1.425-.185 2.886.2 4.256 1.337.705 1.852.708 3.177.043.62-1.38-.3-2.94.508-4.293.013-.023.105-.003.278-.003 0 1.318.075 2.648-.03 3.966-.062.803-.626 1.38-1.484 1.481a8.445 8.445 0 0 1-1.624.01c-1.018-.085-1.703-.839-1.745-1.96-.043-1.126-.01-2.258-.01-3.5z"/></g></g></g></g></svg>