<svg xmlns="http://www.w3.org/2000/svg" width="114" height="39" viewBox="0 0 114 39"><g><g opacity=".5"><g opacity=".5"><path fill="#f9f9f9" d="M24.974 20.484v-3.658c0-.56.007-1.121-.005-1.682-.005-.193.05-.257.247-.25.435.015.87.024 1.305-.002.268-.017.313.076.313.323-.01 2.574-.004 5.15-.004 7.724 0 .17-.012.344.002.515.021.247-.088.319-.32.312a18.828 18.828 0 0 0-1.27 0c-.188.007-.27-.06-.344-.23a370.098 370.098 0 0 0-1.654-3.727c-.26-.578-.538-1.148-.823-1.752-.088.11-.054.212-.054.302-.003 1.695-.007 3.387.002 5.081.002.242-.036.347-.311.328a9.104 9.104 0 0 0-1.167 0c-.254.014-.323-.057-.32-.316.01-1.935.006-3.867.006-5.801 0-.825.007-1.647-.005-2.472-.004-.225.06-.292.283-.282.423.019.849.028 1.27-.005.251-.02.332.104.415.29.673 1.516 1.35 3.032 2.025 4.546.116.26.24.513.361.77l.048-.014z"/></g><g opacity=".5"><path fill="#f9f9f9" d="M23.254 32.88c0 1.752-.007 3.503.007 5.252.003.319-.083.428-.406.404a11.272 11.272 0 0 0-1.134-.002c-.178.005-.261-.024-.261-.235.007-2.828.007-5.654 0-8.482 0-.192.071-.226.24-.22.435.009.87.011 1.305 0 .157-.006.247.042.311.182.623 1.395 1.245 2.788 1.873 4.178.197.437.408.867.622 1.319.083-.083.05-.176.05-.252.003-1.706.01-3.41-.005-5.117-.002-.263.072-.328.324-.316.41.022.824.012 1.235.003.172-.005.238.033.238.223-.007 2.816-.005 5.63-.002 8.446 0 .188-.064.27-.26.269a37.788 37.788 0 0 0-1.27 0c-.177.002-.267-.081-.333-.23-.5-1.108-1.006-2.213-1.507-3.318-.321-.709-.644-1.414-.965-2.123-.019.01-.04.015-.062.02z"/></g><g opacity=".5"><path fill="#f9f9f9" d="M111.61 20.56v-2.733c0-.882.01-1.764-.007-2.645-.005-.255.085-.302.31-.29.388.016.78.021 1.168 0 .256-.015.32.06.32.318-.011 2.037-.007 4.076-.007 6.112 0 .72-.01 1.443.005 2.163.005.23-.069.287-.287.28a20.614 20.614 0 0 0-1.272-.002c-.17.005-.266-.045-.34-.207-.51-1.15-1.029-2.298-1.55-3.443-.308-.68-.626-1.355-.95-2.051-.118.1-.071.207-.073.295-.005 1.694-.007 3.388.002 5.08.002.243-.038.347-.311.328a9.102 9.102 0 0 0-1.167 0c-.257.015-.323-.059-.32-.318.01-2.037.006-4.076.006-6.112 0-.72.01-1.443-.005-2.163-.004-.23.067-.287.288-.28.435.016.87.014 1.305 0 .187-.007.27.057.347.228.705 1.59 1.418 3.172 2.134 4.757.104.233.22.46.332.687l.072-.004z"/></g><g opacity=".5"><path fill="#f9f9f9" d="M34.724 4.425c.28.214.625.314.806.649.3.558.428 1.121.323 1.763-.071.437-.169.846-.418 1.21-.338.496-.841.77-1.405.867-1.05.183-2.115.05-3.175.076-.658.017-.658.002-.658-.646 0-2.633.005-5.267-.007-7.9 0-.252.05-.325.314-.32.927.019 1.856-.029 2.78.016.858.043 1.687.271 2.144 1.084.494.88.499 1.98-.19 2.818-.126.157-.333.252-.514.383zm-2.74 1.922c0 .319.005.64-.002.958-.003.174.064.252.242.245.252-.007.509.033.751-.01.321-.059.673-.04.9-.39.307-.47.258-.94.105-1.428a.792.792 0 0 0-.731-.575c-.355-.01-.709.007-1.06-.007-.17-.005-.212.053-.207.214.01.333.002.663.002.993zm0-3.64v.342c0 .791 0 .791.79.791.755 0 1.014-.202 1.19-.929.112-.459-.171-1.076-.561-1.198-.452-.14-.917-.059-1.378-.054-.086.335-.017.675-.04 1.012v.036z"/></g><g opacity=".5"><path fill="#f9f9f9" d="M60.363 23.762c-.61 0-1.192-.007-1.775.005-.187.005-.23-.129-.28-.245-.385-.924-.772-1.846-1.138-2.78-.074-.19-.172-.212-.343-.212-.665.002-.665-.002-.665.649 0 .78-.005 1.556.005 2.336.002.188-.043.259-.245.252a13.392 13.392 0 0 0-1.236.002c-.264.017-.318-.069-.316-.32.01-2.382.007-4.763.007-7.142 0-.378.01-.756-.005-1.133-.007-.195.027-.28.255-.279 1.052.015 2.11-.057 3.158.024 1.17.088 1.984.708 2.227 1.956.152.777.069 1.519-.28 2.227-.167.34-.417.615-.74.805-.173.103-.178.21-.111.362.444 1.022.888 2.041 1.33 3.063.06.126.098.264.152.43zm-4.199-6.096v.48c0 .873 0 .868.884.875.445.005.83-.093 1.048-.523.283-.558.264-1.121-.012-1.673a.774.774 0 0 0-.508-.416c-.378-.097-.765-.061-1.15-.071-.193-.005-.269.071-.264.264.01.356.002.71.002 1.064z"/></g><g opacity=".5"><path fill="#f9f9f9" d="M41.718 20.702c.162-.346.217-.682.21-1.01-.008-.285.095-.356.349-.325.112.014.228-.005.342.005.247.016.62-.114.713.054.143.257.08.623.029.937-.095.572-.236 1.136-.538 1.64-.083.137-.045.21.04.325.338.454.662.92 1.028 1.435-.647 0-1.222-.002-1.8.003-.18.002-.285-.126-.34-.245-.111-.252-.258-.169-.406-.08-.791.482-1.628.567-2.504.284-.865-.278-1.331-.912-1.5-1.77-.133-.677-.062-1.34.347-1.92.219-.312.487-.59.796-.82.15-.112.128-.214.031-.359-.35-.516-.608-1.088-.616-1.709-.009-.827.24-1.613.975-2.077.706-.446 1.502-.477 2.231-.026.73.452 1.16 1.417.858 2.42-.195.648-.592 1.119-1.131 1.482-.197.133-.228.245-.09.428.316.428.625.85.976 1.328zm-2.343-.518c-.39.44-.363 1.15-.297 1.507.055.288.219.528.48.687.264.16.906.095 1.115-.202.135-.193-.164-.366-.283-.54-.019-.026-.021-.064-.04-.092-.321-.452-.644-.903-.975-1.36zm.088-3.125c-.043.33.155.616.297.915.05.107.157.133.257.05.27-.23.535-.47.606-.843.093-.478-.221-1.058-.642-.977-.292.055-.518.373-.518.855z"/></g><g opacity=".5"><path fill="#f9f9f9" d="M68.667 19.302c0-1.362.007-2.724-.007-4.085-.002-.262.069-.324.32-.316.766.016 1.534-.01 2.301.009 1.148.029 2.025.532 2.614 1.535.383.649.509 1.357.537 2.09.024.57.036 1.145-.002 1.715-.064 1.017-.304 1.97-1.114 2.688a3.121 3.121 0 0 1-1.712.77c-.886.119-1.775.021-2.661.066-.228.012-.283-.064-.28-.285.009-1.397.004-2.792.004-4.187zm1.787-.007v2.198c0 .782 0 .8.787.76.575-.03 1.079-.328 1.217-.908.29-1.221.218-2.447.092-3.676-.03-.29-.116-.58-.323-.822-.409-.478-.965-.466-1.516-.502-.221-.014-.264.067-.261.271.009.892.004 1.785.004 2.679z"/></g><g opacity=".5"><path fill="#f9f9f9" d="M14.123 35.669c0 .48-.019.962.007 1.442.017.314-.119.533-.347.697-1.243.884-2.614 1.06-4.028.56-.943-.332-1.43-1.133-1.68-2.081-.24-.908-.102-1.832-.133-2.75-.024-.71.002-1.414.252-2.1.425-1.177 1.221-1.783 2.457-1.906.56-.058 1.086.009 1.62.142.833.21 1.298.787 1.576 1.552.12.325.205.66.212 1.012.002.155-.052.195-.197.193-.378-.007-.758-.031-1.134.005-.328.03-.418-.122-.461-.395-.138-.88-.418-.955-1.07-1.046-.582-.08-1.102.255-1.3.887a3.328 3.328 0 0 0-.168 1.024c.002.8-.021 1.604.007 2.403.021.56.145 1.086.57 1.53.302.319 1.529.335 1.833.083a.347.347 0 0 0 .135-.294c-.007-.412-.01-.825 0-1.236.003-.155-.03-.243-.207-.216a.335.335 0 0 1-.069 0c-.316-.027-.815.135-.905-.062-.154-.33-.05-.78-.06-1.179-.002-.14.089-.133.184-.133.893 0 1.784.002 2.678-.002.216 0 .233.128.23.292-.004.525-.002 1.05-.002 1.578z"/></g><g opacity=".5"><path fill="#f9f9f9" d="M105.968 19.363c.02.848.029 1.7-.278 2.505-.43 1.133-1.205 1.827-2.46 1.97-1.057.119-1.988-.1-2.737-.86-.604-.614-.867-1.407-.905-2.251-.038-.913-.062-1.832.002-2.742.09-1.29.563-2.391 1.835-2.98.893-.414 2.542-.321 3.336.418.699.649 1 1.44 1.143 2.34.086.535.045 1.068.064 1.6zm-1.787-.005c0-.32.02-.641-.005-.96a7.27 7.27 0 0 0-.135-.962c-.24-1.134-1.124-1.431-1.918-1.013-.599.314-.732.965-.744 1.569-.021 1.033-.078 2.07.048 3.103.085.706.549 1.239 1.236 1.286.532.038 1.093-.178 1.321-.98.195-.674.2-1.356.197-2.043z"/></g><g opacity=".5"><path fill="#f9f9f9" d="M67.429 19.374c-.014.843.05 1.687-.262 2.51-.442 1.161-1.23 1.812-2.476 1.953-.822.092-1.58-.012-2.265-.49-.772-.54-1.166-1.321-1.314-2.227-.159-.984-.092-1.982-.062-2.97.029-.944.314-1.832.97-2.545.463-.504 1.079-.766 1.747-.837.653-.069 1.307-.024 1.915.28.898.45 1.369 1.212 1.609 2.156.185.718.124 1.445.138 2.17zm-1.787.076c-.005-.844.057-1.604-.207-2.336-.164-.454-.461-.777-.955-.84-.55-.068-1.041.048-1.32.595-.175.342-.24.708-.273 1.093-.092 1.122-.161 2.246.09 3.346.17.734.486 1 1.222 1.07.623.059 1.02-.276 1.262-.934.25-.68.16-1.384.18-1.994z"/></g><g opacity=".5"><path fill="#f9f9f9" d="M81.375 18.306c0 .95.016 1.9-.005 2.849-.031 1.464-.692 2.357-2.106 2.652-.905.19-1.825.121-2.626-.4-.575-.372-.945-.928-1.031-1.627-.164-1.343-.04-2.69-.069-4.035-.017-.834.012-1.67-.012-2.507-.01-.3.088-.364.364-.345.363.024.734.024 1.098 0 .266-.017.342.057.34.333-.015 1.9-.01 3.8-.003 5.7 0 .248.029.498.083.738.124.539.45.734 1.158.724.523-.007.83-.266.962-.765.052-.202.062-.4.062-.601 0-1.934.005-3.869-.005-5.803-.002-.25.048-.343.314-.324.4.027.8.022 1.2.003.23-.012.283.064.28.285-.01 1.04-.004 2.082-.004 3.123z"/></g><g opacity=".5"><path fill="#f9f9f9" d="M6.567 38.532h-.24c-.931.002-.65.062-.926-.727-.098-.283-.15-.583-.21-.877-.038-.18-.116-.26-.316-.257-.65.012-1.304.021-1.955-.005-.233-.01-.293.112-.333.274-.102.41-.195.824-.283 1.238-.055.252-.16.385-.456.361-.409-.03-.822-.014-1.236-.005-.23.005-.328-.03-.24-.309.5-1.554.98-3.115 1.462-4.677.387-1.252.772-2.504 1.162-3.757.035-.116.1-.204.263-.197.388.019.78.026 1.167-.002.25-.017.333.092.4.301.53 1.733 1.06 3.463 1.601 5.193.33 1.05.678 2.094 1.02 3.14.071.218.035.332-.23.31-.212-.018-.43-.004-.65-.004zm-2.642-6.364a.527.527 0 0 0-.06-.012c-.261.998-.525 1.994-.786 2.987h1.63l-.784-2.975z"/></g><g opacity=".5"><path fill="#f9f9f9" d="M50.921 2.735c-.08 0-.159.003-.24 0-.32-.01-.615.117-.682-.463-.095-.818-.889-.941-1.516-.642-.44.21-.551 1.086-.209 1.438.459.47 1.055.646 1.618.903.915.423 1.709.972 1.901 2.049.264 1.47-.282 2.735-1.967 3.034-1.162.207-2.198-.023-3.066-.86-.527-.509-.663-1.186-.748-1.873-.017-.128.102-.154.216-.154.468.002.939.005 1.407 0 .187-.002.225.102.223.264-.005 1.05.82 1.395 1.673 1.167.39-.105.613-.704.513-1.198-.12-.601-.596-.841-1.069-1.039-.575-.24-1.136-.484-1.654-.836-.796-.542-1.252-1.578-1.036-2.54.223-.992.877-1.593 1.849-1.864.915-.254 1.792-.18 2.595.347.725.478 1.076 1.179 1.12 2.046.009.19-.065.23-.234.221-.235-.007-.463 0-.694 0z"/></g><g opacity=".5"><path fill="#f9f9f9" d="M5.532 2.742h-.137c-.22 0-.452.053-.65-.014-.242-.08-.082-.366-.16-.556-.222-.542-.726-.822-1.31-.64-.58.184-.723.723-.609 1.227.07.302.333.518.611.67.388.212.794.385 1.203.559.839.351 1.563.874 1.832 1.784.27.92.178 1.833-.473 2.59-.323.376-.787.597-1.267.692-.9.178-1.782.112-2.602-.359C1.176 8.24.737 7.557.654 6.647.646 6.58.642 6.51.618 6.45c-.069-.176-.01-.267.171-.269.48-.005.962 0 1.443-.002.197 0 .206.123.211.275.029.732.252 1.015.958 1.203.359.095.703.03.967-.221.29-.278.316-.66.245-1.036-.095-.518-.5-.78-.927-.965-.61-.264-1.222-.511-1.775-.896C1.024 3.921.725 3.056.867 2.041c.136-.938.756-1.52 1.616-1.837.975-.356 1.932-.304 2.814.274.742.487 1.12 1.195 1.131 2.09.003.136-.04.181-.176.177-.24-.007-.48-.003-.72-.003z"/></g><g opacity=".5"><path fill="#f9f9f9" d="M20.435 4.564c0-1.386.005-2.771-.005-4.157-.002-.225.062-.282.283-.28 1.007.012 2.017-.03 3.023.014 1.328.06 2.243.88 2.53 2.175.196.886.105 1.746-.456 2.523-.43.597-1.02.863-1.706.999-.508.1-1.02.073-1.528.059-.273-.007-.368.045-.361.345.024.834.002 1.67.012 2.507.002.187-.04.259-.243.252a16.197 16.197 0 0 0-1.271 0c-.224.01-.285-.053-.283-.28.012-1.384.005-2.77.005-4.157zm1.787-1.545c0 .39.007.777-.005 1.167-.005.164.045.216.212.211.378-.011.755.008 1.13-.007.414-.014.728-.273.864-.672.128-.378.116-.777.04-1.14-.133-.65-.537-1.004-1.21-.937-.27.026-.549.014-.822 0-.166-.007-.216.047-.211.211.009.39.002.777.002 1.167z"/></g><g opacity=".5"><path fill="#f9f9f9" d="M65.85 4.531c0-1.35.012-2.7-.01-4.05-.005-.318.095-.365.378-.36.96.016 1.923-.01 2.883.011 1.35.029 2.374.984 2.59 2.26.143.844.09 1.642-.406 2.374-.43.632-1.046.934-1.776 1.067-.541.1-1.086.057-1.63.06-.19 0-.25.047-.247.244.01.858-.002 1.716.01 2.574.002.219-.05.295-.279.285a13.396 13.396 0 0 0-1.235 0c-.221.01-.285-.052-.283-.28.01-1.393.005-2.788.005-4.185zm2.642-2.89c-.256 0-.463.01-.668-.002-.154-.01-.192.05-.19.195a130.7 130.7 0 0 1 0 2.364c-.002.15.04.198.193.195.378-.01.753.007 1.131-.007.404-.014.796-.304.889-.684.083-.338.104-.666.064-1.01-.043-.362-.202-.628-.466-.873-.309-.287-.67-.128-.953-.178z"/></g><g opacity=".5"><path fill="#f9f9f9" d="M47.437 19.332c0-1.374.007-2.747-.007-4.12-.002-.262.067-.322.32-.32 1.02.017 2.04-.023 3.057.015 1.295.047 2.196.893 2.464 2.122.15.692.124 1.378-.152 2.053-.332.808-.962 1.234-1.765 1.45-.583.157-1.18.057-1.768.062-.293.002-.374.092-.366.375.016.834 0 1.67.009 2.507.002.21-.033.307-.273.293a12.61 12.61 0 0 0-1.236 0c-.221.01-.288-.055-.285-.28.007-1.386.002-2.772.002-4.157zm1.787-1.585c0 .375.007.753-.002 1.129-.005.202.062.294.276.285.306-.012.62.028.922-.012.332-.045.675-.086.884-.442.359-.61.292-1.212.014-1.813-.121-.262-.323-.426-.632-.497-.42-.1-.837-.026-1.253-.055-.194-.014-.213.12-.213.274.007.377.004.755.004 1.13z"/></g><g opacity=".5"><path fill="#f9f9f9" d="M15.355 34.08c0-1.398.005-2.793-.005-4.19-.002-.214.04-.292.276-.29 1.511.012 3.02.01 4.532 0 .22-.002.3.052.285.283a9.28 9.28 0 0 0 0 .996c.01.202-.067.244-.254.242-.927-.01-1.854.002-2.78-.007-.2-.002-.281.036-.274.259.019.513.016 1.029 0 1.545-.007.211.054.27.266.266.72-.014 1.442.01 2.163-.012.282-.01.347.085.327.344a6.559 6.559 0 0 0 0 .892c.012.218-.045.294-.278.29-.731-.017-1.463.002-2.198-.012-.228-.005-.287.064-.283.285.015.594.017 1.19 0 1.785-.007.24.081.278.293.275.915-.01 1.832.003 2.747-.01.207-.002.283.044.27.265-.018.33-.011.663-.002.995.005.195-.076.262-.266.26a494.8 494.8 0 0 0-4.6.002c-.233.002-.222-.114-.222-.274.005-1.397.003-2.794.003-4.19z"/></g><g opacity=".5"><path fill="#f9f9f9" d="M6.64 14.898c.62 0 1.19.01 1.763-.005.198-.004.252.093.29.25l1.305 5.663c.03.128.064.257.114.464.223-.956.437-1.842.64-2.729.258-1.128.508-2.26.767-3.388.033-.148.078-.276.309-.262.501.031 1.007.012 1.509.007.178-.002.259-.005.185.243-.394 1.32-.756 2.652-1.133 3.978-.404 1.433-.818 2.863-1.224 4.296-.07.245-.167.38-.464.357-.42-.033-.846-.017-1.269-.005-.19.005-.278-.052-.33-.242-.335-1.188-.684-2.372-1.024-3.558-.354-1.24-.697-2.483-1.046-3.726-.123-.44-.254-.877-.392-1.343z"/></g><g opacity=".5"><path fill="#f9f9f9" d="M59.732 4.535c0-1.361.005-2.723-.005-4.085-.002-.233.024-.332.305-.33 1.5.017 2.996.014 4.496.002.25-.002.309.072.295.305a7.19 7.19 0 0 0 0 .96c.016.225-.072.259-.271.256-.894-.01-1.785.015-2.679-.014-.32-.01-.377.093-.36.38.023.433.023.87 0 1.305-.017.295.044.411.377.397.708-.031 1.419-.002 2.127-.014.233-.005.342.059.32.309-.033.37.155.857-.073 1.083-.183.18-.67.05-1.024.052-.48.003-.963.008-1.443-.002-.206-.005-.285.067-.282.278.01.618.01 1.236 0 1.854-.003.209.073.28.28.278.948-.01 1.899.002 2.847-.026.169-.005.169.05.171.152.005.39 0 .777.002 1.167.003.225-.166.142-.268.142-1.008.005-2.013.003-3.02.003-.46 0-.918-.022-1.374.007-.326.019-.44-.048-.433-.411.029-1.345.012-2.698.012-4.047z"/></g><g opacity=".5"><path fill="#f9f9f9" d="M.855 19.318c0-1.362.005-2.723-.005-4.085-.002-.233.024-.338.304-.333 1.5.017 3 .012 4.499.005.211 0 .307.036.292.276-.026.375.124.867-.062 1.095-.194.24-.705.064-1.078.071-.606.015-1.215.017-1.82-.002-.281-.01-.36.09-.348.357.02.456.024.917 0 1.373-.016.309.067.425.397.414.72-.027 1.443 0 2.163-.012.211-.005.28.05.266.266a7.097 7.097 0 0 0 0 .927c.014.223-.071.263-.273.261-.768-.012-1.533 0-2.3-.007-.189-.002-.26.04-.255.242.012.618.012 1.236 0 1.854-.005.197.055.25.25.247.902-.01 1.808.01 2.71-.012.3-.007.37.086.348.364-.024.318-.012.642-.002.96.004.145-.039.2-.193.2a516.981 516.981 0 0 0-4.703.002c-.228.002-.19-.133-.19-.266v-4.197z"/></g><g opacity=".5"><path fill="#f9f9f9" d="M14.32 4.56c0-1.386.005-2.77-.004-4.155-.003-.218.05-.285.278-.285 1.511.012 3.02.01 4.532 0 .218-.002.299.048.285.278-.022.33-.017.663 0 .996.01.192-.05.25-.245.247-.927-.01-1.854.002-2.78-.01-.224-.002-.29.055-.283.28.016.514.014 1.03 0 1.546-.005.197.054.247.247.244.756-.01 1.511.005 2.265-.01.244-.004.325.084.311.32a7.966 7.966 0 0 0 0 .89c.012.205-.067.243-.252.24-.756-.009-1.511.005-2.265-.009-.225-.005-.318.03-.311.288.021.606.014 1.212.002 1.818-.004.216.057.309.29.306.949-.014 1.9-.002 2.847-.026.171-.005.162.064.162.16.005.377-.002.755.005 1.133.002.135-.043.176-.176.176a787.098 787.098 0 0 0-4.736 0c-.245 0-.172-.162-.172-.28V4.558z"/></g><g opacity=".5"><path fill="#f9f9f9" d="M14.457 19.325c0-1.362.01-2.724-.007-4.086-.005-.297.083-.351.361-.349 1.476.014 2.952.012 4.43.002.23-.002.328.043.309.295a6.198 6.198 0 0 0 0 .891c.014.214-.055.269-.266.266-.894-.011-1.785.008-2.678-.011-.297-.008-.376.097-.364.375.019.48.019.963 0 1.443-.01.247.045.332.314.325.744-.021 1.487.003 2.231-.012.226-.004.297.06.283.285a6.56 6.56 0 0 0 0 .892c.019.24-.078.28-.29.275-.756-.012-1.511.003-2.265-.01-.204-.002-.275.044-.27.262.016.606.016 1.215 0 1.82-.005.217.061.267.268.264.903-.012 1.808.003 2.711-.01.24-.004.352.034.328.31-.028.33-.014.663-.002.995.005.162-.043.217-.211.217a510.093 510.093 0 0 0-4.67.002c-.247.003-.207-.14-.207-.285-.005-1.386-.005-2.771-.005-4.156z"/></g><g opacity=".5"><path fill="#f9f9f9" d="M82.46 19.27c.064-.857.038-1.746.35-2.604.418-1.145 1.42-1.896 2.656-1.906.694-.004 1.364.045 1.966.454.762.518 1.086 1.29 1.216 2.15.083.555.043.56-.551.56-.297 0-.597-.015-.894.004-.251.014-.356-.069-.337-.33a1.5 1.5 0 0 0-.19-.872.763.763 0 0 0-.326-.324c-.881-.472-1.825.01-1.946 1.048-.15 1.29-.133 2.59.005 3.881.054.511.332.934.893 1.032.452.078.908.076 1.253-.31.242-.273.33-.61.31-.964-.01-.23.067-.29.289-.28.423.016.846.011 1.269.002.204-.005.297-.022.254.273-.067.468-.14.922-.357 1.35-.451.893-1.212 1.278-2.172 1.414a3.547 3.547 0 0 1-1.716-.166c-.99-.35-1.497-1.125-1.746-2.094-.195-.753-.186-1.526-.226-2.317z"/></g><g opacity=".5"><path fill="#f9f9f9" d="M28.88 34.057c.048-.62-.04-1.255.071-1.892.228-1.302 1.131-2.55 2.655-2.642.82-.05 1.573.035 2.265.494.62.411.884 1.046 1.057 1.728.043.17.036.375.093.525.142.375-.048.366-.31.359-.389-.012-.779-.015-1.166.002-.24.01-.328-.095-.328-.314a1.9 1.9 0 0 0-.067-.565c-.178-.578-.44-.737-1.133-.768-.592-.028-.967.257-1.143.784a3.591 3.591 0 0 0-.2 1.186c.01.744.012 1.488-.002 2.232-.007.387.066.763.147 1.133a1 1 0 0 0 1.015.77c.235-.005.473.045.708-.04.535-.197.66-.647.666-1.134.002-.313.078-.43.406-.409.4.029.8.008 1.2.008.2 0 .28.04.226.285-.088.401-.136.803-.29 1.198-.33.838-.953 1.32-1.785 1.516-.703.164-1.435.185-2.136-.072-1.017-.373-1.545-1.147-1.811-2.165-.19-.731-.098-1.468-.138-2.22z"/></g><g opacity=".5"><path fill="#f9f9f9" d="M41.898 29.605l-.744 1.783-1.545 3.66a1.16 1.16 0 0 0-.073.46c.004.906-.005 1.809.007 2.714.002.238-.074.328-.316.319a16.485 16.485 0 0 0-1.236 0c-.247.01-.316-.088-.311-.321.012-.663-.026-1.331.012-1.992.04-.672-.117-1.28-.385-1.891-.65-1.478-1.258-2.973-1.897-4.456-.11-.252-.038-.285.195-.28.468.011.939.011 1.407 0 .19-.005.27.056.33.242.38 1.174.775 2.345 1.162 3.517.02.06.043.102.126.154.212-.632.42-1.257.632-1.882.202-.601.416-1.197.606-1.803.043-.138.074-.226.236-.226.582.005 1.164.002 1.794.002z"/></g><g opacity=".5"><path fill="#f9f9f9" d="M39.583 4.051c.428-1.266.846-2.488 1.252-3.714.043-.126.074-.204.214-.204h1.806c-.458 1.095-.9 2.155-1.345 3.21-.32.763-.646 1.526-.976 2.286-.046.103-.029.2-.031.3-.003.915-.015 1.83.007 2.745.007.282-.086.34-.342.325a9.628 9.628 0 0 0-1.2.003c-.288.021-.33-.09-.326-.343.016-.743-.031-1.49.016-2.229.039-.582-.187-1.067-.399-1.568-.627-1.497-1.25-2.997-1.894-4.487-.104-.242-.019-.242.167-.242.48.002.96.01 1.442-.003.185-.004.273.048.335.233.38 1.165.775 2.324 1.167 3.486.014.06.057.115.107.202z"/></g><g opacity=".5"><path fill="#f9f9f9" d="M11.161 5.33c0 1.121-.01 2.243.007 3.362.005.269-.078.324-.323.31a9.103 9.103 0 0 0-1.167.002c-.273.019-.309-.083-.309-.326.01-2.231 0-4.463.015-6.692.002-.295-.079-.359-.36-.347-.524.024-1.052-.007-1.577.012-.238.01-.285-.074-.276-.288.017-.33.012-.663 0-.995C7.166.2 7.195.128 7.39.13c1.922.007 3.845.007 5.767 0 .174 0 .21.06.205.216-.01.366-.012.732 0 1.098.007.176-.064.205-.219.202-.537-.007-1.076.022-1.613-.012-.333-.021-.383.105-.378.397.019 1.1.01 2.198.01 3.299z"/></g><g opacity=".5"><path fill="#f9f9f9" d="M56.576 5.318c0 1.133-.007 2.265.005 3.398.002.221-.053.295-.28.283-.4-.02-.802-.024-1.201 0-.26.017-.318-.06-.316-.316.012-2.22 0-4.44.014-6.659.003-.304-.064-.409-.382-.39-.514.031-1.03.003-1.545.012-.207.005-.288-.069-.28-.278a14.86 14.86 0 0 0 0-1.029c-.005-.166.05-.209.21-.209 1.923.005 3.846.005 5.766 0 .164 0 .216.043.212.21-.012.365-.012.731 0 1.097.004.166-.048.214-.212.21-.582-.01-1.167.004-1.751-.008-.197-.005-.245.057-.245.247.01 1.143.005 2.286.005 3.432z"/></g><g opacity=".5"><path fill="#f9f9f9" d="M31.71 20.095c0 1.122-.009 2.243.008 3.363.005.266-.074.328-.326.313a8.906 8.906 0 0 0-1.098 0c-.287.02-.382-.047-.38-.363.017-2.208.003-4.416.017-6.623.002-.34-.079-.469-.435-.447-.513.03-1.029 0-1.545.012-.18.004-.237-.05-.23-.23.014-.331.014-.664 0-.997-.01-.19.066-.223.237-.223 1.9.005 3.798.005 5.7 0 .182 0 .268.03.256.24-.022.387.13.894-.062 1.129-.2.245-.727.057-1.112.076-.24.012-.483.014-.72-.002-.245-.017-.316.083-.314.318.01 1.145.005 2.288.005 3.434z"/></g><g opacity=".5"><path fill="#f9f9f9" d="M93.333 20.048c0 1.143-.005 2.289.005 3.432.002.216-.046.3-.279.287-.399-.019-.8-.024-1.2 0-.261.017-.318-.066-.318-.32.012-2.22.007-4.44.007-6.66 0-.446 0-.446-.451-.446-.469 0-.94-.022-1.407.007-.302.019-.371-.088-.345-.364.024-.25.021-.504 0-.753-.024-.264.055-.342.33-.34 1.671.014 3.342.005 5.012.01.271 0 .623-.12.792.05.168.168.047.52.05.79.007.6.002.6-.609.6-.41 0-.824.019-1.236-.007-.278-.017-.365.05-.36.347.02 1.126.009 2.248.009 3.367z"/></g><g opacity=".5"><path fill="#f9f9f9" d="M96.487 19.327c0-1.372.007-2.745-.007-4.116-.002-.257.06-.336.319-.319.387.024.779.026 1.164 0 .266-.017.316.076.314.323-.01 2.505-.003 5.008-.01 7.512 0 .338.15.79-.069.982-.19.166-.63.05-.96.052-.753.002-.753 0-.753-.763.002-1.224.002-2.448.002-3.671z"/></g></g></g></svg>