<svg xmlns="http://www.w3.org/2000/svg" width="56" height="60" viewBox="0 0 56 60"><g><g opacity=".5"><g opacity=".5"><g opacity=".5"><path fill="#fff" d="M42.322 35.607H22.21v3.564h21.625l2.061-2.15V31.33h-3.574z"/></g><g opacity=".5"><path fill="#fff" d="M35.086 42.742H21.225v-10.78h13.86v2.643h3.576v-6.218H21.225V25.81H17.65v18.752l1.787 1.754h17.436l1.788-1.853v-4.298h-3.575z"/></g><g opacity=".5"><path fill="#fff" d="M42.324 20.21v1.03H39.67v3.576h2.654v3.575h3.575V20.21z"/></g><g opacity=".5"><path fill="#fff" d="M12.222 21.24L10.5 23.192v14.2l1.952 1.777h4.2v-3.564h-2.577v-10.79h20.002V21.24z"/></g><g opacity=".5"><path fill="#fff" d="M35.08 24.81h3.575"/></g><g opacity=".5"><path fill="#fff" d="M35.08 17.815H21.22v2.434h-3.575v-2.434H14.07V14.24h22.656l1.93 2.007v8.564H35.08z"/></g><g opacity=".5"><path fill="#fff" d="M3.266 13.95l.658.373-1.195 2.094 1.096.603.702-1.283a1.203 1.203 0 0 1 1.853-.526c.658.263.976 1.009.713 1.667a4.802 4.802 0 0 1-.132.241l-1.206 2.095-4.145-2.38zm2.28 4.112l.582-1.096c.285-.472.274-.724-.208-.998-.483-.274-.625-.099-.9.362l-.58 1.03z"/></g><g opacity=".5"><path fill="#fff" d="M9.761 9.396l1.7-1.448.493.581-1.7 1.448.834.976 1.776-1.513.494.57-2.478 2.105-3.06-3.63 2.445-2.105.494.57L8.97 8.464z"/></g><g opacity=".5"><path fill="#fff" d="M18.787 1.93l.285.724-2.062.811 1.459 3.718-.855.329-1.744-4.387z"/></g><g opacity=".5"><path fill="#fff" d="M27.009.51c1.645 0 2.05.46 2.105 2.28 0 2.128-.384 2.556-1.974 2.6-1.59.044-2.05-.373-2.105-2.49-.055-1.82.329-2.39 1.974-2.39zm.11 4.101c.954 0 1.096-.219 1.096-1.688 0-1.47-.263-1.656-1.184-1.634-.921.022-1.097.153-1.097 1.688 0 1.536.23 1.667 1.184 1.634z"/></g><g opacity=".5"><path fill="#fff" d="M35.697 1.61L38 2.421c.8.286 1.097.78.855 1.58-.186.515-.504.833-1.008.8.45.252.625.812.394 1.272a1.233 1.233 0 0 1-1.48.932c-.088-.022-.176-.055-.263-.087l-2.358-.845zm-.46 4.046l1.096.34c.581.198.91.154 1.097-.34.186-.493 0-.68-.483-.855l-1.239-.439zm.658-1.853l1.096.373c.548.197.79.175.976-.373.187-.548 0-.603-.417-.745l-1.217-.472z"/></g><g opacity=".5"><path fill="#fff" d="M46.713 7.467c1.228 1.097 1.228 1.71 0 3.103-1.37 1.612-1.985 1.645-3.202.604-1.217-1.042-1.272-1.645.099-3.29 1.228-1.36 1.875-1.47 3.103-.417zm-2.653 3.114c.723.626.965.582 1.919-.537.954-1.118.943-1.393.24-1.985-.701-.592-.931-.636-1.93.538-.997 1.173-.953 1.37-.23 1.984z"/></g><g opacity=".5"><path fill="#fff" d="M51.147 15.776l1.097 1.951-.658.362-1.097-1.94-1.097.635 1.097 2.03-.658.372-1.601-2.83 4.156-2.346 1.601 2.84-.658.373-1.151-2.04z"/></g><g opacity=".5"><path fill="#fff" d="M2.667 40.48l-.263.088c-1.03.351-1.568 0-2.04-1.381-.471-1.382-.219-2.073 1.733-2.73 1.546-.527 2.358-.374 2.862 1.096.505 1.47.099 1.985-.91 2.412l-.296-.844c.69-.285.746-.526.472-1.316-.275-.79-.57-.91-1.93-.439-1.36.472-1.48.746-1.207 1.525.274.778.505.976 1.01.8l.24-.066z"/></g><g opacity=".5"><path fill="#fff" d="M7.885 43.356c.91 1.327.735 1.974-.768 3.016-1.754 1.195-2.346 1.096-3.29-.252-.942-1.35-.8-1.92.944-3.115 1.535-1.03 2.193-.976 3.114.351zm-3.356 2.325c.538.79.79.811 1.996 0 1.207-.812 1.261-1.097.735-1.864-.526-.768-.724-.845-1.996 0-1.272.844-1.305 1.074-.735 1.864z"/></g><g opacity=".5"><path fill="#fff" d="M12.32 48.243c1.228 1.03 1.239 1.7.066 3.103-1.36 1.623-1.974 1.667-3.203.636-1.228-1.03-1.283-1.634.066-3.29 1.174-1.37 1.864-1.491 3.07-.45zM9.688 51.39c.724.614.976.57 1.919-.56.943-1.129.921-1.403.208-1.995-.712-.592-.92-.614-1.919.57-.998 1.184-.976 1.37-.208 1.985z"/></g><g opacity=".5"><path fill="#fff" d="M19.101 52.364l-.318.69-2.193-.997-.504 1.096 1.349.614a1.217 1.217 0 0 1 .69 1.81 1.28 1.28 0 0 1-1.6.844.93.93 0 0 1-.242-.099l-2.193-1.009 1.985-4.353zm-3.86 2.642l1.097.494c.504.23.757.197.987-.296.23-.494 0-.647-.45-.866l-1.096-.494z"/></g><g opacity=".5"><path fill="#fff" d="M22.393 57.54l1.952.209.406-3.97.92.088-.416 3.97 1.952.208.417-3.97.91.088-.417 3.98h.428l-.197 1.865-.79-.066.11-1.097-6.218-.647.493-4.748.922.099z"/></g><g opacity=".5"><path fill="#fff" d="M32.636 55.487l2.193-.45.154.735-2.194.46.253 1.305 2.28-.471.154.735-3.18.668-.976-4.671 3.18-.658.154.735-2.281.482z"/></g><g opacity=".5"><path fill="#fff" d="M41.82 53.25l.132.252c.482.976.197 1.557-1.097 2.193-1.294.636-2.029.45-2.928-1.36-.735-1.469-.68-2.28.724-2.982 1.403-.702 1.952-.362 2.511.592l-.8.395c-.373-.647-.615-.67-1.36-.296-.746.373-.834.69-.198 1.974.636 1.283.932 1.37 1.69.998.756-.373.91-.625.668-1.097l-.132-.263z"/></g><g opacity=".5"><path fill="#fff" d="M47.212 51.329l-.691.603-2.61-3.027-1.097.922-.504-.582 2.796-2.445.505.592-1.097.921z"/></g><g opacity=".5"><path fill="#fff" d="M46.75 45.042l1.382-2.018c.493-.701 1.096-.888 1.743-.405a.991.991 0 0 1 .516 1.184.96.96 0 0 1 1.338 0 1.223 1.223 0 0 1 .35 1.897l-1.436 2.073zm2.193.384l.647-.943c.33-.472.373-.713-.099-1.097-.471-.383-.58-.164-.844.209l-.735 1.096zm1.645 1.14l.647-.943c.351-.493.395-.833 0-1.096-.395-.263-.647-.198-.943.241l-.746 1.097z"/></g><g opacity=".5"><path fill="#fff" d="M50.748 37.625c.527-1.513 1.152-1.765 2.873-1.162 2.007.702 2.26 1.261 1.733 2.764-.526 1.502-1.097 1.787-3.07 1.096-1.7-.603-2.073-1.162-1.536-2.698zm3.871 1.35c.307-.9.187-1.097-1.206-1.602-1.393-.504-1.634-.362-1.93.505-.296.866-.252 1.096 1.206 1.6 1.459.505 1.612.396 1.93-.504z"/></g><g opacity=".5"><path fill="#fff" d="M53.38 27.241c0-.504.417-.921.921-.921.505 0 .921.417.921.921a.927.927 0 0 1-.92.921h-.012a.924.924 0 0 1-.91-.92z"/></g><g opacity=".5"><path fill="#fff" d="M1.251 28.162a.921.921 0 1 0 0-1.842.921.921 0 0 0 0 1.842z"/></g></g></g></g></svg>