<svg xmlns="http://www.w3.org/2000/svg" width="94" height="50" viewBox="0 0 94 50"><g><g opacity=".5"><g opacity=".5"><g opacity=".5"><path fill="#fff" d="M44.764.83h-.524v48.956h.524z"/></g></g><g opacity=".5"><g opacity=".5"><g opacity=".5"><path fill="#fff" d="M58.218 39.048h1.366v4.242h-1.366V41.78h-1.162v1.509H55.69v-4.242h1.366v1.572h1.162zm12.661 0h1.367v4.242h-1.367V41.78h-1.16v1.509h-1.367v-4.242h1.366v1.572h1.161zm20.826 1.236c.883 0 1.606.484 1.6 1.355v.296c0 .865-.723 1.355-1.605 1.355h-2.016v-4.242h1.367v1.236zm-.136 1.958a.43.43 0 0 0 .415-.455c0-.182-.09-.467-.472-.467h-.461v.922zm-8.654-.062h1.805v1.11h-3.166v-4.242h3.04v1.105h-1.68v.518h1.538v1.008h-1.537zm-2.744-1.03l1.155 2.14h-1.565l-.735-1.509h-.335v1.509h-1.367v-4.242h1.367v1.6h.336l.717-1.6h1.48zm-17.854-2.17c.882 0 1.605.575 1.605 1.605v1.185c0 .973-.723 1.605-1.605 1.605h-.666c-.883 0-1.606-.626-1.606-1.605v-1.185c0-.979.723-1.605 1.606-1.605zm.233 1.509a.514.514 0 0 0-.512-.513h-.12a.51.51 0 0 0-.506.513v1.372a.51.51 0 0 0 .506.512h.12a.514.514 0 0 0 .512-.512zm23.172-1.435h3.444v4.241h-1.36v-3.137h-.763c-.006.302 0 .638 0 .974-.018 1.497-.439 2.163-1.589 2.163h-.535v-1.11s.285.012.393-.04c.245-.113.415-.21.415-.854 0-.85 0-2.231-.005-2.237zm0 0zm-19.323-.006c.882 0 1.605.484 1.611 1.35v.495c0 .865-.723 1.355-1.605 1.355h-.655v1.042h-1.366v-4.242zm.273 1.714v-.228a.431.431 0 0 0-.415-.444h-.513v1.122h.461c.393 0 .473-.296.473-.45zm8.859-1.714h1.201v4.242H75.44v-2.13l-1.4 2.13h-1.202v-4.242h1.292v2.147z"/></g><g opacity=".5"><path fill="#fff" d="M80.593 7.25c7.02 0 12.724 5.693 12.724 12.719 0 7.025-5.699 12.718-12.724 12.718l-12.724-8.58v8.58c-7.02 0-12.719-5.693-12.719-12.718 0-7.026 5.693-12.719 12.719-12.719l12.724 8.58zm-15.446 3.103a9.993 9.993 0 0 0-4.338 2.556 9.917 9.917 0 0 0-2.926 7.065 9.917 9.917 0 0 0 2.926 7.066 9.926 9.926 0 0 0 4.338 2.55zm15.446 19.05V19.12l-12.724-8.58v10.283zm9.992-9.429a9.93 9.93 0 0 0-2.927-7.065 9.97 9.97 0 0 0-4.338-2.556v19.231a10.013 10.013 0 0 0 4.338-2.55 9.927 9.927 0 0 0 2.927-7.06z"/></g></g></g><g opacity=".5"><path fill="#fff" d="M32.498 18.342c.295 2.938.554 5.879.83 8.819v.022l-.01.769-.006.165-.006.085v.074c-.006.147-.014.293-.023.439-.004.07-.011.14-.017.21l-.006.08c-.01.154-.02.308-.034.461-.005.065-.015.13-.022.194-.004.03-.009.06-.012.091l-.011.125-.034.325a6.254 6.254 0 0 1-.023.17l-.017.109-.017.114-.046.33c-.024.17-.034.22-.062.393-.018.104-.033.209-.052.313-.018.104-.046.226-.068.33l-.074.359-.034.16-.04.17c-.027.114-.052.228-.08.341a51.495 51.495 0 0 1-.176.66l-.04.143-.029.086-.034.113c-.03.103-.059.206-.09.308-.016.048-.035.095-.052.142l-.023.069-.017.045a68.63 68.63 0 0 0-.125.364l-.046.137-.022.063-.012.034a71.88 71.88 0 0 1-.142.381c-.029.077-.082.208-.108.274-.042.104-.083.209-.126.313l-.05.114c-.013.026-.023.053-.035.08l-.17.387-.052.108-.068.148a39.264 39.264 0 0 1-.194.398c-.01.021-.023.042-.034.063-.067.13-.132.262-.2.393-.076.15-.22.412-.29.535-.035.061-.072.121-.108.182l-.193.336a2.858 2.858 0 0 1-.052.085c-.024.039-.05.076-.074.114-.063.102-.124.206-.188.308-.012.02-.026.038-.04.057l-.04.056-.244.37-.051.075-.029.045-.25.359-.052.074a3.01 3.01 0 0 1-.028.04l-.256.353a46.86 46.86 0 0 1-.347.45l-.075.09-.278.342c-.018.02-.034.042-.052.063l-.068.08-.24.278-.05.063c-.008.01-.015.02-.023.028l-.285.32c-.025.027-.048.057-.074.085l-.29.307-.08.086-.29.296c-.1.102-.323.318-.37.364l-.074.074-.302.285-.057.05-.017.018c-.1.09-.202.178-.302.267l-.074.069-.302.262-.375.319-.08.062-.296.24a99.565 99.565 0 0 1-.376.296c-.02.016-.04.03-.062.045l-.023.017-.285.21-.074.052-.29.21-.074.052-.296.205-.137.09c-.074.052-.147.104-.222.154-.024.017-.05.03-.074.046l-.279.182c-.029.019-.056.039-.085.057l-.04.023a29.59 29.59 0 0 0-.228.142c-.027.017-.053.035-.08.051-.227.14-.36.218-.597.36l-.33.193-.325.182-.142.08-.45.239c-.003.001-.004.004-.006.005l-.091.046-.194.097c-.043.021-.087.04-.13.062l-.143.074c-.087.043-.174.085-.262.126l-.102.045-.12.057-.023.011c-.104.05-.247.117-.341.16l-.12.051c-.045.02-.09.038-.136.057l-.069.029-.114.045-.08.034-.113.046c-.06.024-.117.05-.177.074-.062.024-.125.046-.187.068-.145.052-.288.104-.433.154-.077.026-.152.074-.234.074-.081 0-.156-.048-.233-.074-.145-.05-.289-.101-.433-.154-.067-.025-.287-.114-.358-.142l-.12-.046c-.027-.01-.053-.023-.08-.034l-.108-.046-.21-.09-.12-.052-.114-.051-.12-.051c-.035-.016-.072-.03-.108-.046l-.148-.068a9.91 9.91 0 0 1-.096-.046l-.165-.08-.109-.05-.148-.075-.12-.057-.13-.068-.08-.04-.08-.04-.182-.096-.12-.063-.187-.103-.125-.068c-.078-.043-.156-.088-.234-.13l-.085-.046c-.085-.048-.43-.244-.547-.314-.04-.023-.08-.049-.12-.074l-.261-.159-.074-.045-.268-.171-.08-.051c-.094-.061-.19-.121-.284-.183l-.074-.05-.228-.155a34.23 34.23 0 0 1-.142-.096l-.29-.2-.012-.005a1.671 1.671 0 0 1-.068-.046l-.29-.21-.075-.058-.284-.21c-.029-.021-.058-.041-.086-.063l-.273-.21-.097-.074-.307-.245c-.025-.02-.05-.037-.074-.057l-.308-.256a5.974 5.974 0 0 1-.074-.063l-.301-.262c-.025-.021-.05-.04-.074-.062-.038-.034-.278-.25-.382-.348l-.273-.256c-.01-.008-.02-.014-.029-.023-.021-.02-.04-.042-.062-.062-.005-.005-.012-.007-.017-.012-.011-.01-.277-.27-.37-.364-.1-.1-.198-.201-.296-.302l-.074-.074-.297-.313c-.01-.012-.023-.022-.034-.034l-.045-.051-.25-.285c-.035-.038-.07-.075-.103-.114l-.28-.33-.022-.029-.057-.068-.267-.324-.086-.103c-.088-.111-.174-.224-.262-.336-.001-.002-.004-.003-.005-.006l-.08-.102-.217-.296-.125-.17a33.427 33.427 0 0 1-.25-.36l-.029-.045c-.016-.025-.035-.049-.051-.074-.08-.123-.159-.247-.24-.37-.025-.04-.053-.08-.079-.12-.071-.113-.14-.227-.21-.341-.034-.055-.07-.11-.103-.165l-.21-.359-.04-.068c-.02-.033-.04-.064-.057-.097-.058-.104-.114-.21-.171-.313l-.08-.137c-.015-.026-.031-.052-.045-.08-.068-.13-.133-.261-.2-.392l-.08-.16-.153-.33-.029-.063-.034-.074-.045-.096-.177-.41-.022-.057c-.017-.038-.036-.076-.052-.114-.052-.127-.103-.254-.153-.382l-.04-.102c-.015-.038-.032-.076-.046-.114l-.148-.404-.034-.091c-.047-.13-.115-.338-.148-.439-.02-.058-.037-.117-.057-.176-.015-.044-.032-.087-.046-.131-.04-.129-.075-.258-.113-.387a14.602 14.602 0 0 0-.035-.114l-.045-.148c-.06-.21-.086-.311-.137-.501l-.04-.148c-.027-.112-.052-.224-.08-.336a5.484 5.484 0 0 0-.022-.091l-.023-.085a33.144 33.144 0 0 1-.108-.524l-.011-.069-.017-.08-.035-.176c-.02-.117-.037-.235-.057-.353-.023-.144-.035-.206-.057-.353l-.05-.364-.012-.074-.012-.091c-.008-.063-.02-.125-.028-.188-.013-.114-.023-.228-.034-.342-.015-.148-.028-.252-.04-.398-.01-.124-.02-.247-.028-.37l-.012-.194-.011-.182-.023-.45v-.068c-.001-.029-.004-.057-.006-.085a6.021 6.021 0 0 1-.005-.166c-.005-.261-.008-.523-.012-.785v-.006c.275-2.943.532-5.888.826-8.83.02-.2-.04-.462.114-.592.153-.13.402-.009.603-.017.17-.007.338-.02.507-.029.04-.002.08-.002.12-.005.168-.016.337-.035.506-.052.023-.002.048.005.068-.005 2.428-1.217 4.853-2.437 7.27-3.672.044-.023.074-.064.109-.097.068-.065.22-.213.301-.296.07-.07.137-.14.205-.211l.029-.028c.253-.272.997-.533.757-.815-1.263-1.482-3.223-2.234-4.56-3.649-.211-.223-.018-.824.284-.877 2.138-.37 4.747.974 6.502-.301 1.755-1.276 1.281-4.173 2.295-6.092.143-.272.778-.272.922 0 1.013 1.919.539 4.816 2.294 6.092 1.755 1.275 4.364-.07 6.502.301.303.053.496.654.284.877-1.337 1.414-3.288 2.171-4.56 3.644-.234.271.49.524.735.785l.05.052.206.21.102.103c.065.064.129.13.194.193.033.033.06.076.102.097 2.42 1.238 4.847 2.46 7.276 3.678.02.01.046.003.069.006l.5.05c.042.005.084.01.126.012.17.01.341.022.512.029.201.008.45-.113.604.017.153.13.093.392.113.592zM13.323 12.66l-1.68 6.115 5.295-3.485 5.295 3.485-1.68-6.115 4.948-3.957-6.331-.29-2.238-5.932-2.237 5.932-6.331.29zM7.55 40.785c.08.096.16.193.239.296l.074.09c.063.069.12.137.182.211.034.04.069.074.103.114.057.063.114.131.176.2.04.04.074.085.114.125.063.068.12.136.194.188.04.045.08.085.12.13.062.069.13.143.198.211.04.04.08.086.12.125.08.086.165.171.25.257l.092.09c.108.115.222.223.335.33a18.068 18.068 0 0 0 .205-1.104l.035-.25.017-.125c.011-.069.022-.143.028-.217l.017-.148.017-.199c0-.057.006-.114.012-.165 0-.063.005-.12.011-.182a1.72 1.72 0 0 0 .011-.171c0-.057.006-.114.006-.17.006-.058.006-.12.006-.177.006-.057.006-.109.006-.16v-.182-.148c0-.063-.006-.12-.006-.182 0-.046-.006-.091-.006-.137-.006-.062-.006-.12-.011-.182-.006-.04-.006-.085-.012-.125l-.017-.182c-.005-.04-.005-.074-.011-.114a2.12 2.12 0 0 0-.023-.188.633.633 0 0 0-.011-.097 13.904 13.904 0 0 0-.034-.2 3.537 3.537 0 0 0-.068-.336c-.137.103-.268.2-.4.303-.04.028-.073.062-.113.09-.091.07-.177.143-.268.217-.05.04-.096.08-.142.12-.08.062-.154.13-.228.193l-.153.137c-.063.062-.131.12-.194.182-.051.051-.108.102-.16.154l-.17.17c-.057.057-.114.114-.165.171-.052.052-.103.108-.154.16-.057.062-.114.12-.17.182-.046.051-.086.102-.132.154-.057.062-.114.125-.17.193zm-.228-1.589c.057-.062.12-.12.177-.182l.17-.17c.069-.07.131-.132.2-.195.051-.05.102-.102.16-.153.073-.068.153-.137.227-.205l.148-.131c.091-.074.182-.154.273-.228l.114-.097c.12-.09.24-.188.359-.279.017-.01.028-.022.045-.034.143-.102.285-.21.433-.313-.205-.393-.461-.643-.74-.717-.051-.012-.103-.017-.154-.023-.535-.04-1.201.41-1.867 1.258-.114.154-.222.313-.33.473-.023.034-.04.068-.063.097-.103.153-.2.307-.296.466-.006.006-.006.012-.012.018l.274.46c.102.16.227.342.364.536 0-.006.006-.012.011-.017.057-.063.114-.131.171-.194l.16-.176.176-.194zm2.972-2.437a17.239 17.239 0 0 1 2.596-1.349c-.922-1.138-1.457-1.338-1.696-1.355-.046 0-.092 0-.126.012-.41.222-.808.466-1.19.734-.37.262-.728.54-1.076.837-.011.006-.017.017-.028.023h.011c.103.005.205.022.308.05.49.132.894.49 1.201 1.048zm6.058-3.057c0-.04.005-.074.005-.114.006-.011.006-.022.006-.04.006-.011.006-.022.006-.034v-.017-.023c0-.017.005-.028.005-.045.006-.023.006-.046.012-.068.006-.017.006-.035.011-.046v-.011l.017-.069.017-.057.017-.057c.006-.005.006-.01.006-.01v-.007l.017-.05a.205.205 0 0 0 .023-.052c.006-.017.017-.034.023-.051 0 0 .005-.006.005-.012 0-.005.006-.005.006-.011.006-.006.006-.017.012-.023.01-.017.017-.034.028-.051l.023-.04c.011-.011.017-.028.028-.045a1.48 1.48 0 0 1 .205-.262c-.313.011-.626.034-.934.068l-.159.017h-.011a13.033 13.033 0 0 0-3.598.974c.478.301 1.007.82 1.565 1.542.9-.33 1.828-.58 2.756-.751-.017-.074-.034-.142-.046-.21 0-.018-.005-.035-.005-.052l-.018-.154c0-.017-.005-.034-.005-.051-.006-.068-.006-.13-.017-.188zm-5.916 10.094l.433.376a26.948 26.948 0 0 0 6.069 3.849c.285-.137.564-.274.837-.41.12-.063.239-.12.353-.182.114-.057.222-.12.336-.177-.012-.023-.017-.046-.023-.068-.04-.131-.085-.262-.125-.393-.012-.034-.023-.074-.034-.108-.04-.131-.08-.262-.126-.393l-.05-.154-.12-.347c-.057-.171-.12-.342-.177-.513-1.156-3.302-2.54-6.296-3.9-8.431a19.1 19.1 0 0 0-.5-.752c-.986.393-1.92.883-2.79 1.44.034.098.062.194.085.297l.017.074v.005c0 .023.006.04.011.063.057.262.103.54.137.837v.006c.011.09.023.188.029.284 0 .029.005.052.005.08v.011c.097 1.344-.062 2.95-.467 4.606zm8.125 1.196c.04.12.08.233.12.347.158.473.312.94.46 1.406a.489.489 0 0 1 .029.086l.21-.12c.074-.04.148-.085.222-.13.223-.132.439-.268.65-.405.05-.034.096-.063.148-.097.176-.114.347-.228.512-.341.068-.046.13-.092.2-.137.198-.142.398-.279.586-.421a.804.804 0 0 0 .085-.063c.17-.13.336-.256.5-.387.052-.04.103-.085.155-.125.188-.148.37-.29.54-.439l.684-.603c.165-.148.319-.29.472-.439.04-.04.086-.08.126-.12.113-.107.222-.215.33-.324l.12-.12c.119-.119.233-.238.347-.358.017-.023.04-.04.056-.062.137-.143.262-.285.388-.422.005-.006.011-.006.011-.011h-.006c-.068-.017-.142-.04-.216-.063-.011-.006-.023-.006-.034-.011l-.21-.069-.04-.017a2.26 2.26 0 0 0-.211-.074c-.012-.005-.029-.011-.04-.017-.074-.028-.143-.05-.217-.08-.011-.005-.017-.005-.028-.01a14.012 14.012 0 0 1-.928-.388c-.034-.011-.063-.028-.091-.04l-.16-.074c-.04-.017-.08-.04-.12-.057-.05-.023-.096-.051-.147-.074l-.131-.068-.142-.074c-.046-.023-.091-.051-.137-.074-.046-.029-.091-.051-.137-.074-.05-.023-.096-.051-.148-.08-.04-.023-.085-.045-.125-.068-.051-.029-.108-.063-.16-.091l-.119-.068a1.824 1.824 0 0 0-.176-.109c-.034-.017-.063-.04-.097-.057-.097-.057-.188-.113-.28-.17-1.713-1.088-3.159-2.38-4.07-3.644a6.87 6.87 0 0 1-.615-1.025c-.86.154-1.713.376-2.539.66.137.194.273.4.404.61 1.395 2.192 2.807 5.243 3.969 8.59zm-1.372-11.204v.01c0 .024 0 .052.005.08v.04c0 .012.006.023.006.04v.006l.017.091c0 .012.006.023.006.04a13.625 13.625 0 0 1 .034.137 15.608 15.608 0 0 1 3.205-.114c1.805.125 3.513.575 4.97 1.304a13.067 13.067 0 0 0-1.224-.883c-1.184-.712-2.402-1.252-3.524-1.571l-.028-.006c-.097-.028-.194-.057-.29-.08l-.069-.017a6.951 6.951 0 0 0-1.167-.188c-.911-.068-1.554.12-1.81.524-.023.034-.04.074-.057.114l-.018.04c-.01.028-.022.057-.028.085a.165.165 0 0 0-.011.052c-.012.028-.012.062-.017.09 0 .018-.006.035-.006.052 0 .045-.006.09.006.154zm6.234 6.21c.931.468 1.851.811 2.687 1.014a22.171 22.171 0 0 0 1.486-2.072l.284-.478c.029-.057.046-.086.046-.086-.097-.12-.205-.233-.313-.347l-.017-.017a8.634 8.634 0 0 0-.325-.319c-.011-.006-.023-.017-.034-.028-.108-.103-.222-.2-.336-.296l-.045-.035c-.109-.09-.228-.182-.348-.273a14.723 14.723 0 0 0-.416-.296c-.016-.006-.028-.017-.045-.028-.13-.086-.262-.165-.393-.245-.011-.012-.022-.017-.034-.023a9.919 9.919 0 0 0-.421-.233c-.006 0-.011-.006-.017-.006-.302-.16-.61-.302-.934-.433-.006 0-.011-.005-.017-.005-.154-.063-.313-.12-.472-.177-.012-.006-.023-.011-.04-.017-.154-.057-.313-.102-.473-.154l-.051-.017c-.16-.045-.319-.09-.484-.13l-.057-.018c-.165-.045-.33-.08-.495-.114-.023-.005-.04-.005-.063-.011a13.545 13.545 0 0 0-.507-.091c-.017 0-.034-.006-.05-.006a15.405 15.405 0 0 0-.536-.074c-.011-.006-.023-.006-.034-.006a14.167 14.167 0 0 0-1.258-.085h-.353c-.587.006-1.179.04-1.777.114.12.222.262.45.427.677.854 1.185 2.22 2.403 3.849 3.433.125.08.25.16.376.234.017.011.034.017.05.028.115.069.229.137.343.2 0 .005.005.005.005.005.017.006.029.017.046.023.239.13.484.262.723.381.005.006.011.012.023.012zm-.012-.005a11.73 11.73 0 0 0 0 0zm4.999-2.573c.008.01.012-.023.017-.034.046-.1.09-.202.137-.302l.113-.25c.033-.073.21-.483.245-.57.042-.102.08-.205.12-.307.078-.202.15-.382.222-.587.035-.1.068-.2.102-.301.034-.101.07-.201.103-.302.035-.108.068-.217.102-.325.03-.096.063-.193.091-.29.052-.176.135-.472.183-.666l.142-.592c.04-.17.115-.526.142-.666.019-.095.035-.19.051-.285.052-.296.073-.415.114-.695.022-.148.077-.53.097-.7.024-.198.056-.507.074-.717l.034-.439c.008-.096.017-.193.023-.29.01-.165.015-.33.023-.495.004-.084.01-.167.011-.25.006-.255.008-.51.011-.764v-.045-.217-.352-.166-.034l-.005-.148v-.034l-.006-.16v-.04l-.006-.17v-.046L30.545 26v-.045a21.495 21.495 0 0 0-.012-.245l-.011-.205v-.051l-.011-.217v-.05l-.017-.229c-.002-.02-.005-.041-.006-.062l-.017-.234-.006-.057c-.006-.083-.01-.167-.017-.25-.001-.02-.004-.038-.006-.057l-.023-.262-.005-.057-.023-.273a4.111 4.111 0 0 0-.006-.063c-.01-.112-.023-.224-.034-.336l-.028-.296-.006-.045c-.012-.105-.024-.209-.034-.313v-.034c-.012-.113-.024-.225-.04-.336-.132-.916-.27-1.83-.404-2.744 0-.004.003-.011 0-.012-.054-.013-.115-.004-.165-.028-2.282-1.086-4.584-2.132-6.826-3.297-.288-.15-.769-.955-.74-.632.108 1.255.924 2.387 1.001 3.644.02.306-.47.676-.745.54-1.948-.957-3.267-3.58-5.437-3.58-2.17 0-3.49 2.623-5.437 3.58-.276.136-.765-.234-.746-.54.077-1.257.893-2.389 1.002-3.644.028-.323-.452.483-.74.632-2.243 1.165-4.544 2.212-6.826 3.297-.053.024-.128-.01-.171.028-.036.032-.015.095-.023.142l-.046.262c-.007.04-.016.08-.022.12-.055.34-.106.68-.16 1.019l-.011.068c-.012.084-.024.167-.034.25-.007.05-.012.1-.017.149l-.029.239-.017.142c-.01.076-.02.152-.028.228-.007.051-.012.102-.017.154l-.023.21-.017.16c-.006.051-.034.297-.04.364l-.017.194-.017.16a12.7 12.7 0 0 0-.017.187c-.005.051-.007.102-.012.154l-.017.182-.011.148-.017.176a7.976 7.976 0 0 0-.012.143l-.011.176c-.003.046-.008.091-.012.137-.004.055-.008.11-.01.165l-.007.13-.011.16c-.004.068-.009.21-.011.274l-.006.12-.006.141-.005.114-.006.131-.012.234-.005.216-.006.2-.006.187-.005.165v.661c.003.262.005.523.011.785.002.088.008.175.011.262.008.167.014.334.023.501.013.224.042.533.063.746.018.188.058.56.08.734.013.114.03.228.045.342l.051.376c.018.114.038.228.057.341.02.12.04.24.063.359.021.116.045.232.068.347.023.112.044.225.069.336.025.116.053.232.08.348.023.106.042.213.068.318.027.117.06.232.09.348a16.552 16.552 0 0 0 .28.939c.077.239.13.39.21.62.04.114.078.229.12.342.032.088.068.175.102.262.044.112.086.225.131.336.035.084.073.167.108.25.048.112.094.225.143.336l.108.24c.05.11.101.22.154.33.036.076.076.151.114.227l.159.325c.004.01.001.031.011.028.016-.004.02-.026.029-.04.226-.331.223-.34.398-.574.118-.16.236-.318.359-.473.068-.086.135-.172.205-.256.052-.062.106-.122.16-.182.068-.078.135-.157.204-.234.056-.062.114-.121.171-.182.068-.072.136-.145.205-.216.095-.098.3-.298.393-.387.062-.06.124-.12.188-.177.162-.146.256-.222.421-.359.076-.062.151-.126.228-.187.093-.075.349-.27.438-.336.07-.051.14-.1.21-.148.114-.08.335-.235.456-.314.085-.054.171-.106.256-.159.07-.044.14-.089.211-.13.09-.054.182-.103.273-.155l.211-.12c.096-.052.193-.102.29-.153.067-.035.132-.07.2-.102.11-.054.224-.103.335-.154.058-.026.114-.055.171-.08.172-.074.334-.184.518-.216 1.98-.346 3.951-.953 5.961-.917 1.551.028 3.016.73 4.52 1.105.048.012.092.036.137.057.065.029.13.06.194.09l.353.172c.017.008.034.019.051.028.123.065.25.125.37.194.268.153.532.314.797.472.027.016.054.034.08.051l.507.342c.017.012.034.027.05.04l.468.353c.02.015.042.029.062.045.153.124.304.25.456.376l.04.034c.152.138.317.264.455.416.572.63 1.107 1.294 1.674 1.93zm4.173-10.254c-.271-2.89-.366-5.802-.814-8.67-.028-.18-.365-.018-.547-.029a3.142 3.142 0 0 1-.136-.011c-.177-.018-.353-.039-.53-.057-.02-.002-.044.003-.063-.006a1098.285 1098.285 0 0 1-7.691-3.871c-.047-.024-.076-.072-.114-.108a31.83 31.83 0 0 1-.205-.2c-.113-.111-.201-.205-.319-.324-.03-.03-.061-.06-.09-.091l-.24-.256-.057-.063-.284-.313c-.022-.024-.07-.106-.063-.074.12.493.236.99.404 1.469.026.074.114.11.171.165l.2.193c.039.039.07.088.119.114 2.464 1.326 4.907 2.694 7.412 3.94.213.106.665-.137.706.097 1.634 9.198.9 9.248-1.588 18.821-.086.332-.303.617-.495.9a52.2 52.2 0 0 1-1.697 2.334c-.188.247-.374.505-.615.7a253.48 253.48 0 0 1-6.758 5.272c-.223.169-.489.27-.74.393-.535.262-1.064.985-1.617.763-2.415-.97-4.46-2.683-6.655-4.082-.259-.165-.479-.385-.695-.603-.9-.912-1.784-1.841-2.653-2.784-.272-.297-.952-1.261-1.133-1.538-.17-.261-.401-.501-.484-.802-.985-3.598-2.346-7.145-2.71-10.857-.277-2.843.32-5.716.815-8.529.04-.232.489.008.7-.097 2.507-1.246 4.952-2.613 7.418-3.94.049-.025.08-.075.12-.113l.199-.194c.057-.055.145-.09.17-.165.17-.479.284-.975.405-1.469.008-.031-.041.05-.063.074l-.284.314c-.02.02-.038.041-.057.062-.08.086-.159.172-.24.256-.029.031-.06.06-.09.091-.115.117-.207.215-.32.325a31.83 31.83 0 0 1-.204.2c-.038.036-.067.084-.114.107-2.555 1.304-5.12 2.588-7.686 3.872-.019.01-.042.003-.063.005-.178.02-.356.04-.535.057a3.8 3.8 0 0 1-.13.012c-.18.012-.514-.145-.542.034-.448 2.872-.546 5.788-.82 8.682v.011c.004.255.006.509.012.763.002.082.008.163.011.245.008.167.013.334.023.501.006.091.016.182.023.273.012.152.021.304.034.456.008.091.02.182.029.273.015.146.029.293.045.439.01.089.023.178.034.267.019.142.035.285.057.427.014.088.036.174.052.262.024.138.043.277.068.416.015.083.034.167.051.25.028.139.055.278.085.416.018.08.039.16.057.239.033.136.063.274.097.41.02.076.042.151.063.227l.108.405c.029.104.178.605.182.62.021.069.046.137.068.205.044.133.086.266.131.399.022.063.046.125.069.188l.148.398c.044.118.22.562.227.58.023.057.05.11.074.166.058.13.114.262.171.393l.074.165c.057.129.112.259.171.387.024.052.053.102.08.154l.193.375c.1.193.156.3.28.519.024.044.053.087.079.13.073.124.143.248.216.37.026.043.054.084.08.126.071.115.14.232.21.347l.08.12.234.353.08.114c.08.115.158.232.239.347.025.036.053.072.08.108l.25.342.08.102.256.33c.025.032.048.065.074.097.086.109.174.216.262.325.13.16.16.195.341.41l.074.085.274.307.074.08.279.302.074.08c.198.204.217.222.358.364l.285.284c.024.024.05.046.074.069l.29.273.069.063c.098.089.196.179.296.267.024.022.05.042.074.063.099.085.196.172.296.256.023.02.05.037.074.057.099.08.196.164.296.245.024.02.05.037.074.057l.29.233c.024.02.05.038.074.057l.29.222.074.057.29.216.075.052.284.205.074.05c.095.066.19.13.285.194l.074.052.28.188.073.045c.092.058.182.119.273.177.026.016.054.029.08.045.088.054.174.111.262.165l.08.046c.086.052.17.107.256.16l.08.045.25.148.08.045.239.137c.028.016.057.03.085.045l.228.126.085.045.217.12.085.045.205.108.091.046c.094.048.185.096.28.142.058.03.117.058.176.086l.096.045.16.08c.032.016.064.03.097.045l.148.069.102.045c.042.02.083.039.125.057l.109.046.216.097c.173.074.222.091.393.16l.17.067c.055.022.11.043.166.063.134.05.26.148.404.148.143 0 .27-.098.404-.148l.165-.063c.161-.061.198-.076.359-.142l.205-.085.216-.097c.036-.016.073-.03.108-.046l.126-.057.108-.045.245-.114.159-.08.097-.045.176-.086.097-.045.188-.097.091-.046c.069-.035.137-.072.205-.108l.085-.045.217-.12.085-.045.228-.126.085-.045.24-.137.08-.045c.083-.05.166-.1.25-.148l.08-.046c.085-.052.17-.106.255-.16l.074-.045.262-.165.074-.045c.092-.059.182-.119.274-.177.024-.016.05-.03.074-.045l.279-.188.074-.052.284-.193.074-.051.285-.205.074-.052c.097-.071.194-.144.29-.216l.074-.057.29-.222.075-.057.29-.233c.024-.02.05-.038.074-.057.1-.081.197-.164.296-.245.024-.02.05-.037.074-.057.1-.084.197-.171.296-.256.025-.021.05-.041.074-.063.1-.088.198-.178.296-.267l.069-.063.29-.273c.024-.023.05-.045.074-.069.096-.094.19-.19.285-.284.14-.142.16-.16.358-.365.026-.026.05-.053.074-.08l.28-.301c.024-.027.05-.053.073-.08a57.679 57.679 0 0 0 .348-.393c.09-.106.177-.213.267-.318l.08-.091.262-.325.074-.097.256-.33.08-.102.25-.342.08-.108.239-.347c.026-.039.054-.076.08-.114l.233-.353.08-.12c.075-.119.147-.24.222-.359.026-.042.054-.082.08-.125.073-.123.143-.247.216-.37.026-.044.055-.086.08-.13.07-.125.136-.252.205-.377l.08-.142c.065-.125.13-.25.193-.376l.074-.153.182-.382c.055-.118.232-.53.245-.558l.074-.165c.004-.01.185-.466.228-.58l.148-.4.068-.187c.045-.132.087-.266.13-.399.023-.068.048-.136.07-.205.003-.011.153-.517.181-.62l.109-.404c.02-.076.043-.152.062-.228a20.4 20.4 0 0 0 .097-.41c.034-.15.116-.554.137-.655.017-.083.036-.166.05-.25.026-.138.046-.277.07-.416.014-.087.032-.174.045-.262.02-.142.037-.284.057-.427.012-.089.029-.178.04-.267.017-.146.03-.292.045-.439l.029-.273c.013-.152.022-.304.034-.455.007-.091.017-.182.022-.274.01-.166.016-.334.023-.5.004-.082.01-.164.011-.245.006-.255.008-.509.012-.763v-.012zm-18.44-14.768l-3.826-3.057 4.89-.228 1.725-4.583 1.725 4.577 4.89.228-3.82 3.057 1.299 4.726-4.094-2.693-4.093 2.693zM9.918 27.741h.473l-.137 2.59H9.133l.08-1.536H5.46l.347-6.644h1.127l-.296 5.59h2.158l.29-5.59h1.122zm10.408-2.556l2.374 3.61h-1.35l-1.884-2.944h-.444v2.944H17.9V22.15h1.122v2.653h.319l1.844-2.653h1.298zm-7.555.421c0 .575.074 1.065.222 1.464.21.563.54.848.996.848.786 0 1.218-.467 1.304-1.395h1.087c-.011.712-.222 1.292-.638 1.754-.432.483-.996.723-1.696.723-.888 0-1.543-.376-1.959-1.133-.336-.598-.5-1.378-.5-2.34 0-.94.176-1.72.523-2.334.438-.77 1.093-1.156 1.976-1.156.66 0 1.207.228 1.64.683.415.444.631 1.002.654 1.68h-1.07a1.81 1.81 0 0 0-.262-.792 1.078 1.078 0 0 0-.957-.518c-.882 0-1.32.837-1.32 2.516zm16.077 3.189H27.71l-.49-1.418h-1.941l-.342 1.418h-1.144l1.554-6.644h1.286zm-1.918-2.471l-.854-2.58-.536 2.58z"/></g></g></g></svg>